%FSLAX45Y45*%
G04 Gerber Fmt 4.5, Leading zero omitted, Abs format (unit mm)*
G04 Created by KiCad (PCBNEW (6.0.2-0)) date 2023-05-16 15:48:21*
%MOMM*%
%LPD*%
G01*
G04 APERTURE LIST*
%TA.AperFunction,Profile*%
%ADD10C,0.100000*%
%TD*%
%ADD11C,0.200000*%
%ADD12C,0.040000*%
%ADD13C,0.060000*%
%ADD14C,0.076200*%
%ADD15C,0.080000*%
%ADD16C,0.090000*%
%ADD17C,0.100000*%
%ADD18C,0.120000*%
G04 APERTURE END LIST*
D10*
X4064000Y-3418105D02*
G75*
G03*
X3810000Y-3672105I0J-254000D01*
G01*
X15771495Y-3672105D02*
X15771495Y-15557500D01*
X3810000Y-15557500D02*
G75*
G03*
X4064000Y-15811500I254000J0D01*
G01*
X15517495Y-15811500D02*
G75*
G03*
X15771495Y-15557500I0J254000D01*
G01*
X4064000Y-15811500D02*
X15517495Y-15811500D01*
X3810000Y-3672105D02*
X3810000Y-15557500D01*
X15771495Y-3672105D02*
G75*
G03*
X15517495Y-3418105I-254000J0D01*
G01*
X15517495Y-3418105D02*
X4064000Y-3418105D01*
D11*
D12*
X5646050Y-10584500D02*
X5686050Y-10624500D01*
X5686050Y-10584500D02*
X5646050Y-10624500D01*
X6330000Y-11283000D02*
X6370000Y-11323000D01*
X6370000Y-11283000D02*
X6330000Y-11323000D01*
X6432720Y-11086310D02*
X6472720Y-11126310D01*
X6472720Y-11086310D02*
X6432720Y-11126310D01*
X6442450Y-7473000D02*
X6482450Y-7513000D01*
X6482450Y-7473000D02*
X6442450Y-7513000D01*
X6457000Y-9632000D02*
X6497000Y-9672000D01*
X6497000Y-9632000D02*
X6457000Y-9672000D01*
X6457000Y-12813610D02*
X6497000Y-12853610D01*
X6497000Y-12813610D02*
X6457000Y-12853610D01*
X6520500Y-7600000D02*
X6560500Y-7640000D01*
X6560500Y-7600000D02*
X6520500Y-7640000D01*
X6897990Y-10844650D02*
X6937990Y-10884650D01*
X6937990Y-10844650D02*
X6897990Y-10884650D01*
X6965000Y-10648000D02*
X7005000Y-10688000D01*
X7005000Y-10648000D02*
X6965000Y-10688000D01*
X7244400Y-11664000D02*
X7284400Y-11704000D01*
X7284400Y-11664000D02*
X7244400Y-11704000D01*
X7244400Y-12426000D02*
X7284400Y-12466000D01*
X7284400Y-12426000D02*
X7244400Y-12466000D01*
X7244400Y-13289600D02*
X7284400Y-13329600D01*
X7284400Y-13289600D02*
X7244400Y-13329600D01*
X7596800Y-9610370D02*
X7636800Y-9650370D01*
X7636800Y-9610370D02*
X7596800Y-9650370D01*
X7955600Y-10749600D02*
X7995600Y-10789600D01*
X7995600Y-10749600D02*
X7955600Y-10789600D01*
X8057300Y-9281410D02*
X8097300Y-9321410D01*
X8097300Y-9281410D02*
X8057300Y-9321410D01*
X8257470Y-10850850D02*
X8297470Y-10890850D01*
X8297470Y-10850850D02*
X8257470Y-10890850D01*
X8758940Y-10355410D02*
X8798940Y-10395410D01*
X8798940Y-10355410D02*
X8758940Y-10395410D01*
X8764010Y-12887590D02*
X8804010Y-12927590D01*
X8804010Y-12887590D02*
X8764010Y-12927590D01*
X8764010Y-13192390D02*
X8804010Y-13232390D01*
X8804010Y-13192390D02*
X8764010Y-13232390D01*
X8768400Y-12631050D02*
X8808400Y-12671050D01*
X8808400Y-12631050D02*
X8768400Y-12671050D01*
X8773330Y-9018670D02*
X8813330Y-9058670D01*
X8813330Y-9018670D02*
X8773330Y-9058670D01*
X8927390Y-13749000D02*
X8967390Y-13789000D01*
X8967390Y-13749000D02*
X8927390Y-13789000D01*
X9296870Y-14175220D02*
X9336870Y-14215220D01*
X9336870Y-14175220D02*
X9296870Y-14215220D01*
X9439170Y-8819570D02*
X9479170Y-8859570D01*
X9479170Y-8819570D02*
X9439170Y-8859570D01*
X10370450Y-11079800D02*
X10410450Y-11119800D01*
X10410450Y-11079800D02*
X10370450Y-11119800D01*
X10370450Y-11714800D02*
X10410450Y-11754800D01*
X10410450Y-11714800D02*
X10370450Y-11754800D01*
X10933440Y-14214240D02*
X10973440Y-14254240D01*
X10973440Y-14214240D02*
X10933440Y-14254240D01*
X12108500Y-14585000D02*
X12148500Y-14625000D01*
X12148500Y-14585000D02*
X12108500Y-14625000D01*
X12375200Y-14159050D02*
X12415200Y-14199050D01*
X12415200Y-14159050D02*
X12375200Y-14199050D01*
X12426000Y-14915200D02*
X12466000Y-14955200D01*
X12466000Y-14915200D02*
X12426000Y-14955200D01*
X12578400Y-9124000D02*
X12618400Y-9164000D01*
X12618400Y-9124000D02*
X12578400Y-9164000D01*
D13*
X5711240Y-7874000D02*
G75*
G03*
X5711240Y-7874000I-30000J0D01*
G01*
X5911240Y-7874000D02*
G75*
G03*
X5911240Y-7874000I-30000J0D01*
G01*
X11235740Y-7874000D02*
G75*
G03*
X11235740Y-7874000I-30000J0D01*
G01*
X11435740Y-7874000D02*
G75*
G03*
X11435740Y-7874000I-30000J0D01*
G01*
D14*
X5143500Y-6438900D02*
X5143500Y-6515100D01*
X5105400Y-6477000D02*
X5181600Y-6477000D01*
X5397500Y-6438900D02*
X5397500Y-6515100D01*
X5359400Y-6477000D02*
X5435600Y-6477000D01*
X5651500Y-6438900D02*
X5651500Y-6515100D01*
X5613400Y-6477000D02*
X5689600Y-6477000D01*
X5905500Y-6438900D02*
X5905500Y-6515100D01*
X5867400Y-6477000D02*
X5943600Y-6477000D01*
X6159500Y-6438900D02*
X6159500Y-6515100D01*
X6121400Y-6477000D02*
X6197600Y-6477000D01*
X6413500Y-6438900D02*
X6413500Y-6515100D01*
X6375400Y-6477000D02*
X6451600Y-6477000D01*
X6667500Y-6438900D02*
X6667500Y-6515100D01*
X6629400Y-6477000D02*
X6705600Y-6477000D01*
X6921500Y-6438900D02*
X6921500Y-6515100D01*
X6883400Y-6477000D02*
X6959600Y-6477000D01*
X8483600Y-4470400D02*
X8483600Y-4546600D01*
X8445500Y-4508500D02*
X8521700Y-4508500D01*
X8737600Y-4470400D02*
X8737600Y-4546600D01*
X8699500Y-4508500D02*
X8775700Y-4508500D01*
X8991600Y-4470400D02*
X8991600Y-4546600D01*
X8953500Y-4508500D02*
X9029700Y-4508500D01*
X9245600Y-4470400D02*
X9245600Y-4546600D01*
X9207500Y-4508500D02*
X9283700Y-4508500D01*
D15*
X4727285Y-12664784D02*
X4727285Y-12608215D01*
X4670716Y-12608215D01*
X4670716Y-12664784D01*
X4727285Y-12664784D01*
X4727285Y-13426784D02*
X4727285Y-13370215D01*
X4670716Y-13370215D01*
X4670716Y-13426784D01*
X4727285Y-13426784D01*
X4790785Y-9371785D02*
X4790785Y-9315216D01*
X4734216Y-9315216D01*
X4734216Y-9371785D01*
X4790785Y-9371785D01*
X4790785Y-9861785D02*
X4790785Y-9805216D01*
X4734216Y-9805216D01*
X4734216Y-9861785D01*
X4790785Y-9861785D01*
X4792785Y-10569285D02*
X4792785Y-10512716D01*
X4736216Y-10512716D01*
X4736216Y-10569285D01*
X4792785Y-10569285D01*
X4792785Y-10823285D02*
X4792785Y-10766716D01*
X4736216Y-10766716D01*
X4736216Y-10823285D01*
X4792785Y-10823285D01*
X5042785Y-10569285D02*
X5042785Y-10512716D01*
X4986216Y-10512716D01*
X4986216Y-10569285D01*
X5042785Y-10569285D01*
X5042785Y-10823285D02*
X5042785Y-10766716D01*
X4986216Y-10766716D01*
X4986216Y-10823285D01*
X5042785Y-10823285D01*
X5235285Y-12664784D02*
X5235285Y-12608215D01*
X5178716Y-12608215D01*
X5178716Y-12664784D01*
X5235285Y-12664784D01*
X5235285Y-13426784D02*
X5235285Y-13370215D01*
X5178716Y-13370215D01*
X5178716Y-13426784D01*
X5235285Y-13426784D01*
X5426785Y-8538285D02*
X5426785Y-8481716D01*
X5370216Y-8481716D01*
X5370216Y-8538285D01*
X5426785Y-8538285D01*
X5426785Y-8792285D02*
X5426785Y-8735716D01*
X5370216Y-8735716D01*
X5370216Y-8792285D01*
X5426785Y-8792285D01*
X5426785Y-9046285D02*
X5426785Y-8989716D01*
X5370216Y-8989716D01*
X5370216Y-9046285D01*
X5426785Y-9046285D01*
X5426785Y-9300285D02*
X5426785Y-9243716D01*
X5370216Y-9243716D01*
X5370216Y-9300285D01*
X5426785Y-9300285D01*
X5426785Y-9554285D02*
X5426785Y-9497716D01*
X5370216Y-9497716D01*
X5370216Y-9554285D01*
X5426785Y-9554285D01*
X5426785Y-9808285D02*
X5426785Y-9751716D01*
X5370216Y-9751716D01*
X5370216Y-9808285D01*
X5426785Y-9808285D01*
X5426785Y-10062285D02*
X5426785Y-10005716D01*
X5370216Y-10005716D01*
X5370216Y-10062285D01*
X5426785Y-10062285D01*
X5426785Y-10316285D02*
X5426785Y-10259716D01*
X5370216Y-10259716D01*
X5370216Y-10316285D01*
X5426785Y-10316285D01*
X5426785Y-10570285D02*
X5426785Y-10513716D01*
X5370216Y-10513716D01*
X5370216Y-10570285D01*
X5426785Y-10570285D01*
X5426785Y-10824285D02*
X5426785Y-10767716D01*
X5370216Y-10767716D01*
X5370216Y-10824285D01*
X5426785Y-10824285D01*
X5426785Y-11078285D02*
X5426785Y-11021716D01*
X5370216Y-11021716D01*
X5370216Y-11078285D01*
X5426785Y-11078285D01*
X5426785Y-11332284D02*
X5426785Y-11275715D01*
X5370216Y-11275715D01*
X5370216Y-11332284D01*
X5426785Y-11332284D01*
X5426785Y-11586284D02*
X5426785Y-11529715D01*
X5370216Y-11529715D01*
X5370216Y-11586284D01*
X5426785Y-11586284D01*
X5426785Y-11840284D02*
X5426785Y-11783715D01*
X5370216Y-11783715D01*
X5370216Y-11840284D01*
X5426785Y-11840284D01*
X5743284Y-12664784D02*
X5743284Y-12608215D01*
X5686715Y-12608215D01*
X5686715Y-12664784D01*
X5743284Y-12664784D01*
X5743284Y-13426784D02*
X5743284Y-13370215D01*
X5686715Y-13370215D01*
X5686715Y-13426784D01*
X5743284Y-13426784D01*
X6188784Y-8538285D02*
X6188784Y-8481716D01*
X6132215Y-8481716D01*
X6132215Y-8538285D01*
X6188784Y-8538285D01*
X6188784Y-8792285D02*
X6188784Y-8735716D01*
X6132215Y-8735716D01*
X6132215Y-8792285D01*
X6188784Y-8792285D01*
X6188784Y-9046285D02*
X6188784Y-8989716D01*
X6132215Y-8989716D01*
X6132215Y-9046285D01*
X6188784Y-9046285D01*
X6188784Y-9300285D02*
X6188784Y-9243716D01*
X6132215Y-9243716D01*
X6132215Y-9300285D01*
X6188784Y-9300285D01*
X6188784Y-9554285D02*
X6188784Y-9497716D01*
X6132215Y-9497716D01*
X6132215Y-9554285D01*
X6188784Y-9554285D01*
X6188784Y-9808285D02*
X6188784Y-9751716D01*
X6132215Y-9751716D01*
X6132215Y-9808285D01*
X6188784Y-9808285D01*
X6188784Y-10062285D02*
X6188784Y-10005716D01*
X6132215Y-10005716D01*
X6132215Y-10062285D01*
X6188784Y-10062285D01*
X6188784Y-10316285D02*
X6188784Y-10259716D01*
X6132215Y-10259716D01*
X6132215Y-10316285D01*
X6188784Y-10316285D01*
X6188784Y-10570285D02*
X6188784Y-10513716D01*
X6132215Y-10513716D01*
X6132215Y-10570285D01*
X6188784Y-10570285D01*
X6188784Y-10824285D02*
X6188784Y-10767716D01*
X6132215Y-10767716D01*
X6132215Y-10824285D01*
X6188784Y-10824285D01*
X6188784Y-11078285D02*
X6188784Y-11021716D01*
X6132215Y-11021716D01*
X6132215Y-11078285D01*
X6188784Y-11078285D01*
X6188784Y-11332284D02*
X6188784Y-11275715D01*
X6132215Y-11275715D01*
X6132215Y-11332284D01*
X6188784Y-11332284D01*
X6188784Y-11586284D02*
X6188784Y-11529715D01*
X6132215Y-11529715D01*
X6132215Y-11586284D01*
X6188784Y-11586284D01*
X6188784Y-11840284D02*
X6188784Y-11783715D01*
X6132215Y-11783715D01*
X6132215Y-11840284D01*
X6188784Y-11840284D01*
X6251284Y-12664784D02*
X6251284Y-12608215D01*
X6194715Y-12608215D01*
X6194715Y-12664784D01*
X6251284Y-12664784D01*
X6251284Y-13426784D02*
X6251284Y-13370215D01*
X6194715Y-13370215D01*
X6194715Y-13426784D01*
X6251284Y-13426784D01*
X6568784Y-10063285D02*
X6568784Y-10006716D01*
X6512215Y-10006716D01*
X6512215Y-10063285D01*
X6568784Y-10063285D01*
X6568784Y-10313285D02*
X6568784Y-10256716D01*
X6512215Y-10256716D01*
X6512215Y-10313285D01*
X6568784Y-10313285D01*
X7013284Y-8537285D02*
X7013284Y-8480716D01*
X6956715Y-8480716D01*
X6956715Y-8537285D01*
X7013284Y-8537285D01*
X7013284Y-8791285D02*
X7013284Y-8734716D01*
X6956715Y-8734716D01*
X6956715Y-8791285D01*
X7013284Y-8791285D01*
X7013284Y-9045285D02*
X7013284Y-8988716D01*
X6956715Y-8988716D01*
X6956715Y-9045285D01*
X7013284Y-9045285D01*
X7013284Y-9299285D02*
X7013284Y-9242716D01*
X6956715Y-9242716D01*
X6956715Y-9299285D01*
X7013284Y-9299285D01*
X7013284Y-9553285D02*
X7013284Y-9496716D01*
X6956715Y-9496716D01*
X6956715Y-9553285D01*
X7013284Y-9553285D01*
X7013284Y-9807285D02*
X7013284Y-9750716D01*
X6956715Y-9750716D01*
X6956715Y-9807285D01*
X7013284Y-9807285D01*
X7013284Y-10061285D02*
X7013284Y-10004716D01*
X6956715Y-10004716D01*
X6956715Y-10061285D01*
X7013284Y-10061285D01*
X7013284Y-10315285D02*
X7013284Y-10258716D01*
X6956715Y-10258716D01*
X6956715Y-10315285D01*
X7013284Y-10315285D01*
X7013284Y-11458284D02*
X7013284Y-11401715D01*
X6956715Y-11401715D01*
X6956715Y-11458284D01*
X7013284Y-11458284D01*
X7013284Y-11712284D02*
X7013284Y-11655715D01*
X6956715Y-11655715D01*
X6956715Y-11712284D01*
X7013284Y-11712284D01*
X7013284Y-11966284D02*
X7013284Y-11909715D01*
X6956715Y-11909715D01*
X6956715Y-11966284D01*
X7013284Y-11966284D01*
X7013284Y-12220284D02*
X7013284Y-12163715D01*
X6956715Y-12163715D01*
X6956715Y-12220284D01*
X7013284Y-12220284D01*
X7013284Y-12474284D02*
X7013284Y-12417715D01*
X6956715Y-12417715D01*
X6956715Y-12474284D01*
X7013284Y-12474284D01*
X7013284Y-12728284D02*
X7013284Y-12671715D01*
X6956715Y-12671715D01*
X6956715Y-12728284D01*
X7013284Y-12728284D01*
X7013284Y-12982284D02*
X7013284Y-12925715D01*
X6956715Y-12925715D01*
X6956715Y-12982284D01*
X7013284Y-12982284D01*
X7015284Y-11077285D02*
X7015284Y-11020716D01*
X6958715Y-11020716D01*
X6958715Y-11077285D01*
X7015284Y-11077285D01*
X7078784Y-8029284D02*
X7078784Y-7972715D01*
X7022215Y-7972715D01*
X7022215Y-8029284D01*
X7078784Y-8029284D01*
X7265284Y-11077285D02*
X7265284Y-11020716D01*
X7208715Y-11020716D01*
X7208715Y-11077285D01*
X7265284Y-11077285D01*
X7328784Y-8029284D02*
X7328784Y-7972715D01*
X7272215Y-7972715D01*
X7272215Y-8029284D01*
X7328784Y-8029284D01*
X7775284Y-8537285D02*
X7775284Y-8480716D01*
X7718715Y-8480716D01*
X7718715Y-8537285D01*
X7775284Y-8537285D01*
X7775284Y-8791285D02*
X7775284Y-8734716D01*
X7718715Y-8734716D01*
X7718715Y-8791285D01*
X7775284Y-8791285D01*
X7775284Y-9045285D02*
X7775284Y-8988716D01*
X7718715Y-8988716D01*
X7718715Y-9045285D01*
X7775284Y-9045285D01*
X7775284Y-9299285D02*
X7775284Y-9242716D01*
X7718715Y-9242716D01*
X7718715Y-9299285D01*
X7775284Y-9299285D01*
X7775284Y-9553285D02*
X7775284Y-9496716D01*
X7718715Y-9496716D01*
X7718715Y-9553285D01*
X7775284Y-9553285D01*
X7775284Y-9807285D02*
X7775284Y-9750716D01*
X7718715Y-9750716D01*
X7718715Y-9807285D01*
X7775284Y-9807285D01*
X7775284Y-10061285D02*
X7775284Y-10004716D01*
X7718715Y-10004716D01*
X7718715Y-10061285D01*
X7775284Y-10061285D01*
X7775284Y-10315285D02*
X7775284Y-10258716D01*
X7718715Y-10258716D01*
X7718715Y-10315285D01*
X7775284Y-10315285D01*
X7775284Y-11458284D02*
X7775284Y-11401715D01*
X7718715Y-11401715D01*
X7718715Y-11458284D01*
X7775284Y-11458284D01*
X7775284Y-11712284D02*
X7775284Y-11655715D01*
X7718715Y-11655715D01*
X7718715Y-11712284D01*
X7775284Y-11712284D01*
X7775284Y-11966284D02*
X7775284Y-11909715D01*
X7718715Y-11909715D01*
X7718715Y-11966284D01*
X7775284Y-11966284D01*
X7775284Y-12220284D02*
X7775284Y-12163715D01*
X7718715Y-12163715D01*
X7718715Y-12220284D01*
X7775284Y-12220284D01*
X7775284Y-12474284D02*
X7775284Y-12417715D01*
X7718715Y-12417715D01*
X7718715Y-12474284D01*
X7775284Y-12474284D01*
X7775284Y-12728284D02*
X7775284Y-12671715D01*
X7718715Y-12671715D01*
X7718715Y-12728284D01*
X7775284Y-12728284D01*
X7775284Y-12982284D02*
X7775284Y-12925715D01*
X7718715Y-12925715D01*
X7718715Y-12982284D01*
X7775284Y-12982284D01*
X8410285Y-8537285D02*
X8410285Y-8480716D01*
X8353715Y-8480716D01*
X8353715Y-8537285D01*
X8410285Y-8537285D01*
X8410285Y-8791285D02*
X8410285Y-8734716D01*
X8353715Y-8734716D01*
X8353715Y-8791285D01*
X8410285Y-8791285D01*
X8410285Y-9045285D02*
X8410285Y-8988716D01*
X8353715Y-8988716D01*
X8353715Y-9045285D01*
X8410285Y-9045285D01*
X8410285Y-9299285D02*
X8410285Y-9242716D01*
X8353715Y-9242716D01*
X8353715Y-9299285D01*
X8410285Y-9299285D01*
X8410285Y-9553285D02*
X8410285Y-9496716D01*
X8353715Y-9496716D01*
X8353715Y-9553285D01*
X8410285Y-9553285D01*
X8410285Y-9807285D02*
X8410285Y-9750716D01*
X8353715Y-9750716D01*
X8353715Y-9807285D01*
X8410285Y-9807285D01*
X8410285Y-10061285D02*
X8410285Y-10004716D01*
X8353715Y-10004716D01*
X8353715Y-10061285D01*
X8410285Y-10061285D01*
X8410285Y-10315285D02*
X8410285Y-10258716D01*
X8353715Y-10258716D01*
X8353715Y-10315285D01*
X8410285Y-10315285D01*
X8410285Y-11458284D02*
X8410285Y-11401715D01*
X8353715Y-11401715D01*
X8353715Y-11458284D01*
X8410285Y-11458284D01*
X8410285Y-11712284D02*
X8410285Y-11655715D01*
X8353715Y-11655715D01*
X8353715Y-11712284D01*
X8410285Y-11712284D01*
X8410285Y-11966284D02*
X8410285Y-11909715D01*
X8353715Y-11909715D01*
X8353715Y-11966284D01*
X8410285Y-11966284D01*
X8410285Y-12220284D02*
X8410285Y-12163715D01*
X8353715Y-12163715D01*
X8353715Y-12220284D01*
X8410285Y-12220284D01*
X8410285Y-12474284D02*
X8410285Y-12417715D01*
X8353715Y-12417715D01*
X8353715Y-12474284D01*
X8410285Y-12474284D01*
X8410285Y-12728284D02*
X8410285Y-12671715D01*
X8353715Y-12671715D01*
X8353715Y-12728284D01*
X8410285Y-12728284D01*
X8410285Y-12982284D02*
X8410285Y-12925715D01*
X8353715Y-12925715D01*
X8353715Y-12982284D01*
X8410285Y-12982284D01*
X8410285Y-13236284D02*
X8410285Y-13179715D01*
X8353715Y-13179715D01*
X8353715Y-13236284D01*
X8410285Y-13236284D01*
X8412285Y-11013785D02*
X8412285Y-10957216D01*
X8355715Y-10957216D01*
X8355715Y-11013785D01*
X8412285Y-11013785D01*
X8475785Y-8029284D02*
X8475785Y-7972715D01*
X8419216Y-7972715D01*
X8419216Y-8029284D01*
X8475785Y-8029284D01*
X8662285Y-11013785D02*
X8662285Y-10957216D01*
X8605716Y-10957216D01*
X8605716Y-11013785D01*
X8662285Y-11013785D01*
X8725785Y-8029284D02*
X8725785Y-7972715D01*
X8669216Y-7972715D01*
X8669216Y-8029284D01*
X8725785Y-8029284D01*
X9172285Y-8537285D02*
X9172285Y-8480716D01*
X9115716Y-8480716D01*
X9115716Y-8537285D01*
X9172285Y-8537285D01*
X9172285Y-8791285D02*
X9172285Y-8734716D01*
X9115716Y-8734716D01*
X9115716Y-8791285D01*
X9172285Y-8791285D01*
X9172285Y-9045285D02*
X9172285Y-8988716D01*
X9115716Y-8988716D01*
X9115716Y-9045285D01*
X9172285Y-9045285D01*
X9172285Y-9299285D02*
X9172285Y-9242716D01*
X9115716Y-9242716D01*
X9115716Y-9299285D01*
X9172285Y-9299285D01*
X9172285Y-9553285D02*
X9172285Y-9496716D01*
X9115716Y-9496716D01*
X9115716Y-9553285D01*
X9172285Y-9553285D01*
X9172285Y-9807285D02*
X9172285Y-9750716D01*
X9115716Y-9750716D01*
X9115716Y-9807285D01*
X9172285Y-9807285D01*
X9172285Y-10061285D02*
X9172285Y-10004716D01*
X9115716Y-10004716D01*
X9115716Y-10061285D01*
X9172285Y-10061285D01*
X9172285Y-10315285D02*
X9172285Y-10258716D01*
X9115716Y-10258716D01*
X9115716Y-10315285D01*
X9172285Y-10315285D01*
X9172285Y-11458284D02*
X9172285Y-11401715D01*
X9115716Y-11401715D01*
X9115716Y-11458284D01*
X9172285Y-11458284D01*
X9172285Y-11712284D02*
X9172285Y-11655715D01*
X9115716Y-11655715D01*
X9115716Y-11712284D01*
X9172285Y-11712284D01*
X9172285Y-11966284D02*
X9172285Y-11909715D01*
X9115716Y-11909715D01*
X9115716Y-11966284D01*
X9172285Y-11966284D01*
X9172285Y-12220284D02*
X9172285Y-12163715D01*
X9115716Y-12163715D01*
X9115716Y-12220284D01*
X9172285Y-12220284D01*
X9172285Y-12474284D02*
X9172285Y-12417715D01*
X9115716Y-12417715D01*
X9115716Y-12474284D01*
X9172285Y-12474284D01*
X9172285Y-12728284D02*
X9172285Y-12671715D01*
X9115716Y-12671715D01*
X9115716Y-12728284D01*
X9172285Y-12728284D01*
X9172285Y-12982284D02*
X9172285Y-12925715D01*
X9115716Y-12925715D01*
X9115716Y-12982284D01*
X9172285Y-12982284D01*
X9172285Y-13236284D02*
X9172285Y-13179715D01*
X9115716Y-13179715D01*
X9115716Y-13236284D01*
X9172285Y-13236284D01*
X10060785Y-8474785D02*
X10060785Y-8418216D01*
X10004216Y-8418216D01*
X10004216Y-8474785D01*
X10060785Y-8474785D01*
X10060785Y-8728785D02*
X10060785Y-8672216D01*
X10004216Y-8672216D01*
X10004216Y-8728785D01*
X10060785Y-8728785D01*
X10060785Y-8982785D02*
X10060785Y-8926216D01*
X10004216Y-8926216D01*
X10004216Y-8982785D01*
X10060785Y-8982785D01*
X10060785Y-9236785D02*
X10060785Y-9180216D01*
X10004216Y-9180216D01*
X10004216Y-9236785D01*
X10060785Y-9236785D01*
X10060785Y-9490785D02*
X10060785Y-9434216D01*
X10004216Y-9434216D01*
X10004216Y-9490785D01*
X10060785Y-9490785D01*
X10060785Y-9744785D02*
X10060785Y-9688216D01*
X10004216Y-9688216D01*
X10004216Y-9744785D01*
X10060785Y-9744785D01*
X10060785Y-9998785D02*
X10060785Y-9942216D01*
X10004216Y-9942216D01*
X10004216Y-9998785D01*
X10060785Y-9998785D01*
X10060785Y-10252785D02*
X10060785Y-10196216D01*
X10004216Y-10196216D01*
X10004216Y-10252785D01*
X10060785Y-10252785D01*
X10060785Y-10506785D02*
X10060785Y-10450216D01*
X10004216Y-10450216D01*
X10004216Y-10506785D01*
X10060785Y-10506785D01*
X10060785Y-10760785D02*
X10060785Y-10704216D01*
X10004216Y-10704216D01*
X10004216Y-10760785D01*
X10060785Y-10760785D01*
X10060785Y-11014785D02*
X10060785Y-10958216D01*
X10004216Y-10958216D01*
X10004216Y-11014785D01*
X10060785Y-11014785D01*
X10060785Y-11268784D02*
X10060785Y-11212215D01*
X10004216Y-11212215D01*
X10004216Y-11268784D01*
X10060785Y-11268784D01*
X10060785Y-11522784D02*
X10060785Y-11466215D01*
X10004216Y-11466215D01*
X10004216Y-11522784D01*
X10060785Y-11522784D01*
X10060785Y-11776784D02*
X10060785Y-11720215D01*
X10004216Y-11720215D01*
X10004216Y-11776784D01*
X10060785Y-11776784D01*
X10188285Y-12601284D02*
X10188285Y-12544715D01*
X10131716Y-12544715D01*
X10131716Y-12601284D01*
X10188285Y-12601284D01*
X10188285Y-13363284D02*
X10188285Y-13306715D01*
X10131716Y-13306715D01*
X10131716Y-13363284D01*
X10188285Y-13363284D01*
X10253785Y-8029284D02*
X10253785Y-7972715D01*
X10197216Y-7972715D01*
X10197216Y-8029284D01*
X10253785Y-8029284D01*
X10503785Y-8029284D02*
X10503785Y-7972715D01*
X10447216Y-7972715D01*
X10447216Y-8029284D01*
X10503785Y-8029284D01*
X10759785Y-12601284D02*
X10759785Y-12544715D01*
X10703216Y-12544715D01*
X10703216Y-12601284D01*
X10759785Y-12601284D01*
X10759785Y-13363284D02*
X10759785Y-13306715D01*
X10703216Y-13306715D01*
X10703216Y-13363284D01*
X10759785Y-13363284D01*
X11584784Y-8474785D02*
X11584784Y-8418216D01*
X11528215Y-8418216D01*
X11528215Y-8474785D01*
X11584784Y-8474785D01*
X11584784Y-8728785D02*
X11584784Y-8672216D01*
X11528215Y-8672216D01*
X11528215Y-8728785D01*
X11584784Y-8728785D01*
X11584784Y-8982785D02*
X11584784Y-8926216D01*
X11528215Y-8926216D01*
X11528215Y-8982785D01*
X11584784Y-8982785D01*
X11584784Y-9236785D02*
X11584784Y-9180216D01*
X11528215Y-9180216D01*
X11528215Y-9236785D01*
X11584784Y-9236785D01*
X11584784Y-9490785D02*
X11584784Y-9434216D01*
X11528215Y-9434216D01*
X11528215Y-9490785D01*
X11584784Y-9490785D01*
X11584784Y-9744785D02*
X11584784Y-9688216D01*
X11528215Y-9688216D01*
X11528215Y-9744785D01*
X11584784Y-9744785D01*
X11584784Y-9998785D02*
X11584784Y-9942216D01*
X11528215Y-9942216D01*
X11528215Y-9998785D01*
X11584784Y-9998785D01*
X11584784Y-10252785D02*
X11584784Y-10196216D01*
X11528215Y-10196216D01*
X11528215Y-10252785D01*
X11584784Y-10252785D01*
X11584784Y-10506785D02*
X11584784Y-10450216D01*
X11528215Y-10450216D01*
X11528215Y-10506785D01*
X11584784Y-10506785D01*
X11584784Y-10760785D02*
X11584784Y-10704216D01*
X11528215Y-10704216D01*
X11528215Y-10760785D01*
X11584784Y-10760785D01*
X11584784Y-11014785D02*
X11584784Y-10958216D01*
X11528215Y-10958216D01*
X11528215Y-11014785D01*
X11584784Y-11014785D01*
X11584784Y-11268784D02*
X11584784Y-11212215D01*
X11528215Y-11212215D01*
X11528215Y-11268784D01*
X11584784Y-11268784D01*
X11584784Y-11522784D02*
X11584784Y-11466215D01*
X11528215Y-11466215D01*
X11528215Y-11522784D01*
X11584784Y-11522784D01*
X11584784Y-11776784D02*
X11584784Y-11720215D01*
X11528215Y-11720215D01*
X11528215Y-11776784D01*
X11584784Y-11776784D01*
X12474284Y-8537285D02*
X12474284Y-8480716D01*
X12417715Y-8480716D01*
X12417715Y-8537285D01*
X12474284Y-8537285D01*
X12474284Y-8791285D02*
X12474284Y-8734716D01*
X12417715Y-8734716D01*
X12417715Y-8791285D01*
X12474284Y-8791285D01*
X12474284Y-9045285D02*
X12474284Y-8988716D01*
X12417715Y-8988716D01*
X12417715Y-9045285D01*
X12474284Y-9045285D01*
X12474284Y-9299285D02*
X12474284Y-9242716D01*
X12417715Y-9242716D01*
X12417715Y-9299285D01*
X12474284Y-9299285D01*
X12474284Y-9553285D02*
X12474284Y-9496716D01*
X12417715Y-9496716D01*
X12417715Y-9553285D01*
X12474284Y-9553285D01*
X12474284Y-9807285D02*
X12474284Y-9750716D01*
X12417715Y-9750716D01*
X12417715Y-9807285D01*
X12474284Y-9807285D01*
X12474284Y-10061285D02*
X12474284Y-10004716D01*
X12417715Y-10004716D01*
X12417715Y-10061285D01*
X12474284Y-10061285D01*
X12475284Y-11457784D02*
X12475284Y-11401215D01*
X12418715Y-11401215D01*
X12418715Y-11457784D01*
X12475284Y-11457784D01*
X12475284Y-11711784D02*
X12475284Y-11655215D01*
X12418715Y-11655215D01*
X12418715Y-11711784D01*
X12475284Y-11711784D01*
X12475284Y-11965784D02*
X12475284Y-11909215D01*
X12418715Y-11909215D01*
X12418715Y-11965784D01*
X12475284Y-11965784D01*
X12475284Y-12219784D02*
X12475284Y-12163215D01*
X12418715Y-12163215D01*
X12418715Y-12219784D01*
X12475284Y-12219784D01*
X12475284Y-12473784D02*
X12475284Y-12417215D01*
X12418715Y-12417215D01*
X12418715Y-12473784D01*
X12475284Y-12473784D01*
X12475284Y-12727784D02*
X12475284Y-12671215D01*
X12418715Y-12671215D01*
X12418715Y-12727784D01*
X12475284Y-12727784D01*
X12475284Y-12981784D02*
X12475284Y-12925215D01*
X12418715Y-12925215D01*
X12418715Y-12981784D01*
X12475284Y-12981784D01*
X12476284Y-10950285D02*
X12476284Y-10893716D01*
X12419715Y-10893716D01*
X12419715Y-10950285D01*
X12476284Y-10950285D01*
X12478284Y-8029284D02*
X12478284Y-7972715D01*
X12421715Y-7972715D01*
X12421715Y-8029284D01*
X12478284Y-8029284D01*
X12726284Y-10950285D02*
X12726284Y-10893716D01*
X12669715Y-10893716D01*
X12669715Y-10950285D01*
X12726284Y-10950285D01*
X12728284Y-8029284D02*
X12728284Y-7972715D01*
X12671715Y-7972715D01*
X12671715Y-8029284D01*
X12728284Y-8029284D01*
X13236284Y-8537285D02*
X13236284Y-8480716D01*
X13179715Y-8480716D01*
X13179715Y-8537285D01*
X13236284Y-8537285D01*
X13236284Y-8791285D02*
X13236284Y-8734716D01*
X13179715Y-8734716D01*
X13179715Y-8791285D01*
X13236284Y-8791285D01*
X13236284Y-9045285D02*
X13236284Y-8988716D01*
X13179715Y-8988716D01*
X13179715Y-9045285D01*
X13236284Y-9045285D01*
X13236284Y-9299285D02*
X13236284Y-9242716D01*
X13179715Y-9242716D01*
X13179715Y-9299285D01*
X13236284Y-9299285D01*
X13236284Y-9553285D02*
X13236284Y-9496716D01*
X13179715Y-9496716D01*
X13179715Y-9553285D01*
X13236284Y-9553285D01*
X13236284Y-9807285D02*
X13236284Y-9750716D01*
X13179715Y-9750716D01*
X13179715Y-9807285D01*
X13236284Y-9807285D01*
X13236284Y-10061285D02*
X13236284Y-10004716D01*
X13179715Y-10004716D01*
X13179715Y-10061285D01*
X13236284Y-10061285D01*
X13237284Y-11457784D02*
X13237284Y-11401215D01*
X13180715Y-11401215D01*
X13180715Y-11457784D01*
X13237284Y-11457784D01*
X13237284Y-11711784D02*
X13237284Y-11655215D01*
X13180715Y-11655215D01*
X13180715Y-11711784D01*
X13237284Y-11711784D01*
X13237284Y-11965784D02*
X13237284Y-11909215D01*
X13180715Y-11909215D01*
X13180715Y-11965784D01*
X13237284Y-11965784D01*
X13237284Y-12219784D02*
X13237284Y-12163215D01*
X13180715Y-12163215D01*
X13180715Y-12219784D01*
X13237284Y-12219784D01*
X13237284Y-12473784D02*
X13237284Y-12417215D01*
X13180715Y-12417215D01*
X13180715Y-12473784D01*
X13237284Y-12473784D01*
X13237284Y-12727784D02*
X13237284Y-12671215D01*
X13180715Y-12671215D01*
X13180715Y-12727784D01*
X13237284Y-12727784D01*
X13237284Y-12981784D02*
X13237284Y-12925215D01*
X13180715Y-12925215D01*
X13180715Y-12981784D01*
X13237284Y-12981784D01*
X13871284Y-8537285D02*
X13871284Y-8480716D01*
X13814715Y-8480716D01*
X13814715Y-8537285D01*
X13871284Y-8537285D01*
X13871284Y-8791285D02*
X13871284Y-8734716D01*
X13814715Y-8734716D01*
X13814715Y-8791285D01*
X13871284Y-8791285D01*
X13871284Y-9045285D02*
X13871284Y-8988716D01*
X13814715Y-8988716D01*
X13814715Y-9045285D01*
X13871284Y-9045285D01*
X13871284Y-9299285D02*
X13871284Y-9242716D01*
X13814715Y-9242716D01*
X13814715Y-9299285D01*
X13871284Y-9299285D01*
X13871284Y-9553285D02*
X13871284Y-9496716D01*
X13814715Y-9496716D01*
X13814715Y-9553285D01*
X13871284Y-9553285D01*
X13871284Y-9807285D02*
X13871284Y-9750716D01*
X13814715Y-9750716D01*
X13814715Y-9807285D01*
X13871284Y-9807285D01*
X13871284Y-10061285D02*
X13871284Y-10004716D01*
X13814715Y-10004716D01*
X13814715Y-10061285D01*
X13871284Y-10061285D01*
X13871284Y-11458284D02*
X13871284Y-11401715D01*
X13814715Y-11401715D01*
X13814715Y-11458284D01*
X13871284Y-11458284D01*
X13871284Y-11712284D02*
X13871284Y-11655715D01*
X13814715Y-11655715D01*
X13814715Y-11712284D01*
X13871284Y-11712284D01*
X13871284Y-11966284D02*
X13871284Y-11909715D01*
X13814715Y-11909715D01*
X13814715Y-11966284D01*
X13871284Y-11966284D01*
X13871284Y-12220284D02*
X13871284Y-12163715D01*
X13814715Y-12163715D01*
X13814715Y-12220284D01*
X13871284Y-12220284D01*
X13871284Y-12474284D02*
X13871284Y-12417715D01*
X13814715Y-12417715D01*
X13814715Y-12474284D01*
X13871284Y-12474284D01*
X13871284Y-12728284D02*
X13871284Y-12671715D01*
X13814715Y-12671715D01*
X13814715Y-12728284D01*
X13871284Y-12728284D01*
X13871284Y-12982284D02*
X13871284Y-12925715D01*
X13814715Y-12925715D01*
X13814715Y-12982284D01*
X13871284Y-12982284D01*
X13934784Y-8029284D02*
X13934784Y-7972715D01*
X13878215Y-7972715D01*
X13878215Y-8029284D01*
X13934784Y-8029284D01*
X13938784Y-10950285D02*
X13938784Y-10893716D01*
X13882215Y-10893716D01*
X13882215Y-10950285D01*
X13938784Y-10950285D01*
X14184784Y-8029284D02*
X14184784Y-7972715D01*
X14128215Y-7972715D01*
X14128215Y-8029284D01*
X14184784Y-8029284D01*
X14188784Y-10950285D02*
X14188784Y-10893716D01*
X14132215Y-10893716D01*
X14132215Y-10950285D01*
X14188784Y-10950285D01*
X14633284Y-8537285D02*
X14633284Y-8480716D01*
X14576715Y-8480716D01*
X14576715Y-8537285D01*
X14633284Y-8537285D01*
X14633284Y-8791285D02*
X14633284Y-8734716D01*
X14576715Y-8734716D01*
X14576715Y-8791285D01*
X14633284Y-8791285D01*
X14633284Y-9045285D02*
X14633284Y-8988716D01*
X14576715Y-8988716D01*
X14576715Y-9045285D01*
X14633284Y-9045285D01*
X14633284Y-9299285D02*
X14633284Y-9242716D01*
X14576715Y-9242716D01*
X14576715Y-9299285D01*
X14633284Y-9299285D01*
X14633284Y-9553285D02*
X14633284Y-9496716D01*
X14576715Y-9496716D01*
X14576715Y-9553285D01*
X14633284Y-9553285D01*
X14633284Y-9807285D02*
X14633284Y-9750716D01*
X14576715Y-9750716D01*
X14576715Y-9807285D01*
X14633284Y-9807285D01*
X14633284Y-10061285D02*
X14633284Y-10004716D01*
X14576715Y-10004716D01*
X14576715Y-10061285D01*
X14633284Y-10061285D01*
X14633284Y-11458284D02*
X14633284Y-11401715D01*
X14576715Y-11401715D01*
X14576715Y-11458284D01*
X14633284Y-11458284D01*
X14633284Y-11712284D02*
X14633284Y-11655715D01*
X14576715Y-11655715D01*
X14576715Y-11712284D01*
X14633284Y-11712284D01*
X14633284Y-11966284D02*
X14633284Y-11909715D01*
X14576715Y-11909715D01*
X14576715Y-11966284D01*
X14633284Y-11966284D01*
X14633284Y-12220284D02*
X14633284Y-12163715D01*
X14576715Y-12163715D01*
X14576715Y-12220284D01*
X14633284Y-12220284D01*
X14633284Y-12474284D02*
X14633284Y-12417715D01*
X14576715Y-12417715D01*
X14576715Y-12474284D01*
X14633284Y-12474284D01*
X14633284Y-12728284D02*
X14633284Y-12671715D01*
X14576715Y-12671715D01*
X14576715Y-12728284D01*
X14633284Y-12728284D01*
X14633284Y-12982284D02*
X14633284Y-12925715D01*
X14576715Y-12925715D01*
X14576715Y-12982284D01*
X14633284Y-12982284D01*
D16*
X11493500Y-12618000D02*
X11538500Y-12573000D01*
X11493500Y-12528000D01*
X11448500Y-12573000D01*
X11493500Y-12618000D01*
X11493500Y-13380000D02*
X11538500Y-13335000D01*
X11493500Y-13290000D01*
X11448500Y-13335000D01*
X11493500Y-13380000D01*
D17*
X5665000Y-14555000D02*
X5765000Y-14655000D01*
X5765000Y-14555000D02*
X5665000Y-14655000D01*
X5765000Y-14605000D02*
G75*
G03*
X5765000Y-14605000I-50000J0D01*
G01*
X5665000Y-14809000D02*
X5765000Y-14909000D01*
X5765000Y-14809000D02*
X5665000Y-14909000D01*
X5765000Y-14859000D02*
G75*
G03*
X5765000Y-14859000I-50000J0D01*
G01*
X5919000Y-14555000D02*
X6019000Y-14655000D01*
X6019000Y-14555000D02*
X5919000Y-14655000D01*
X6019000Y-14605000D02*
G75*
G03*
X6019000Y-14605000I-50000J0D01*
G01*
X5919000Y-14809000D02*
X6019000Y-14909000D01*
X6019000Y-14809000D02*
X5919000Y-14909000D01*
X6019000Y-14859000D02*
G75*
G03*
X6019000Y-14859000I-50000J0D01*
G01*
X6173000Y-14555000D02*
X6273000Y-14655000D01*
X6273000Y-14555000D02*
X6173000Y-14655000D01*
X6273000Y-14605000D02*
G75*
G03*
X6273000Y-14605000I-50000J0D01*
G01*
X6173000Y-14809000D02*
X6273000Y-14909000D01*
X6273000Y-14809000D02*
X6173000Y-14909000D01*
X6273000Y-14859000D02*
G75*
G03*
X6273000Y-14859000I-50000J0D01*
G01*
X6427000Y-14555000D02*
X6527000Y-14655000D01*
X6527000Y-14555000D02*
X6427000Y-14655000D01*
X6527000Y-14605000D02*
G75*
G03*
X6527000Y-14605000I-50000J0D01*
G01*
X6427000Y-14809000D02*
X6527000Y-14909000D01*
X6527000Y-14809000D02*
X6427000Y-14909000D01*
X6527000Y-14859000D02*
G75*
G03*
X6527000Y-14859000I-50000J0D01*
G01*
X6681000Y-14555000D02*
X6781000Y-14655000D01*
X6781000Y-14555000D02*
X6681000Y-14655000D01*
X6781000Y-14605000D02*
G75*
G03*
X6781000Y-14605000I-50000J0D01*
G01*
X6681000Y-14809000D02*
X6781000Y-14909000D01*
X6781000Y-14809000D02*
X6681000Y-14909000D01*
X6781000Y-14859000D02*
G75*
G03*
X6781000Y-14859000I-50000J0D01*
G01*
X6935000Y-14555000D02*
X7035000Y-14655000D01*
X7035000Y-14555000D02*
X6935000Y-14655000D01*
X7035000Y-14605000D02*
G75*
G03*
X7035000Y-14605000I-50000J0D01*
G01*
X6935000Y-14809000D02*
X7035000Y-14909000D01*
X7035000Y-14809000D02*
X6935000Y-14909000D01*
X7035000Y-14859000D02*
G75*
G03*
X7035000Y-14859000I-50000J0D01*
G01*
X7189000Y-14555000D02*
X7289000Y-14655000D01*
X7289000Y-14555000D02*
X7189000Y-14655000D01*
X7289000Y-14605000D02*
G75*
G03*
X7289000Y-14605000I-50000J0D01*
G01*
X7189000Y-14809000D02*
X7289000Y-14909000D01*
X7289000Y-14809000D02*
X7189000Y-14909000D01*
X7289000Y-14859000D02*
G75*
G03*
X7289000Y-14859000I-50000J0D01*
G01*
X7443000Y-14555000D02*
X7543000Y-14655000D01*
X7543000Y-14555000D02*
X7443000Y-14655000D01*
X7543000Y-14605000D02*
G75*
G03*
X7543000Y-14605000I-50000J0D01*
G01*
X7443000Y-14809000D02*
X7543000Y-14909000D01*
X7543000Y-14809000D02*
X7443000Y-14909000D01*
X7543000Y-14859000D02*
G75*
G03*
X7543000Y-14859000I-50000J0D01*
G01*
X7697000Y-14555000D02*
X7797000Y-14655000D01*
X7797000Y-14555000D02*
X7697000Y-14655000D01*
X7797000Y-14605000D02*
G75*
G03*
X7797000Y-14605000I-50000J0D01*
G01*
X7697000Y-14809000D02*
X7797000Y-14909000D01*
X7797000Y-14809000D02*
X7697000Y-14909000D01*
X7797000Y-14859000D02*
G75*
G03*
X7797000Y-14859000I-50000J0D01*
G01*
X7951000Y-14555000D02*
X8051000Y-14655000D01*
X8051000Y-14555000D02*
X7951000Y-14655000D01*
X8051000Y-14605000D02*
G75*
G03*
X8051000Y-14605000I-50000J0D01*
G01*
X7951000Y-14809000D02*
X8051000Y-14909000D01*
X8051000Y-14809000D02*
X7951000Y-14909000D01*
X8051000Y-14859000D02*
G75*
G03*
X8051000Y-14859000I-50000J0D01*
G01*
X8205000Y-14555000D02*
X8305000Y-14655000D01*
X8305000Y-14555000D02*
X8205000Y-14655000D01*
X8305000Y-14605000D02*
G75*
G03*
X8305000Y-14605000I-50000J0D01*
G01*
X8205000Y-14809000D02*
X8305000Y-14909000D01*
X8305000Y-14809000D02*
X8205000Y-14909000D01*
X8305000Y-14859000D02*
G75*
G03*
X8305000Y-14859000I-50000J0D01*
G01*
X8459000Y-14555000D02*
X8559000Y-14655000D01*
X8559000Y-14555000D02*
X8459000Y-14655000D01*
X8559000Y-14605000D02*
G75*
G03*
X8559000Y-14605000I-50000J0D01*
G01*
X8459000Y-14809000D02*
X8559000Y-14909000D01*
X8559000Y-14809000D02*
X8459000Y-14909000D01*
X8559000Y-14859000D02*
G75*
G03*
X8559000Y-14859000I-50000J0D01*
G01*
X8713000Y-14555000D02*
X8813000Y-14655000D01*
X8813000Y-14555000D02*
X8713000Y-14655000D01*
X8813000Y-14605000D02*
G75*
G03*
X8813000Y-14605000I-50000J0D01*
G01*
X8713000Y-14809000D02*
X8813000Y-14909000D01*
X8813000Y-14809000D02*
X8713000Y-14909000D01*
X8813000Y-14859000D02*
G75*
G03*
X8813000Y-14859000I-50000J0D01*
G01*
X8967000Y-14555000D02*
X9067000Y-14655000D01*
X9067000Y-14555000D02*
X8967000Y-14655000D01*
X9067000Y-14605000D02*
G75*
G03*
X9067000Y-14605000I-50000J0D01*
G01*
X8967000Y-14809000D02*
X9067000Y-14909000D01*
X9067000Y-14809000D02*
X8967000Y-14909000D01*
X9067000Y-14859000D02*
G75*
G03*
X9067000Y-14859000I-50000J0D01*
G01*
X9221000Y-14555000D02*
X9321000Y-14655000D01*
X9321000Y-14555000D02*
X9221000Y-14655000D01*
X9321000Y-14605000D02*
G75*
G03*
X9321000Y-14605000I-50000J0D01*
G01*
X9221000Y-14809000D02*
X9321000Y-14909000D01*
X9321000Y-14809000D02*
X9221000Y-14909000D01*
X9321000Y-14859000D02*
G75*
G03*
X9321000Y-14859000I-50000J0D01*
G01*
X9475000Y-14555000D02*
X9575000Y-14655000D01*
X9575000Y-14555000D02*
X9475000Y-14655000D01*
X9575000Y-14605000D02*
G75*
G03*
X9575000Y-14605000I-50000J0D01*
G01*
X9475000Y-14809000D02*
X9575000Y-14909000D01*
X9575000Y-14809000D02*
X9475000Y-14909000D01*
X9575000Y-14859000D02*
G75*
G03*
X9575000Y-14859000I-50000J0D01*
G01*
X9729000Y-14555000D02*
X9829000Y-14655000D01*
X9829000Y-14555000D02*
X9729000Y-14655000D01*
X9829000Y-14605000D02*
G75*
G03*
X9829000Y-14605000I-50000J0D01*
G01*
X9729000Y-14809000D02*
X9829000Y-14909000D01*
X9829000Y-14809000D02*
X9729000Y-14909000D01*
X9829000Y-14859000D02*
G75*
G03*
X9829000Y-14859000I-50000J0D01*
G01*
X9983000Y-14555000D02*
X10083000Y-14655000D01*
X10083000Y-14555000D02*
X9983000Y-14655000D01*
X10083000Y-14605000D02*
G75*
G03*
X10083000Y-14605000I-50000J0D01*
G01*
X9983000Y-14809000D02*
X10083000Y-14909000D01*
X10083000Y-14809000D02*
X9983000Y-14909000D01*
X10083000Y-14859000D02*
G75*
G03*
X10083000Y-14859000I-50000J0D01*
G01*
X10237000Y-14555000D02*
X10337000Y-14655000D01*
X10337000Y-14555000D02*
X10237000Y-14655000D01*
X10337000Y-14605000D02*
G75*
G03*
X10337000Y-14605000I-50000J0D01*
G01*
X10237000Y-14809000D02*
X10337000Y-14909000D01*
X10337000Y-14809000D02*
X10237000Y-14909000D01*
X10337000Y-14859000D02*
G75*
G03*
X10337000Y-14859000I-50000J0D01*
G01*
X10491000Y-14555000D02*
X10591000Y-14655000D01*
X10591000Y-14555000D02*
X10491000Y-14655000D01*
X10591000Y-14605000D02*
G75*
G03*
X10591000Y-14605000I-50000J0D01*
G01*
X10491000Y-14809000D02*
X10591000Y-14909000D01*
X10591000Y-14809000D02*
X10491000Y-14909000D01*
X10591000Y-14859000D02*
G75*
G03*
X10591000Y-14859000I-50000J0D01*
G01*
X10745000Y-14555000D02*
X10845000Y-14655000D01*
X10845000Y-14555000D02*
X10745000Y-14655000D01*
X10845000Y-14605000D02*
G75*
G03*
X10845000Y-14605000I-50000J0D01*
G01*
X10745000Y-14809000D02*
X10845000Y-14909000D01*
X10845000Y-14809000D02*
X10745000Y-14909000D01*
X10845000Y-14859000D02*
G75*
G03*
X10845000Y-14859000I-50000J0D01*
G01*
X10999000Y-14555000D02*
X11099000Y-14655000D01*
X11099000Y-14555000D02*
X10999000Y-14655000D01*
X11099000Y-14605000D02*
G75*
G03*
X11099000Y-14605000I-50000J0D01*
G01*
X10999000Y-14809000D02*
X11099000Y-14909000D01*
X11099000Y-14809000D02*
X10999000Y-14909000D01*
X11099000Y-14859000D02*
G75*
G03*
X11099000Y-14859000I-50000J0D01*
G01*
X11253000Y-14555000D02*
X11353000Y-14655000D01*
X11353000Y-14555000D02*
X11253000Y-14655000D01*
X11353000Y-14605000D02*
G75*
G03*
X11353000Y-14605000I-50000J0D01*
G01*
X11253000Y-14809000D02*
X11353000Y-14909000D01*
X11353000Y-14809000D02*
X11253000Y-14909000D01*
X11353000Y-14859000D02*
G75*
G03*
X11353000Y-14859000I-50000J0D01*
G01*
X11507000Y-14555000D02*
X11607000Y-14655000D01*
X11607000Y-14555000D02*
X11507000Y-14655000D01*
X11607000Y-14605000D02*
G75*
G03*
X11607000Y-14605000I-50000J0D01*
G01*
X11507000Y-14809000D02*
X11607000Y-14909000D01*
X11607000Y-14809000D02*
X11507000Y-14909000D01*
X11607000Y-14859000D02*
G75*
G03*
X11607000Y-14859000I-50000J0D01*
G01*
X11761000Y-14555000D02*
X11861000Y-14655000D01*
X11861000Y-14555000D02*
X11761000Y-14655000D01*
X11861000Y-14605000D02*
G75*
G03*
X11861000Y-14605000I-50000J0D01*
G01*
X11761000Y-14809000D02*
X11861000Y-14909000D01*
X11861000Y-14809000D02*
X11761000Y-14909000D01*
X11861000Y-14859000D02*
G75*
G03*
X11861000Y-14859000I-50000J0D01*
G01*
D18*
X10682500Y-5282000D02*
X10802500Y-5402000D01*
X10802500Y-5282000D02*
X10682500Y-5402000D01*
X10742500Y-5282000D02*
X10742500Y-5402000D01*
X10682500Y-5342000D02*
X10802500Y-5342000D01*
X10682500Y-5782000D02*
X10802500Y-5902000D01*
X10802500Y-5782000D02*
X10682500Y-5902000D01*
X10742500Y-5782000D02*
X10742500Y-5902000D01*
X10682500Y-5842000D02*
X10802500Y-5842000D01*
X11932500Y-5282000D02*
X12052500Y-5402000D01*
X12052500Y-5282000D02*
X11932500Y-5402000D01*
X11992500Y-5282000D02*
X11992500Y-5402000D01*
X11932500Y-5342000D02*
X12052500Y-5342000D01*
X11932500Y-5782000D02*
X12052500Y-5902000D01*
X12052500Y-5782000D02*
X11932500Y-5902000D01*
X11992500Y-5782000D02*
X11992500Y-5902000D01*
X11932500Y-5842000D02*
X12052500Y-5842000D01*
X12322500Y-4008000D02*
X12442500Y-4128000D01*
X12442500Y-4008000D02*
X12322500Y-4128000D01*
X12382500Y-4008000D02*
X12382500Y-4128000D01*
X12322500Y-4068000D02*
X12442500Y-4068000D01*
X12322500Y-4508000D02*
X12442500Y-4628000D01*
X12442500Y-4508000D02*
X12322500Y-4628000D01*
X12382500Y-4508000D02*
X12382500Y-4628000D01*
X12322500Y-4568000D02*
X12442500Y-4568000D01*
X12322500Y-6548000D02*
X12442500Y-6668000D01*
X12442500Y-6548000D02*
X12322500Y-6668000D01*
X12382500Y-6548000D02*
X12382500Y-6668000D01*
X12322500Y-6608000D02*
X12442500Y-6608000D01*
X12322500Y-7048000D02*
X12442500Y-7168000D01*
X12442500Y-7048000D02*
X12322500Y-7168000D01*
X12382500Y-7048000D02*
X12382500Y-7168000D01*
X12322500Y-7108000D02*
X12442500Y-7108000D01*
X13222500Y-14041000D02*
X13342500Y-14161000D01*
X13342500Y-14041000D02*
X13222500Y-14161000D01*
X13282500Y-14041000D02*
X13282500Y-14161000D01*
X13222500Y-14101000D02*
X13342500Y-14101000D01*
X13222500Y-14541000D02*
X13342500Y-14661000D01*
X13342500Y-14541000D02*
X13222500Y-14661000D01*
X13282500Y-14541000D02*
X13282500Y-14661000D01*
X13222500Y-14601000D02*
X13342500Y-14601000D01*
X13572500Y-4008000D02*
X13692500Y-4128000D01*
X13692500Y-4008000D02*
X13572500Y-4128000D01*
X13632500Y-4008000D02*
X13632500Y-4128000D01*
X13572500Y-4068000D02*
X13692500Y-4068000D01*
X13572500Y-4508000D02*
X13692500Y-4628000D01*
X13692500Y-4508000D02*
X13572500Y-4628000D01*
X13632500Y-4508000D02*
X13632500Y-4628000D01*
X13572500Y-4568000D02*
X13692500Y-4568000D01*
X13572500Y-6548000D02*
X13692500Y-6668000D01*
X13692500Y-6548000D02*
X13572500Y-6668000D01*
X13632500Y-6548000D02*
X13632500Y-6668000D01*
X13572500Y-6608000D02*
X13692500Y-6608000D01*
X13572500Y-7048000D02*
X13692500Y-7168000D01*
X13692500Y-7048000D02*
X13572500Y-7168000D01*
X13632500Y-7048000D02*
X13632500Y-7168000D01*
X13572500Y-7108000D02*
X13692500Y-7108000D01*
X13973500Y-5278000D02*
X14093500Y-5398000D01*
X14093500Y-5278000D02*
X13973500Y-5398000D01*
X14033500Y-5278000D02*
X14033500Y-5398000D01*
X13973500Y-5338000D02*
X14093500Y-5338000D01*
X13973500Y-5778000D02*
X14093500Y-5898000D01*
X14093500Y-5778000D02*
X13973500Y-5898000D01*
X14033500Y-5778000D02*
X14033500Y-5898000D01*
X13973500Y-5838000D02*
X14093500Y-5838000D01*
X14472500Y-14041000D02*
X14592500Y-14161000D01*
X14592500Y-14041000D02*
X14472500Y-14161000D01*
X14532500Y-14041000D02*
X14532500Y-14161000D01*
X14472500Y-14101000D02*
X14592500Y-14101000D01*
X14472500Y-14541000D02*
X14592500Y-14661000D01*
X14592500Y-14541000D02*
X14472500Y-14661000D01*
X14532500Y-14541000D02*
X14532500Y-14661000D01*
X14472500Y-14601000D02*
X14592500Y-14601000D01*
X15223500Y-5278000D02*
X15343500Y-5398000D01*
X15343500Y-5278000D02*
X15223500Y-5398000D01*
X15283500Y-5278000D02*
X15283500Y-5398000D01*
X15223500Y-5338000D02*
X15343500Y-5338000D01*
X15223500Y-5778000D02*
X15343500Y-5898000D01*
X15343500Y-5778000D02*
X15223500Y-5898000D01*
X15283500Y-5778000D02*
X15283500Y-5898000D01*
X15223500Y-5838000D02*
X15343500Y-5838000D01*
D11*
X4062619Y-16126976D02*
X4062619Y-15926976D01*
X4110238Y-15926976D01*
X4138809Y-15936500D01*
X4157857Y-15955548D01*
X4167381Y-15974595D01*
X4176905Y-16012690D01*
X4176905Y-16041262D01*
X4167381Y-16079357D01*
X4157857Y-16098405D01*
X4138809Y-16117452D01*
X4110238Y-16126976D01*
X4062619Y-16126976D01*
X4262619Y-16126976D02*
X4262619Y-15993643D01*
X4262619Y-16031738D02*
X4272143Y-16012690D01*
X4281667Y-16003167D01*
X4300714Y-15993643D01*
X4319762Y-15993643D01*
X4386429Y-16126976D02*
X4386429Y-15993643D01*
X4386429Y-15926976D02*
X4376905Y-15936500D01*
X4386429Y-15946024D01*
X4395952Y-15936500D01*
X4386429Y-15926976D01*
X4386429Y-15946024D01*
X4510238Y-16126976D02*
X4491190Y-16117452D01*
X4481667Y-16098405D01*
X4481667Y-15926976D01*
X4615000Y-16126976D02*
X4595952Y-16117452D01*
X4586429Y-16098405D01*
X4586429Y-15926976D01*
X4843571Y-16126976D02*
X4843571Y-15926976D01*
X4910238Y-16069833D01*
X4976905Y-15926976D01*
X4976905Y-16126976D01*
X5157857Y-16126976D02*
X5157857Y-16022214D01*
X5148333Y-16003167D01*
X5129286Y-15993643D01*
X5091190Y-15993643D01*
X5072143Y-16003167D01*
X5157857Y-16117452D02*
X5138810Y-16126976D01*
X5091190Y-16126976D01*
X5072143Y-16117452D01*
X5062619Y-16098405D01*
X5062619Y-16079357D01*
X5072143Y-16060309D01*
X5091190Y-16050786D01*
X5138810Y-16050786D01*
X5157857Y-16041262D01*
X5253095Y-15993643D02*
X5253095Y-16193643D01*
X5253095Y-16003167D02*
X5272143Y-15993643D01*
X5310238Y-15993643D01*
X5329286Y-16003167D01*
X5338810Y-16012690D01*
X5348333Y-16031738D01*
X5348333Y-16088881D01*
X5338810Y-16107928D01*
X5329286Y-16117452D01*
X5310238Y-16126976D01*
X5272143Y-16126976D01*
X5253095Y-16117452D01*
X5434048Y-16107928D02*
X5443571Y-16117452D01*
X5434048Y-16126976D01*
X5424524Y-16117452D01*
X5434048Y-16107928D01*
X5434048Y-16126976D01*
X5434048Y-16003167D02*
X5443571Y-16012690D01*
X5434048Y-16022214D01*
X5424524Y-16012690D01*
X5434048Y-16003167D01*
X5434048Y-16022214D01*
D12*
X3765000Y-16436500D02*
X3805000Y-16476500D01*
X3805000Y-16436500D02*
X3765000Y-16476500D01*
D11*
X4100714Y-16346976D02*
X4119762Y-16346976D01*
X4138809Y-16356500D01*
X4148333Y-16366024D01*
X4157857Y-16385071D01*
X4167381Y-16423167D01*
X4167381Y-16470786D01*
X4157857Y-16508881D01*
X4148333Y-16527928D01*
X4138809Y-16537452D01*
X4119762Y-16546976D01*
X4100714Y-16546976D01*
X4081667Y-16537452D01*
X4072143Y-16527928D01*
X4062619Y-16508881D01*
X4053095Y-16470786D01*
X4053095Y-16423167D01*
X4062619Y-16385071D01*
X4072143Y-16366024D01*
X4081667Y-16356500D01*
X4100714Y-16346976D01*
X4253095Y-16527928D02*
X4262619Y-16537452D01*
X4253095Y-16546976D01*
X4243571Y-16537452D01*
X4253095Y-16527928D01*
X4253095Y-16546976D01*
X4434048Y-16413643D02*
X4434048Y-16546976D01*
X4386429Y-16337452D02*
X4338810Y-16480309D01*
X4462619Y-16480309D01*
X4576905Y-16346976D02*
X4595952Y-16346976D01*
X4615000Y-16356500D01*
X4624524Y-16366024D01*
X4634048Y-16385071D01*
X4643571Y-16423167D01*
X4643571Y-16470786D01*
X4634048Y-16508881D01*
X4624524Y-16527928D01*
X4615000Y-16537452D01*
X4595952Y-16546976D01*
X4576905Y-16546976D01*
X4557857Y-16537452D01*
X4548333Y-16527928D01*
X4538810Y-16508881D01*
X4529286Y-16470786D01*
X4529286Y-16423167D01*
X4538810Y-16385071D01*
X4548333Y-16366024D01*
X4557857Y-16356500D01*
X4576905Y-16346976D01*
X4767381Y-16346976D02*
X4786429Y-16346976D01*
X4805476Y-16356500D01*
X4815000Y-16366024D01*
X4824524Y-16385071D01*
X4834048Y-16423167D01*
X4834048Y-16470786D01*
X4824524Y-16508881D01*
X4815000Y-16527928D01*
X4805476Y-16537452D01*
X4786429Y-16546976D01*
X4767381Y-16546976D01*
X4748333Y-16537452D01*
X4738810Y-16527928D01*
X4729286Y-16508881D01*
X4719762Y-16470786D01*
X4719762Y-16423167D01*
X4729286Y-16385071D01*
X4738810Y-16366024D01*
X4748333Y-16356500D01*
X4767381Y-16346976D01*
X4919762Y-16546976D02*
X4919762Y-16413643D01*
X4919762Y-16432690D02*
X4929286Y-16423167D01*
X4948333Y-16413643D01*
X4976905Y-16413643D01*
X4995952Y-16423167D01*
X5005476Y-16442214D01*
X5005476Y-16546976D01*
X5005476Y-16442214D02*
X5015000Y-16423167D01*
X5034048Y-16413643D01*
X5062619Y-16413643D01*
X5081667Y-16423167D01*
X5091190Y-16442214D01*
X5091190Y-16546976D01*
X5186429Y-16546976D02*
X5186429Y-16413643D01*
X5186429Y-16432690D02*
X5195952Y-16423167D01*
X5215000Y-16413643D01*
X5243571Y-16413643D01*
X5262619Y-16423167D01*
X5272143Y-16442214D01*
X5272143Y-16546976D01*
X5272143Y-16442214D02*
X5281667Y-16423167D01*
X5300714Y-16413643D01*
X5329286Y-16413643D01*
X5348333Y-16423167D01*
X5357857Y-16442214D01*
X5357857Y-16546976D01*
X5748333Y-16337452D02*
X5576905Y-16594595D01*
X6005476Y-16346976D02*
X6024524Y-16346976D01*
X6043571Y-16356500D01*
X6053095Y-16366024D01*
X6062619Y-16385071D01*
X6072143Y-16423167D01*
X6072143Y-16470786D01*
X6062619Y-16508881D01*
X6053095Y-16527928D01*
X6043571Y-16537452D01*
X6024524Y-16546976D01*
X6005476Y-16546976D01*
X5986428Y-16537452D01*
X5976905Y-16527928D01*
X5967381Y-16508881D01*
X5957857Y-16470786D01*
X5957857Y-16423167D01*
X5967381Y-16385071D01*
X5976905Y-16366024D01*
X5986428Y-16356500D01*
X6005476Y-16346976D01*
X6157857Y-16527928D02*
X6167381Y-16537452D01*
X6157857Y-16546976D01*
X6148333Y-16537452D01*
X6157857Y-16527928D01*
X6157857Y-16546976D01*
X6291190Y-16346976D02*
X6310238Y-16346976D01*
X6329286Y-16356500D01*
X6338809Y-16366024D01*
X6348333Y-16385071D01*
X6357857Y-16423167D01*
X6357857Y-16470786D01*
X6348333Y-16508881D01*
X6338809Y-16527928D01*
X6329286Y-16537452D01*
X6310238Y-16546976D01*
X6291190Y-16546976D01*
X6272143Y-16537452D01*
X6262619Y-16527928D01*
X6253095Y-16508881D01*
X6243571Y-16470786D01*
X6243571Y-16423167D01*
X6253095Y-16385071D01*
X6262619Y-16366024D01*
X6272143Y-16356500D01*
X6291190Y-16346976D01*
X6548333Y-16546976D02*
X6434048Y-16546976D01*
X6491190Y-16546976D02*
X6491190Y-16346976D01*
X6472143Y-16375548D01*
X6453095Y-16394595D01*
X6434048Y-16404119D01*
X6729286Y-16346976D02*
X6634048Y-16346976D01*
X6624524Y-16442214D01*
X6634048Y-16432690D01*
X6653095Y-16423167D01*
X6700714Y-16423167D01*
X6719762Y-16432690D01*
X6729286Y-16442214D01*
X6738809Y-16461262D01*
X6738809Y-16508881D01*
X6729286Y-16527928D01*
X6719762Y-16537452D01*
X6700714Y-16546976D01*
X6653095Y-16546976D01*
X6634048Y-16537452D01*
X6624524Y-16527928D01*
X6805476Y-16346976D02*
X6938809Y-16346976D01*
X6853095Y-16546976D01*
X7005476Y-16346976D02*
X7005476Y-16385071D01*
X7081667Y-16346976D02*
X7081667Y-16385071D01*
X7376905Y-16623167D02*
X7367381Y-16613643D01*
X7348333Y-16585071D01*
X7338809Y-16566024D01*
X7329286Y-16537452D01*
X7319762Y-16489833D01*
X7319762Y-16451738D01*
X7329286Y-16404119D01*
X7338809Y-16375548D01*
X7348333Y-16356500D01*
X7367381Y-16327928D01*
X7376905Y-16318405D01*
X7434048Y-16346976D02*
X7557857Y-16346976D01*
X7491190Y-16423167D01*
X7519762Y-16423167D01*
X7538809Y-16432690D01*
X7548333Y-16442214D01*
X7557857Y-16461262D01*
X7557857Y-16508881D01*
X7548333Y-16527928D01*
X7538809Y-16537452D01*
X7519762Y-16546976D01*
X7462619Y-16546976D01*
X7443571Y-16537452D01*
X7434048Y-16527928D01*
X7748333Y-16546976D02*
X7634048Y-16546976D01*
X7691190Y-16546976D02*
X7691190Y-16346976D01*
X7672143Y-16375548D01*
X7653095Y-16394595D01*
X7634048Y-16404119D01*
X7986428Y-16546976D02*
X7986428Y-16346976D01*
X8072143Y-16546976D02*
X8072143Y-16442214D01*
X8062619Y-16423167D01*
X8043571Y-16413643D01*
X8015000Y-16413643D01*
X7995952Y-16423167D01*
X7986428Y-16432690D01*
X8195952Y-16546976D02*
X8176905Y-16537452D01*
X8167381Y-16527928D01*
X8157857Y-16508881D01*
X8157857Y-16451738D01*
X8167381Y-16432690D01*
X8176905Y-16423167D01*
X8195952Y-16413643D01*
X8224524Y-16413643D01*
X8243571Y-16423167D01*
X8253095Y-16432690D01*
X8262619Y-16451738D01*
X8262619Y-16508881D01*
X8253095Y-16527928D01*
X8243571Y-16537452D01*
X8224524Y-16546976D01*
X8195952Y-16546976D01*
X8376905Y-16546976D02*
X8357857Y-16537452D01*
X8348333Y-16518405D01*
X8348333Y-16346976D01*
X8529286Y-16537452D02*
X8510238Y-16546976D01*
X8472143Y-16546976D01*
X8453095Y-16537452D01*
X8443571Y-16518405D01*
X8443571Y-16442214D01*
X8453095Y-16423167D01*
X8472143Y-16413643D01*
X8510238Y-16413643D01*
X8529286Y-16423167D01*
X8538810Y-16442214D01*
X8538810Y-16461262D01*
X8443571Y-16480309D01*
X8615000Y-16537452D02*
X8634048Y-16546976D01*
X8672143Y-16546976D01*
X8691190Y-16537452D01*
X8700714Y-16518405D01*
X8700714Y-16508881D01*
X8691190Y-16489833D01*
X8672143Y-16480309D01*
X8643571Y-16480309D01*
X8624524Y-16470786D01*
X8615000Y-16451738D01*
X8615000Y-16442214D01*
X8624524Y-16423167D01*
X8643571Y-16413643D01*
X8672143Y-16413643D01*
X8691190Y-16423167D01*
X8767381Y-16623167D02*
X8776905Y-16613643D01*
X8795952Y-16585071D01*
X8805476Y-16566024D01*
X8815000Y-16537452D01*
X8824524Y-16489833D01*
X8824524Y-16451738D01*
X8815000Y-16404119D01*
X8805476Y-16375548D01*
X8795952Y-16356500D01*
X8776905Y-16327928D01*
X8767381Y-16318405D01*
D13*
X3805000Y-16720500D02*
G75*
G03*
X3805000Y-16720500I-30000J0D01*
G01*
D11*
X4100714Y-16610976D02*
X4119762Y-16610976D01*
X4138809Y-16620500D01*
X4148333Y-16630024D01*
X4157857Y-16649071D01*
X4167381Y-16687167D01*
X4167381Y-16734786D01*
X4157857Y-16772881D01*
X4148333Y-16791929D01*
X4138809Y-16801452D01*
X4119762Y-16810976D01*
X4100714Y-16810976D01*
X4081667Y-16801452D01*
X4072143Y-16791929D01*
X4062619Y-16772881D01*
X4053095Y-16734786D01*
X4053095Y-16687167D01*
X4062619Y-16649071D01*
X4072143Y-16630024D01*
X4081667Y-16620500D01*
X4100714Y-16610976D01*
X4253095Y-16791929D02*
X4262619Y-16801452D01*
X4253095Y-16810976D01*
X4243571Y-16801452D01*
X4253095Y-16791929D01*
X4253095Y-16810976D01*
X4434048Y-16610976D02*
X4395952Y-16610976D01*
X4376905Y-16620500D01*
X4367381Y-16630024D01*
X4348333Y-16658595D01*
X4338810Y-16696690D01*
X4338810Y-16772881D01*
X4348333Y-16791929D01*
X4357857Y-16801452D01*
X4376905Y-16810976D01*
X4415000Y-16810976D01*
X4434048Y-16801452D01*
X4443571Y-16791929D01*
X4453095Y-16772881D01*
X4453095Y-16725262D01*
X4443571Y-16706214D01*
X4434048Y-16696690D01*
X4415000Y-16687167D01*
X4376905Y-16687167D01*
X4357857Y-16696690D01*
X4348333Y-16706214D01*
X4338810Y-16725262D01*
X4576905Y-16610976D02*
X4595952Y-16610976D01*
X4615000Y-16620500D01*
X4624524Y-16630024D01*
X4634048Y-16649071D01*
X4643571Y-16687167D01*
X4643571Y-16734786D01*
X4634048Y-16772881D01*
X4624524Y-16791929D01*
X4615000Y-16801452D01*
X4595952Y-16810976D01*
X4576905Y-16810976D01*
X4557857Y-16801452D01*
X4548333Y-16791929D01*
X4538810Y-16772881D01*
X4529286Y-16734786D01*
X4529286Y-16687167D01*
X4538810Y-16649071D01*
X4548333Y-16630024D01*
X4557857Y-16620500D01*
X4576905Y-16610976D01*
X4767381Y-16610976D02*
X4786429Y-16610976D01*
X4805476Y-16620500D01*
X4815000Y-16630024D01*
X4824524Y-16649071D01*
X4834048Y-16687167D01*
X4834048Y-16734786D01*
X4824524Y-16772881D01*
X4815000Y-16791929D01*
X4805476Y-16801452D01*
X4786429Y-16810976D01*
X4767381Y-16810976D01*
X4748333Y-16801452D01*
X4738810Y-16791929D01*
X4729286Y-16772881D01*
X4719762Y-16734786D01*
X4719762Y-16687167D01*
X4729286Y-16649071D01*
X4738810Y-16630024D01*
X4748333Y-16620500D01*
X4767381Y-16610976D01*
X4919762Y-16810976D02*
X4919762Y-16677643D01*
X4919762Y-16696690D02*
X4929286Y-16687167D01*
X4948333Y-16677643D01*
X4976905Y-16677643D01*
X4995952Y-16687167D01*
X5005476Y-16706214D01*
X5005476Y-16810976D01*
X5005476Y-16706214D02*
X5015000Y-16687167D01*
X5034048Y-16677643D01*
X5062619Y-16677643D01*
X5081667Y-16687167D01*
X5091190Y-16706214D01*
X5091190Y-16810976D01*
X5186429Y-16810976D02*
X5186429Y-16677643D01*
X5186429Y-16696690D02*
X5195952Y-16687167D01*
X5215000Y-16677643D01*
X5243571Y-16677643D01*
X5262619Y-16687167D01*
X5272143Y-16706214D01*
X5272143Y-16810976D01*
X5272143Y-16706214D02*
X5281667Y-16687167D01*
X5300714Y-16677643D01*
X5329286Y-16677643D01*
X5348333Y-16687167D01*
X5357857Y-16706214D01*
X5357857Y-16810976D01*
X5748333Y-16601452D02*
X5576905Y-16858595D01*
X6005476Y-16610976D02*
X6024524Y-16610976D01*
X6043571Y-16620500D01*
X6053095Y-16630024D01*
X6062619Y-16649071D01*
X6072143Y-16687167D01*
X6072143Y-16734786D01*
X6062619Y-16772881D01*
X6053095Y-16791929D01*
X6043571Y-16801452D01*
X6024524Y-16810976D01*
X6005476Y-16810976D01*
X5986428Y-16801452D01*
X5976905Y-16791929D01*
X5967381Y-16772881D01*
X5957857Y-16734786D01*
X5957857Y-16687167D01*
X5967381Y-16649071D01*
X5976905Y-16630024D01*
X5986428Y-16620500D01*
X6005476Y-16610976D01*
X6157857Y-16791929D02*
X6167381Y-16801452D01*
X6157857Y-16810976D01*
X6148333Y-16801452D01*
X6157857Y-16791929D01*
X6157857Y-16810976D01*
X6291190Y-16610976D02*
X6310238Y-16610976D01*
X6329286Y-16620500D01*
X6338809Y-16630024D01*
X6348333Y-16649071D01*
X6357857Y-16687167D01*
X6357857Y-16734786D01*
X6348333Y-16772881D01*
X6338809Y-16791929D01*
X6329286Y-16801452D01*
X6310238Y-16810976D01*
X6291190Y-16810976D01*
X6272143Y-16801452D01*
X6262619Y-16791929D01*
X6253095Y-16772881D01*
X6243571Y-16734786D01*
X6243571Y-16687167D01*
X6253095Y-16649071D01*
X6262619Y-16630024D01*
X6272143Y-16620500D01*
X6291190Y-16610976D01*
X6434048Y-16630024D02*
X6443571Y-16620500D01*
X6462619Y-16610976D01*
X6510238Y-16610976D01*
X6529286Y-16620500D01*
X6538809Y-16630024D01*
X6548333Y-16649071D01*
X6548333Y-16668119D01*
X6538809Y-16696690D01*
X6424524Y-16810976D01*
X6548333Y-16810976D01*
X6615000Y-16610976D02*
X6738809Y-16610976D01*
X6672143Y-16687167D01*
X6700714Y-16687167D01*
X6719762Y-16696690D01*
X6729286Y-16706214D01*
X6738809Y-16725262D01*
X6738809Y-16772881D01*
X6729286Y-16791929D01*
X6719762Y-16801452D01*
X6700714Y-16810976D01*
X6643571Y-16810976D01*
X6624524Y-16801452D01*
X6615000Y-16791929D01*
X6910238Y-16610976D02*
X6872143Y-16610976D01*
X6853095Y-16620500D01*
X6843571Y-16630024D01*
X6824524Y-16658595D01*
X6815000Y-16696690D01*
X6815000Y-16772881D01*
X6824524Y-16791929D01*
X6834048Y-16801452D01*
X6853095Y-16810976D01*
X6891190Y-16810976D01*
X6910238Y-16801452D01*
X6919762Y-16791929D01*
X6929286Y-16772881D01*
X6929286Y-16725262D01*
X6919762Y-16706214D01*
X6910238Y-16696690D01*
X6891190Y-16687167D01*
X6853095Y-16687167D01*
X6834048Y-16696690D01*
X6824524Y-16706214D01*
X6815000Y-16725262D01*
X7005476Y-16610976D02*
X7005476Y-16649071D01*
X7081667Y-16610976D02*
X7081667Y-16649071D01*
X7376905Y-16887167D02*
X7367381Y-16877643D01*
X7348333Y-16849071D01*
X7338809Y-16830024D01*
X7329286Y-16801452D01*
X7319762Y-16753833D01*
X7319762Y-16715738D01*
X7329286Y-16668119D01*
X7338809Y-16639548D01*
X7348333Y-16620500D01*
X7367381Y-16591928D01*
X7376905Y-16582405D01*
X7538809Y-16677643D02*
X7538809Y-16810976D01*
X7491190Y-16601452D02*
X7443571Y-16744309D01*
X7567381Y-16744309D01*
X7795952Y-16810976D02*
X7795952Y-16610976D01*
X7881667Y-16810976D02*
X7881667Y-16706214D01*
X7872143Y-16687167D01*
X7853095Y-16677643D01*
X7824524Y-16677643D01*
X7805476Y-16687167D01*
X7795952Y-16696690D01*
X8005476Y-16810976D02*
X7986428Y-16801452D01*
X7976905Y-16791929D01*
X7967381Y-16772881D01*
X7967381Y-16715738D01*
X7976905Y-16696690D01*
X7986428Y-16687167D01*
X8005476Y-16677643D01*
X8034048Y-16677643D01*
X8053095Y-16687167D01*
X8062619Y-16696690D01*
X8072143Y-16715738D01*
X8072143Y-16772881D01*
X8062619Y-16791929D01*
X8053095Y-16801452D01*
X8034048Y-16810976D01*
X8005476Y-16810976D01*
X8186428Y-16810976D02*
X8167381Y-16801452D01*
X8157857Y-16782405D01*
X8157857Y-16610976D01*
X8338809Y-16801452D02*
X8319762Y-16810976D01*
X8281667Y-16810976D01*
X8262619Y-16801452D01*
X8253095Y-16782405D01*
X8253095Y-16706214D01*
X8262619Y-16687167D01*
X8281667Y-16677643D01*
X8319762Y-16677643D01*
X8338809Y-16687167D01*
X8348333Y-16706214D01*
X8348333Y-16725262D01*
X8253095Y-16744309D01*
X8424524Y-16801452D02*
X8443571Y-16810976D01*
X8481667Y-16810976D01*
X8500714Y-16801452D01*
X8510238Y-16782405D01*
X8510238Y-16772881D01*
X8500714Y-16753833D01*
X8481667Y-16744309D01*
X8453095Y-16744309D01*
X8434048Y-16734786D01*
X8424524Y-16715738D01*
X8424524Y-16706214D01*
X8434048Y-16687167D01*
X8453095Y-16677643D01*
X8481667Y-16677643D01*
X8500714Y-16687167D01*
X8576905Y-16887167D02*
X8586429Y-16877643D01*
X8605476Y-16849071D01*
X8615000Y-16830024D01*
X8624524Y-16801452D01*
X8634048Y-16753833D01*
X8634048Y-16715738D01*
X8624524Y-16668119D01*
X8615000Y-16639548D01*
X8605476Y-16620500D01*
X8586429Y-16591928D01*
X8576905Y-16582405D01*
D14*
X3766900Y-16946400D02*
X3766900Y-17022600D01*
X3728800Y-16984500D02*
X3805000Y-16984500D01*
D11*
X4100714Y-16874976D02*
X4119762Y-16874976D01*
X4138809Y-16884500D01*
X4148333Y-16894024D01*
X4157857Y-16913071D01*
X4167381Y-16951167D01*
X4167381Y-16998786D01*
X4157857Y-17036881D01*
X4148333Y-17055929D01*
X4138809Y-17065452D01*
X4119762Y-17074976D01*
X4100714Y-17074976D01*
X4081667Y-17065452D01*
X4072143Y-17055929D01*
X4062619Y-17036881D01*
X4053095Y-16998786D01*
X4053095Y-16951167D01*
X4062619Y-16913071D01*
X4072143Y-16894024D01*
X4081667Y-16884500D01*
X4100714Y-16874976D01*
X4253095Y-17055929D02*
X4262619Y-17065452D01*
X4253095Y-17074976D01*
X4243571Y-17065452D01*
X4253095Y-17055929D01*
X4253095Y-17074976D01*
X4329286Y-16874976D02*
X4462619Y-16874976D01*
X4376905Y-17074976D01*
X4624524Y-16874976D02*
X4586429Y-16874976D01*
X4567381Y-16884500D01*
X4557857Y-16894024D01*
X4538810Y-16922595D01*
X4529286Y-16960690D01*
X4529286Y-17036881D01*
X4538810Y-17055929D01*
X4548333Y-17065452D01*
X4567381Y-17074976D01*
X4605476Y-17074976D01*
X4624524Y-17065452D01*
X4634048Y-17055929D01*
X4643571Y-17036881D01*
X4643571Y-16989262D01*
X4634048Y-16970214D01*
X4624524Y-16960690D01*
X4605476Y-16951167D01*
X4567381Y-16951167D01*
X4548333Y-16960690D01*
X4538810Y-16970214D01*
X4529286Y-16989262D01*
X4719762Y-16894024D02*
X4729286Y-16884500D01*
X4748333Y-16874976D01*
X4795952Y-16874976D01*
X4815000Y-16884500D01*
X4824524Y-16894024D01*
X4834048Y-16913071D01*
X4834048Y-16932119D01*
X4824524Y-16960690D01*
X4710238Y-17074976D01*
X4834048Y-17074976D01*
X4919762Y-17074976D02*
X4919762Y-16941643D01*
X4919762Y-16960690D02*
X4929286Y-16951167D01*
X4948333Y-16941643D01*
X4976905Y-16941643D01*
X4995952Y-16951167D01*
X5005476Y-16970214D01*
X5005476Y-17074976D01*
X5005476Y-16970214D02*
X5015000Y-16951167D01*
X5034048Y-16941643D01*
X5062619Y-16941643D01*
X5081667Y-16951167D01*
X5091190Y-16970214D01*
X5091190Y-17074976D01*
X5186429Y-17074976D02*
X5186429Y-16941643D01*
X5186429Y-16960690D02*
X5195952Y-16951167D01*
X5215000Y-16941643D01*
X5243571Y-16941643D01*
X5262619Y-16951167D01*
X5272143Y-16970214D01*
X5272143Y-17074976D01*
X5272143Y-16970214D02*
X5281667Y-16951167D01*
X5300714Y-16941643D01*
X5329286Y-16941643D01*
X5348333Y-16951167D01*
X5357857Y-16970214D01*
X5357857Y-17074976D01*
X5748333Y-16865452D02*
X5576905Y-17122595D01*
X6005476Y-16874976D02*
X6024524Y-16874976D01*
X6043571Y-16884500D01*
X6053095Y-16894024D01*
X6062619Y-16913071D01*
X6072143Y-16951167D01*
X6072143Y-16998786D01*
X6062619Y-17036881D01*
X6053095Y-17055929D01*
X6043571Y-17065452D01*
X6024524Y-17074976D01*
X6005476Y-17074976D01*
X5986428Y-17065452D01*
X5976905Y-17055929D01*
X5967381Y-17036881D01*
X5957857Y-16998786D01*
X5957857Y-16951167D01*
X5967381Y-16913071D01*
X5976905Y-16894024D01*
X5986428Y-16884500D01*
X6005476Y-16874976D01*
X6157857Y-17055929D02*
X6167381Y-17065452D01*
X6157857Y-17074976D01*
X6148333Y-17065452D01*
X6157857Y-17055929D01*
X6157857Y-17074976D01*
X6291190Y-16874976D02*
X6310238Y-16874976D01*
X6329286Y-16884500D01*
X6338809Y-16894024D01*
X6348333Y-16913071D01*
X6357857Y-16951167D01*
X6357857Y-16998786D01*
X6348333Y-17036881D01*
X6338809Y-17055929D01*
X6329286Y-17065452D01*
X6310238Y-17074976D01*
X6291190Y-17074976D01*
X6272143Y-17065452D01*
X6262619Y-17055929D01*
X6253095Y-17036881D01*
X6243571Y-16998786D01*
X6243571Y-16951167D01*
X6253095Y-16913071D01*
X6262619Y-16894024D01*
X6272143Y-16884500D01*
X6291190Y-16874976D01*
X6424524Y-16874976D02*
X6548333Y-16874976D01*
X6481667Y-16951167D01*
X6510238Y-16951167D01*
X6529286Y-16960690D01*
X6538809Y-16970214D01*
X6548333Y-16989262D01*
X6548333Y-17036881D01*
X6538809Y-17055929D01*
X6529286Y-17065452D01*
X6510238Y-17074976D01*
X6453095Y-17074976D01*
X6434048Y-17065452D01*
X6424524Y-17055929D01*
X6672143Y-16874976D02*
X6691190Y-16874976D01*
X6710238Y-16884500D01*
X6719762Y-16894024D01*
X6729286Y-16913071D01*
X6738809Y-16951167D01*
X6738809Y-16998786D01*
X6729286Y-17036881D01*
X6719762Y-17055929D01*
X6710238Y-17065452D01*
X6691190Y-17074976D01*
X6672143Y-17074976D01*
X6653095Y-17065452D01*
X6643571Y-17055929D01*
X6634048Y-17036881D01*
X6624524Y-16998786D01*
X6624524Y-16951167D01*
X6634048Y-16913071D01*
X6643571Y-16894024D01*
X6653095Y-16884500D01*
X6672143Y-16874976D01*
X6862619Y-16874976D02*
X6881667Y-16874976D01*
X6900714Y-16884500D01*
X6910238Y-16894024D01*
X6919762Y-16913071D01*
X6929286Y-16951167D01*
X6929286Y-16998786D01*
X6919762Y-17036881D01*
X6910238Y-17055929D01*
X6900714Y-17065452D01*
X6881667Y-17074976D01*
X6862619Y-17074976D01*
X6843571Y-17065452D01*
X6834048Y-17055929D01*
X6824524Y-17036881D01*
X6815000Y-16998786D01*
X6815000Y-16951167D01*
X6824524Y-16913071D01*
X6834048Y-16894024D01*
X6843571Y-16884500D01*
X6862619Y-16874976D01*
X7005476Y-16874976D02*
X7005476Y-16913071D01*
X7081667Y-16874976D02*
X7081667Y-16913071D01*
X7376905Y-17151167D02*
X7367381Y-17141643D01*
X7348333Y-17113071D01*
X7338809Y-17094024D01*
X7329286Y-17065452D01*
X7319762Y-17017833D01*
X7319762Y-16979738D01*
X7329286Y-16932119D01*
X7338809Y-16903548D01*
X7348333Y-16884500D01*
X7367381Y-16855929D01*
X7376905Y-16846405D01*
X7557857Y-17074976D02*
X7443571Y-17074976D01*
X7500714Y-17074976D02*
X7500714Y-16874976D01*
X7481667Y-16903548D01*
X7462619Y-16922595D01*
X7443571Y-16932119D01*
X7634048Y-16894024D02*
X7643571Y-16884500D01*
X7662619Y-16874976D01*
X7710238Y-16874976D01*
X7729286Y-16884500D01*
X7738809Y-16894024D01*
X7748333Y-16913071D01*
X7748333Y-16932119D01*
X7738809Y-16960690D01*
X7624524Y-17074976D01*
X7748333Y-17074976D01*
X7986428Y-17074976D02*
X7986428Y-16874976D01*
X8072143Y-17074976D02*
X8072143Y-16970214D01*
X8062619Y-16951167D01*
X8043571Y-16941643D01*
X8015000Y-16941643D01*
X7995952Y-16951167D01*
X7986428Y-16960690D01*
X8195952Y-17074976D02*
X8176905Y-17065452D01*
X8167381Y-17055929D01*
X8157857Y-17036881D01*
X8157857Y-16979738D01*
X8167381Y-16960690D01*
X8176905Y-16951167D01*
X8195952Y-16941643D01*
X8224524Y-16941643D01*
X8243571Y-16951167D01*
X8253095Y-16960690D01*
X8262619Y-16979738D01*
X8262619Y-17036881D01*
X8253095Y-17055929D01*
X8243571Y-17065452D01*
X8224524Y-17074976D01*
X8195952Y-17074976D01*
X8376905Y-17074976D02*
X8357857Y-17065452D01*
X8348333Y-17046405D01*
X8348333Y-16874976D01*
X8529286Y-17065452D02*
X8510238Y-17074976D01*
X8472143Y-17074976D01*
X8453095Y-17065452D01*
X8443571Y-17046405D01*
X8443571Y-16970214D01*
X8453095Y-16951167D01*
X8472143Y-16941643D01*
X8510238Y-16941643D01*
X8529286Y-16951167D01*
X8538810Y-16970214D01*
X8538810Y-16989262D01*
X8443571Y-17008310D01*
X8615000Y-17065452D02*
X8634048Y-17074976D01*
X8672143Y-17074976D01*
X8691190Y-17065452D01*
X8700714Y-17046405D01*
X8700714Y-17036881D01*
X8691190Y-17017833D01*
X8672143Y-17008310D01*
X8643571Y-17008310D01*
X8624524Y-16998786D01*
X8615000Y-16979738D01*
X8615000Y-16970214D01*
X8624524Y-16951167D01*
X8643571Y-16941643D01*
X8672143Y-16941643D01*
X8691190Y-16951167D01*
X8767381Y-17151167D02*
X8776905Y-17141643D01*
X8795952Y-17113071D01*
X8805476Y-17094024D01*
X8815000Y-17065452D01*
X8824524Y-17017833D01*
X8824524Y-16979738D01*
X8815000Y-16932119D01*
X8805476Y-16903548D01*
X8795952Y-16884500D01*
X8776905Y-16855929D01*
X8767381Y-16846405D01*
D15*
X3793284Y-17276785D02*
X3793284Y-17220216D01*
X3736715Y-17220216D01*
X3736715Y-17276785D01*
X3793284Y-17276785D01*
D11*
X4100714Y-17138976D02*
X4119762Y-17138976D01*
X4138809Y-17148500D01*
X4148333Y-17158024D01*
X4157857Y-17177071D01*
X4167381Y-17215167D01*
X4167381Y-17262786D01*
X4157857Y-17300881D01*
X4148333Y-17319929D01*
X4138809Y-17329452D01*
X4119762Y-17338976D01*
X4100714Y-17338976D01*
X4081667Y-17329452D01*
X4072143Y-17319929D01*
X4062619Y-17300881D01*
X4053095Y-17262786D01*
X4053095Y-17215167D01*
X4062619Y-17177071D01*
X4072143Y-17158024D01*
X4081667Y-17148500D01*
X4100714Y-17138976D01*
X4253095Y-17319929D02*
X4262619Y-17329452D01*
X4253095Y-17338976D01*
X4243571Y-17329452D01*
X4253095Y-17319929D01*
X4253095Y-17338976D01*
X4376905Y-17224690D02*
X4357857Y-17215167D01*
X4348333Y-17205643D01*
X4338810Y-17186595D01*
X4338810Y-17177071D01*
X4348333Y-17158024D01*
X4357857Y-17148500D01*
X4376905Y-17138976D01*
X4415000Y-17138976D01*
X4434048Y-17148500D01*
X4443571Y-17158024D01*
X4453095Y-17177071D01*
X4453095Y-17186595D01*
X4443571Y-17205643D01*
X4434048Y-17215167D01*
X4415000Y-17224690D01*
X4376905Y-17224690D01*
X4357857Y-17234214D01*
X4348333Y-17243738D01*
X4338810Y-17262786D01*
X4338810Y-17300881D01*
X4348333Y-17319929D01*
X4357857Y-17329452D01*
X4376905Y-17338976D01*
X4415000Y-17338976D01*
X4434048Y-17329452D01*
X4443571Y-17319929D01*
X4453095Y-17300881D01*
X4453095Y-17262786D01*
X4443571Y-17243738D01*
X4434048Y-17234214D01*
X4415000Y-17224690D01*
X4576905Y-17138976D02*
X4595952Y-17138976D01*
X4615000Y-17148500D01*
X4624524Y-17158024D01*
X4634048Y-17177071D01*
X4643571Y-17215167D01*
X4643571Y-17262786D01*
X4634048Y-17300881D01*
X4624524Y-17319929D01*
X4615000Y-17329452D01*
X4595952Y-17338976D01*
X4576905Y-17338976D01*
X4557857Y-17329452D01*
X4548333Y-17319929D01*
X4538810Y-17300881D01*
X4529286Y-17262786D01*
X4529286Y-17215167D01*
X4538810Y-17177071D01*
X4548333Y-17158024D01*
X4557857Y-17148500D01*
X4576905Y-17138976D01*
X4767381Y-17138976D02*
X4786429Y-17138976D01*
X4805476Y-17148500D01*
X4815000Y-17158024D01*
X4824524Y-17177071D01*
X4834048Y-17215167D01*
X4834048Y-17262786D01*
X4824524Y-17300881D01*
X4815000Y-17319929D01*
X4805476Y-17329452D01*
X4786429Y-17338976D01*
X4767381Y-17338976D01*
X4748333Y-17329452D01*
X4738810Y-17319929D01*
X4729286Y-17300881D01*
X4719762Y-17262786D01*
X4719762Y-17215167D01*
X4729286Y-17177071D01*
X4738810Y-17158024D01*
X4748333Y-17148500D01*
X4767381Y-17138976D01*
X4919762Y-17338976D02*
X4919762Y-17205643D01*
X4919762Y-17224690D02*
X4929286Y-17215167D01*
X4948333Y-17205643D01*
X4976905Y-17205643D01*
X4995952Y-17215167D01*
X5005476Y-17234214D01*
X5005476Y-17338976D01*
X5005476Y-17234214D02*
X5015000Y-17215167D01*
X5034048Y-17205643D01*
X5062619Y-17205643D01*
X5081667Y-17215167D01*
X5091190Y-17234214D01*
X5091190Y-17338976D01*
X5186429Y-17338976D02*
X5186429Y-17205643D01*
X5186429Y-17224690D02*
X5195952Y-17215167D01*
X5215000Y-17205643D01*
X5243571Y-17205643D01*
X5262619Y-17215167D01*
X5272143Y-17234214D01*
X5272143Y-17338976D01*
X5272143Y-17234214D02*
X5281667Y-17215167D01*
X5300714Y-17205643D01*
X5329286Y-17205643D01*
X5348333Y-17215167D01*
X5357857Y-17234214D01*
X5357857Y-17338976D01*
X5748333Y-17129452D02*
X5576905Y-17386595D01*
X6005476Y-17138976D02*
X6024524Y-17138976D01*
X6043571Y-17148500D01*
X6053095Y-17158024D01*
X6062619Y-17177071D01*
X6072143Y-17215167D01*
X6072143Y-17262786D01*
X6062619Y-17300881D01*
X6053095Y-17319929D01*
X6043571Y-17329452D01*
X6024524Y-17338976D01*
X6005476Y-17338976D01*
X5986428Y-17329452D01*
X5976905Y-17319929D01*
X5967381Y-17300881D01*
X5957857Y-17262786D01*
X5957857Y-17215167D01*
X5967381Y-17177071D01*
X5976905Y-17158024D01*
X5986428Y-17148500D01*
X6005476Y-17138976D01*
X6157857Y-17319929D02*
X6167381Y-17329452D01*
X6157857Y-17338976D01*
X6148333Y-17329452D01*
X6157857Y-17319929D01*
X6157857Y-17338976D01*
X6291190Y-17138976D02*
X6310238Y-17138976D01*
X6329286Y-17148500D01*
X6338809Y-17158024D01*
X6348333Y-17177071D01*
X6357857Y-17215167D01*
X6357857Y-17262786D01*
X6348333Y-17300881D01*
X6338809Y-17319929D01*
X6329286Y-17329452D01*
X6310238Y-17338976D01*
X6291190Y-17338976D01*
X6272143Y-17329452D01*
X6262619Y-17319929D01*
X6253095Y-17300881D01*
X6243571Y-17262786D01*
X6243571Y-17215167D01*
X6253095Y-17177071D01*
X6262619Y-17158024D01*
X6272143Y-17148500D01*
X6291190Y-17138976D01*
X6424524Y-17138976D02*
X6548333Y-17138976D01*
X6481667Y-17215167D01*
X6510238Y-17215167D01*
X6529286Y-17224690D01*
X6538809Y-17234214D01*
X6548333Y-17253262D01*
X6548333Y-17300881D01*
X6538809Y-17319929D01*
X6529286Y-17329452D01*
X6510238Y-17338976D01*
X6453095Y-17338976D01*
X6434048Y-17329452D01*
X6424524Y-17319929D01*
X6738809Y-17338976D02*
X6624524Y-17338976D01*
X6681667Y-17338976D02*
X6681667Y-17138976D01*
X6662619Y-17167548D01*
X6643571Y-17186595D01*
X6624524Y-17196119D01*
X6919762Y-17138976D02*
X6824524Y-17138976D01*
X6815000Y-17234214D01*
X6824524Y-17224690D01*
X6843571Y-17215167D01*
X6891190Y-17215167D01*
X6910238Y-17224690D01*
X6919762Y-17234214D01*
X6929286Y-17253262D01*
X6929286Y-17300881D01*
X6919762Y-17319929D01*
X6910238Y-17329452D01*
X6891190Y-17338976D01*
X6843571Y-17338976D01*
X6824524Y-17329452D01*
X6815000Y-17319929D01*
X7005476Y-17138976D02*
X7005476Y-17177071D01*
X7081667Y-17138976D02*
X7081667Y-17177071D01*
X7376905Y-17415167D02*
X7367381Y-17405643D01*
X7348333Y-17377071D01*
X7338809Y-17358024D01*
X7329286Y-17329452D01*
X7319762Y-17281833D01*
X7319762Y-17243738D01*
X7329286Y-17196119D01*
X7338809Y-17167548D01*
X7348333Y-17148500D01*
X7367381Y-17119929D01*
X7376905Y-17110405D01*
X7443571Y-17158024D02*
X7453095Y-17148500D01*
X7472143Y-17138976D01*
X7519762Y-17138976D01*
X7538809Y-17148500D01*
X7548333Y-17158024D01*
X7557857Y-17177071D01*
X7557857Y-17196119D01*
X7548333Y-17224690D01*
X7434048Y-17338976D01*
X7557857Y-17338976D01*
X7748333Y-17338976D02*
X7634048Y-17338976D01*
X7691190Y-17338976D02*
X7691190Y-17138976D01*
X7672143Y-17167548D01*
X7653095Y-17186595D01*
X7634048Y-17196119D01*
X7824524Y-17158024D02*
X7834048Y-17148500D01*
X7853095Y-17138976D01*
X7900714Y-17138976D01*
X7919762Y-17148500D01*
X7929286Y-17158024D01*
X7938809Y-17177071D01*
X7938809Y-17196119D01*
X7929286Y-17224690D01*
X7815000Y-17338976D01*
X7938809Y-17338976D01*
X8176905Y-17338976D02*
X8176905Y-17138976D01*
X8262619Y-17338976D02*
X8262619Y-17234214D01*
X8253095Y-17215167D01*
X8234048Y-17205643D01*
X8205476Y-17205643D01*
X8186428Y-17215167D01*
X8176905Y-17224690D01*
X8386428Y-17338976D02*
X8367381Y-17329452D01*
X8357857Y-17319929D01*
X8348333Y-17300881D01*
X8348333Y-17243738D01*
X8357857Y-17224690D01*
X8367381Y-17215167D01*
X8386428Y-17205643D01*
X8415000Y-17205643D01*
X8434048Y-17215167D01*
X8443571Y-17224690D01*
X8453095Y-17243738D01*
X8453095Y-17300881D01*
X8443571Y-17319929D01*
X8434048Y-17329452D01*
X8415000Y-17338976D01*
X8386428Y-17338976D01*
X8567381Y-17338976D02*
X8548333Y-17329452D01*
X8538810Y-17310405D01*
X8538810Y-17138976D01*
X8719762Y-17329452D02*
X8700714Y-17338976D01*
X8662619Y-17338976D01*
X8643571Y-17329452D01*
X8634048Y-17310405D01*
X8634048Y-17234214D01*
X8643571Y-17215167D01*
X8662619Y-17205643D01*
X8700714Y-17205643D01*
X8719762Y-17215167D01*
X8729286Y-17234214D01*
X8729286Y-17253262D01*
X8634048Y-17272310D01*
X8805476Y-17329452D02*
X8824524Y-17338976D01*
X8862619Y-17338976D01*
X8881667Y-17329452D01*
X8891190Y-17310405D01*
X8891190Y-17300881D01*
X8881667Y-17281833D01*
X8862619Y-17272310D01*
X8834048Y-17272310D01*
X8815000Y-17262786D01*
X8805476Y-17243738D01*
X8805476Y-17234214D01*
X8815000Y-17215167D01*
X8834048Y-17205643D01*
X8862619Y-17205643D01*
X8881667Y-17215167D01*
X8957857Y-17415167D02*
X8967381Y-17405643D01*
X8986429Y-17377071D01*
X8995952Y-17358024D01*
X9005476Y-17329452D01*
X9015000Y-17281833D01*
X9015000Y-17243738D01*
X9005476Y-17196119D01*
X8995952Y-17167548D01*
X8986429Y-17148500D01*
X8967381Y-17119929D01*
X8957857Y-17110405D01*
D16*
X3760000Y-17557500D02*
X3805000Y-17512500D01*
X3760000Y-17467500D01*
X3715000Y-17512500D01*
X3760000Y-17557500D01*
D11*
X4100714Y-17402976D02*
X4119762Y-17402976D01*
X4138809Y-17412500D01*
X4148333Y-17422024D01*
X4157857Y-17441071D01*
X4167381Y-17479167D01*
X4167381Y-17526786D01*
X4157857Y-17564881D01*
X4148333Y-17583929D01*
X4138809Y-17593452D01*
X4119762Y-17602976D01*
X4100714Y-17602976D01*
X4081667Y-17593452D01*
X4072143Y-17583929D01*
X4062619Y-17564881D01*
X4053095Y-17526786D01*
X4053095Y-17479167D01*
X4062619Y-17441071D01*
X4072143Y-17422024D01*
X4081667Y-17412500D01*
X4100714Y-17402976D01*
X4253095Y-17583929D02*
X4262619Y-17593452D01*
X4253095Y-17602976D01*
X4243571Y-17593452D01*
X4253095Y-17583929D01*
X4253095Y-17602976D01*
X4357857Y-17602976D02*
X4395952Y-17602976D01*
X4415000Y-17593452D01*
X4424524Y-17583929D01*
X4443571Y-17555357D01*
X4453095Y-17517262D01*
X4453095Y-17441071D01*
X4443571Y-17422024D01*
X4434048Y-17412500D01*
X4415000Y-17402976D01*
X4376905Y-17402976D01*
X4357857Y-17412500D01*
X4348333Y-17422024D01*
X4338810Y-17441071D01*
X4338810Y-17488690D01*
X4348333Y-17507738D01*
X4357857Y-17517262D01*
X4376905Y-17526786D01*
X4415000Y-17526786D01*
X4434048Y-17517262D01*
X4443571Y-17507738D01*
X4453095Y-17488690D01*
X4576905Y-17402976D02*
X4595952Y-17402976D01*
X4615000Y-17412500D01*
X4624524Y-17422024D01*
X4634048Y-17441071D01*
X4643571Y-17479167D01*
X4643571Y-17526786D01*
X4634048Y-17564881D01*
X4624524Y-17583929D01*
X4615000Y-17593452D01*
X4595952Y-17602976D01*
X4576905Y-17602976D01*
X4557857Y-17593452D01*
X4548333Y-17583929D01*
X4538810Y-17564881D01*
X4529286Y-17526786D01*
X4529286Y-17479167D01*
X4538810Y-17441071D01*
X4548333Y-17422024D01*
X4557857Y-17412500D01*
X4576905Y-17402976D01*
X4767381Y-17402976D02*
X4786429Y-17402976D01*
X4805476Y-17412500D01*
X4815000Y-17422024D01*
X4824524Y-17441071D01*
X4834048Y-17479167D01*
X4834048Y-17526786D01*
X4824524Y-17564881D01*
X4815000Y-17583929D01*
X4805476Y-17593452D01*
X4786429Y-17602976D01*
X4767381Y-17602976D01*
X4748333Y-17593452D01*
X4738810Y-17583929D01*
X4729286Y-17564881D01*
X4719762Y-17526786D01*
X4719762Y-17479167D01*
X4729286Y-17441071D01*
X4738810Y-17422024D01*
X4748333Y-17412500D01*
X4767381Y-17402976D01*
X4919762Y-17602976D02*
X4919762Y-17469643D01*
X4919762Y-17488690D02*
X4929286Y-17479167D01*
X4948333Y-17469643D01*
X4976905Y-17469643D01*
X4995952Y-17479167D01*
X5005476Y-17498214D01*
X5005476Y-17602976D01*
X5005476Y-17498214D02*
X5015000Y-17479167D01*
X5034048Y-17469643D01*
X5062619Y-17469643D01*
X5081667Y-17479167D01*
X5091190Y-17498214D01*
X5091190Y-17602976D01*
X5186429Y-17602976D02*
X5186429Y-17469643D01*
X5186429Y-17488690D02*
X5195952Y-17479167D01*
X5215000Y-17469643D01*
X5243571Y-17469643D01*
X5262619Y-17479167D01*
X5272143Y-17498214D01*
X5272143Y-17602976D01*
X5272143Y-17498214D02*
X5281667Y-17479167D01*
X5300714Y-17469643D01*
X5329286Y-17469643D01*
X5348333Y-17479167D01*
X5357857Y-17498214D01*
X5357857Y-17602976D01*
X5748333Y-17393452D02*
X5576905Y-17650595D01*
X6005476Y-17402976D02*
X6024524Y-17402976D01*
X6043571Y-17412500D01*
X6053095Y-17422024D01*
X6062619Y-17441071D01*
X6072143Y-17479167D01*
X6072143Y-17526786D01*
X6062619Y-17564881D01*
X6053095Y-17583929D01*
X6043571Y-17593452D01*
X6024524Y-17602976D01*
X6005476Y-17602976D01*
X5986428Y-17593452D01*
X5976905Y-17583929D01*
X5967381Y-17564881D01*
X5957857Y-17526786D01*
X5957857Y-17479167D01*
X5967381Y-17441071D01*
X5976905Y-17422024D01*
X5986428Y-17412500D01*
X6005476Y-17402976D01*
X6157857Y-17583929D02*
X6167381Y-17593452D01*
X6157857Y-17602976D01*
X6148333Y-17593452D01*
X6157857Y-17583929D01*
X6157857Y-17602976D01*
X6291190Y-17402976D02*
X6310238Y-17402976D01*
X6329286Y-17412500D01*
X6338809Y-17422024D01*
X6348333Y-17441071D01*
X6357857Y-17479167D01*
X6357857Y-17526786D01*
X6348333Y-17564881D01*
X6338809Y-17583929D01*
X6329286Y-17593452D01*
X6310238Y-17602976D01*
X6291190Y-17602976D01*
X6272143Y-17593452D01*
X6262619Y-17583929D01*
X6253095Y-17564881D01*
X6243571Y-17526786D01*
X6243571Y-17479167D01*
X6253095Y-17441071D01*
X6262619Y-17422024D01*
X6272143Y-17412500D01*
X6291190Y-17402976D01*
X6424524Y-17402976D02*
X6548333Y-17402976D01*
X6481667Y-17479167D01*
X6510238Y-17479167D01*
X6529286Y-17488690D01*
X6538809Y-17498214D01*
X6548333Y-17517262D01*
X6548333Y-17564881D01*
X6538809Y-17583929D01*
X6529286Y-17593452D01*
X6510238Y-17602976D01*
X6453095Y-17602976D01*
X6434048Y-17593452D01*
X6424524Y-17583929D01*
X6729286Y-17402976D02*
X6634048Y-17402976D01*
X6624524Y-17498214D01*
X6634048Y-17488690D01*
X6653095Y-17479167D01*
X6700714Y-17479167D01*
X6719762Y-17488690D01*
X6729286Y-17498214D01*
X6738809Y-17517262D01*
X6738809Y-17564881D01*
X6729286Y-17583929D01*
X6719762Y-17593452D01*
X6700714Y-17602976D01*
X6653095Y-17602976D01*
X6634048Y-17593452D01*
X6624524Y-17583929D01*
X6910238Y-17469643D02*
X6910238Y-17602976D01*
X6862619Y-17393452D02*
X6815000Y-17536310D01*
X6938809Y-17536310D01*
X7005476Y-17402976D02*
X7005476Y-17441071D01*
X7081667Y-17402976D02*
X7081667Y-17441071D01*
X7376905Y-17679167D02*
X7367381Y-17669643D01*
X7348333Y-17641071D01*
X7338809Y-17622024D01*
X7329286Y-17593452D01*
X7319762Y-17545833D01*
X7319762Y-17507738D01*
X7329286Y-17460119D01*
X7338809Y-17431548D01*
X7348333Y-17412500D01*
X7367381Y-17383929D01*
X7376905Y-17374405D01*
X7443571Y-17422024D02*
X7453095Y-17412500D01*
X7472143Y-17402976D01*
X7519762Y-17402976D01*
X7538809Y-17412500D01*
X7548333Y-17422024D01*
X7557857Y-17441071D01*
X7557857Y-17460119D01*
X7548333Y-17488690D01*
X7434048Y-17602976D01*
X7557857Y-17602976D01*
X7795952Y-17602976D02*
X7795952Y-17402976D01*
X7881667Y-17602976D02*
X7881667Y-17498214D01*
X7872143Y-17479167D01*
X7853095Y-17469643D01*
X7824524Y-17469643D01*
X7805476Y-17479167D01*
X7795952Y-17488690D01*
X8005476Y-17602976D02*
X7986428Y-17593452D01*
X7976905Y-17583929D01*
X7967381Y-17564881D01*
X7967381Y-17507738D01*
X7976905Y-17488690D01*
X7986428Y-17479167D01*
X8005476Y-17469643D01*
X8034048Y-17469643D01*
X8053095Y-17479167D01*
X8062619Y-17488690D01*
X8072143Y-17507738D01*
X8072143Y-17564881D01*
X8062619Y-17583929D01*
X8053095Y-17593452D01*
X8034048Y-17602976D01*
X8005476Y-17602976D01*
X8186428Y-17602976D02*
X8167381Y-17593452D01*
X8157857Y-17574405D01*
X8157857Y-17402976D01*
X8338809Y-17593452D02*
X8319762Y-17602976D01*
X8281667Y-17602976D01*
X8262619Y-17593452D01*
X8253095Y-17574405D01*
X8253095Y-17498214D01*
X8262619Y-17479167D01*
X8281667Y-17469643D01*
X8319762Y-17469643D01*
X8338809Y-17479167D01*
X8348333Y-17498214D01*
X8348333Y-17517262D01*
X8253095Y-17536310D01*
X8424524Y-17593452D02*
X8443571Y-17602976D01*
X8481667Y-17602976D01*
X8500714Y-17593452D01*
X8510238Y-17574405D01*
X8510238Y-17564881D01*
X8500714Y-17545833D01*
X8481667Y-17536310D01*
X8453095Y-17536310D01*
X8434048Y-17526786D01*
X8424524Y-17507738D01*
X8424524Y-17498214D01*
X8434048Y-17479167D01*
X8453095Y-17469643D01*
X8481667Y-17469643D01*
X8500714Y-17479167D01*
X8576905Y-17679167D02*
X8586429Y-17669643D01*
X8605476Y-17641071D01*
X8615000Y-17622024D01*
X8624524Y-17593452D01*
X8634048Y-17545833D01*
X8634048Y-17507738D01*
X8624524Y-17460119D01*
X8615000Y-17431548D01*
X8605476Y-17412500D01*
X8586429Y-17383929D01*
X8576905Y-17374405D01*
D17*
X3705000Y-17726500D02*
X3805000Y-17826500D01*
X3805000Y-17726500D02*
X3705000Y-17826500D01*
X3805000Y-17776500D02*
G75*
G03*
X3805000Y-17776500I-50000J0D01*
G01*
D11*
X4167381Y-17866976D02*
X4053095Y-17866976D01*
X4110238Y-17866976D02*
X4110238Y-17666976D01*
X4091190Y-17695548D01*
X4072143Y-17714595D01*
X4053095Y-17724119D01*
X4253095Y-17847929D02*
X4262619Y-17857452D01*
X4253095Y-17866976D01*
X4243571Y-17857452D01*
X4253095Y-17847929D01*
X4253095Y-17866976D01*
X4386429Y-17666976D02*
X4405476Y-17666976D01*
X4424524Y-17676500D01*
X4434048Y-17686024D01*
X4443571Y-17705071D01*
X4453095Y-17743167D01*
X4453095Y-17790786D01*
X4443571Y-17828881D01*
X4434048Y-17847929D01*
X4424524Y-17857452D01*
X4405476Y-17866976D01*
X4386429Y-17866976D01*
X4367381Y-17857452D01*
X4357857Y-17847929D01*
X4348333Y-17828881D01*
X4338810Y-17790786D01*
X4338810Y-17743167D01*
X4348333Y-17705071D01*
X4357857Y-17686024D01*
X4367381Y-17676500D01*
X4386429Y-17666976D01*
X4576905Y-17666976D02*
X4595952Y-17666976D01*
X4615000Y-17676500D01*
X4624524Y-17686024D01*
X4634048Y-17705071D01*
X4643571Y-17743167D01*
X4643571Y-17790786D01*
X4634048Y-17828881D01*
X4624524Y-17847929D01*
X4615000Y-17857452D01*
X4595952Y-17866976D01*
X4576905Y-17866976D01*
X4557857Y-17857452D01*
X4548333Y-17847929D01*
X4538810Y-17828881D01*
X4529286Y-17790786D01*
X4529286Y-17743167D01*
X4538810Y-17705071D01*
X4548333Y-17686024D01*
X4557857Y-17676500D01*
X4576905Y-17666976D01*
X4767381Y-17666976D02*
X4786429Y-17666976D01*
X4805476Y-17676500D01*
X4815000Y-17686024D01*
X4824524Y-17705071D01*
X4834048Y-17743167D01*
X4834048Y-17790786D01*
X4824524Y-17828881D01*
X4815000Y-17847929D01*
X4805476Y-17857452D01*
X4786429Y-17866976D01*
X4767381Y-17866976D01*
X4748333Y-17857452D01*
X4738810Y-17847929D01*
X4729286Y-17828881D01*
X4719762Y-17790786D01*
X4719762Y-17743167D01*
X4729286Y-17705071D01*
X4738810Y-17686024D01*
X4748333Y-17676500D01*
X4767381Y-17666976D01*
X4919762Y-17866976D02*
X4919762Y-17733643D01*
X4919762Y-17752690D02*
X4929286Y-17743167D01*
X4948333Y-17733643D01*
X4976905Y-17733643D01*
X4995952Y-17743167D01*
X5005476Y-17762214D01*
X5005476Y-17866976D01*
X5005476Y-17762214D02*
X5015000Y-17743167D01*
X5034048Y-17733643D01*
X5062619Y-17733643D01*
X5081667Y-17743167D01*
X5091190Y-17762214D01*
X5091190Y-17866976D01*
X5186429Y-17866976D02*
X5186429Y-17733643D01*
X5186429Y-17752690D02*
X5195952Y-17743167D01*
X5215000Y-17733643D01*
X5243571Y-17733643D01*
X5262619Y-17743167D01*
X5272143Y-17762214D01*
X5272143Y-17866976D01*
X5272143Y-17762214D02*
X5281667Y-17743167D01*
X5300714Y-17733643D01*
X5329286Y-17733643D01*
X5348333Y-17743167D01*
X5357857Y-17762214D01*
X5357857Y-17866976D01*
X5748333Y-17657452D02*
X5576905Y-17914595D01*
X6005476Y-17666976D02*
X6024524Y-17666976D01*
X6043571Y-17676500D01*
X6053095Y-17686024D01*
X6062619Y-17705071D01*
X6072143Y-17743167D01*
X6072143Y-17790786D01*
X6062619Y-17828881D01*
X6053095Y-17847929D01*
X6043571Y-17857452D01*
X6024524Y-17866976D01*
X6005476Y-17866976D01*
X5986428Y-17857452D01*
X5976905Y-17847929D01*
X5967381Y-17828881D01*
X5957857Y-17790786D01*
X5957857Y-17743167D01*
X5967381Y-17705071D01*
X5976905Y-17686024D01*
X5986428Y-17676500D01*
X6005476Y-17666976D01*
X6157857Y-17847929D02*
X6167381Y-17857452D01*
X6157857Y-17866976D01*
X6148333Y-17857452D01*
X6157857Y-17847929D01*
X6157857Y-17866976D01*
X6291190Y-17666976D02*
X6310238Y-17666976D01*
X6329286Y-17676500D01*
X6338809Y-17686024D01*
X6348333Y-17705071D01*
X6357857Y-17743167D01*
X6357857Y-17790786D01*
X6348333Y-17828881D01*
X6338809Y-17847929D01*
X6329286Y-17857452D01*
X6310238Y-17866976D01*
X6291190Y-17866976D01*
X6272143Y-17857452D01*
X6262619Y-17847929D01*
X6253095Y-17828881D01*
X6243571Y-17790786D01*
X6243571Y-17743167D01*
X6253095Y-17705071D01*
X6262619Y-17686024D01*
X6272143Y-17676500D01*
X6291190Y-17666976D01*
X6424524Y-17666976D02*
X6548333Y-17666976D01*
X6481667Y-17743167D01*
X6510238Y-17743167D01*
X6529286Y-17752690D01*
X6538809Y-17762214D01*
X6548333Y-17781262D01*
X6548333Y-17828881D01*
X6538809Y-17847929D01*
X6529286Y-17857452D01*
X6510238Y-17866976D01*
X6453095Y-17866976D01*
X6434048Y-17857452D01*
X6424524Y-17847929D01*
X6643571Y-17866976D02*
X6681667Y-17866976D01*
X6700714Y-17857452D01*
X6710238Y-17847929D01*
X6729286Y-17819357D01*
X6738809Y-17781262D01*
X6738809Y-17705071D01*
X6729286Y-17686024D01*
X6719762Y-17676500D01*
X6700714Y-17666976D01*
X6662619Y-17666976D01*
X6643571Y-17676500D01*
X6634048Y-17686024D01*
X6624524Y-17705071D01*
X6624524Y-17752690D01*
X6634048Y-17771738D01*
X6643571Y-17781262D01*
X6662619Y-17790786D01*
X6700714Y-17790786D01*
X6719762Y-17781262D01*
X6729286Y-17771738D01*
X6738809Y-17752690D01*
X6910238Y-17733643D02*
X6910238Y-17866976D01*
X6862619Y-17657452D02*
X6815000Y-17800310D01*
X6938809Y-17800310D01*
X7005476Y-17666976D02*
X7005476Y-17705071D01*
X7081667Y-17666976D02*
X7081667Y-17705071D01*
X7376905Y-17943167D02*
X7367381Y-17933643D01*
X7348333Y-17905071D01*
X7338809Y-17886024D01*
X7329286Y-17857452D01*
X7319762Y-17809833D01*
X7319762Y-17771738D01*
X7329286Y-17724119D01*
X7338809Y-17695548D01*
X7348333Y-17676500D01*
X7367381Y-17647929D01*
X7376905Y-17638405D01*
X7548333Y-17666976D02*
X7453095Y-17666976D01*
X7443571Y-17762214D01*
X7453095Y-17752690D01*
X7472143Y-17743167D01*
X7519762Y-17743167D01*
X7538809Y-17752690D01*
X7548333Y-17762214D01*
X7557857Y-17781262D01*
X7557857Y-17828881D01*
X7548333Y-17847929D01*
X7538809Y-17857452D01*
X7519762Y-17866976D01*
X7472143Y-17866976D01*
X7453095Y-17857452D01*
X7443571Y-17847929D01*
X7681667Y-17666976D02*
X7700714Y-17666976D01*
X7719762Y-17676500D01*
X7729286Y-17686024D01*
X7738809Y-17705071D01*
X7748333Y-17743167D01*
X7748333Y-17790786D01*
X7738809Y-17828881D01*
X7729286Y-17847929D01*
X7719762Y-17857452D01*
X7700714Y-17866976D01*
X7681667Y-17866976D01*
X7662619Y-17857452D01*
X7653095Y-17847929D01*
X7643571Y-17828881D01*
X7634048Y-17790786D01*
X7634048Y-17743167D01*
X7643571Y-17705071D01*
X7653095Y-17686024D01*
X7662619Y-17676500D01*
X7681667Y-17666976D01*
X7986428Y-17866976D02*
X7986428Y-17666976D01*
X8072143Y-17866976D02*
X8072143Y-17762214D01*
X8062619Y-17743167D01*
X8043571Y-17733643D01*
X8015000Y-17733643D01*
X7995952Y-17743167D01*
X7986428Y-17752690D01*
X8195952Y-17866976D02*
X8176905Y-17857452D01*
X8167381Y-17847929D01*
X8157857Y-17828881D01*
X8157857Y-17771738D01*
X8167381Y-17752690D01*
X8176905Y-17743167D01*
X8195952Y-17733643D01*
X8224524Y-17733643D01*
X8243571Y-17743167D01*
X8253095Y-17752690D01*
X8262619Y-17771738D01*
X8262619Y-17828881D01*
X8253095Y-17847929D01*
X8243571Y-17857452D01*
X8224524Y-17866976D01*
X8195952Y-17866976D01*
X8376905Y-17866976D02*
X8357857Y-17857452D01*
X8348333Y-17838405D01*
X8348333Y-17666976D01*
X8529286Y-17857452D02*
X8510238Y-17866976D01*
X8472143Y-17866976D01*
X8453095Y-17857452D01*
X8443571Y-17838405D01*
X8443571Y-17762214D01*
X8453095Y-17743167D01*
X8472143Y-17733643D01*
X8510238Y-17733643D01*
X8529286Y-17743167D01*
X8538810Y-17762214D01*
X8538810Y-17781262D01*
X8443571Y-17800310D01*
X8615000Y-17857452D02*
X8634048Y-17866976D01*
X8672143Y-17866976D01*
X8691190Y-17857452D01*
X8700714Y-17838405D01*
X8700714Y-17828881D01*
X8691190Y-17809833D01*
X8672143Y-17800310D01*
X8643571Y-17800310D01*
X8624524Y-17790786D01*
X8615000Y-17771738D01*
X8615000Y-17762214D01*
X8624524Y-17743167D01*
X8643571Y-17733643D01*
X8672143Y-17733643D01*
X8691190Y-17743167D01*
X8767381Y-17943167D02*
X8776905Y-17933643D01*
X8795952Y-17905071D01*
X8805476Y-17886024D01*
X8815000Y-17857452D01*
X8824524Y-17809833D01*
X8824524Y-17771738D01*
X8815000Y-17724119D01*
X8805476Y-17695548D01*
X8795952Y-17676500D01*
X8776905Y-17647929D01*
X8767381Y-17638405D01*
D18*
X3685000Y-17980500D02*
X3805000Y-18100500D01*
X3805000Y-17980500D02*
X3685000Y-18100500D01*
X3745000Y-17980500D02*
X3745000Y-18100500D01*
X3685000Y-18040500D02*
X3805000Y-18040500D01*
D11*
X4167381Y-18130976D02*
X4053095Y-18130976D01*
X4110238Y-18130976D02*
X4110238Y-17930976D01*
X4091190Y-17959548D01*
X4072143Y-17978595D01*
X4053095Y-17988119D01*
X4253095Y-18111929D02*
X4262619Y-18121452D01*
X4253095Y-18130976D01*
X4243571Y-18121452D01*
X4253095Y-18111929D01*
X4253095Y-18130976D01*
X4338810Y-17950024D02*
X4348333Y-17940500D01*
X4367381Y-17930976D01*
X4415000Y-17930976D01*
X4434048Y-17940500D01*
X4443571Y-17950024D01*
X4453095Y-17969071D01*
X4453095Y-17988119D01*
X4443571Y-18016690D01*
X4329286Y-18130976D01*
X4453095Y-18130976D01*
X4576905Y-17930976D02*
X4595952Y-17930976D01*
X4615000Y-17940500D01*
X4624524Y-17950024D01*
X4634048Y-17969071D01*
X4643571Y-18007167D01*
X4643571Y-18054786D01*
X4634048Y-18092881D01*
X4624524Y-18111929D01*
X4615000Y-18121452D01*
X4595952Y-18130976D01*
X4576905Y-18130976D01*
X4557857Y-18121452D01*
X4548333Y-18111929D01*
X4538810Y-18092881D01*
X4529286Y-18054786D01*
X4529286Y-18007167D01*
X4538810Y-17969071D01*
X4548333Y-17950024D01*
X4557857Y-17940500D01*
X4576905Y-17930976D01*
X4767381Y-17930976D02*
X4786429Y-17930976D01*
X4805476Y-17940500D01*
X4815000Y-17950024D01*
X4824524Y-17969071D01*
X4834048Y-18007167D01*
X4834048Y-18054786D01*
X4824524Y-18092881D01*
X4815000Y-18111929D01*
X4805476Y-18121452D01*
X4786429Y-18130976D01*
X4767381Y-18130976D01*
X4748333Y-18121452D01*
X4738810Y-18111929D01*
X4729286Y-18092881D01*
X4719762Y-18054786D01*
X4719762Y-18007167D01*
X4729286Y-17969071D01*
X4738810Y-17950024D01*
X4748333Y-17940500D01*
X4767381Y-17930976D01*
X4919762Y-18130976D02*
X4919762Y-17997643D01*
X4919762Y-18016690D02*
X4929286Y-18007167D01*
X4948333Y-17997643D01*
X4976905Y-17997643D01*
X4995952Y-18007167D01*
X5005476Y-18026214D01*
X5005476Y-18130976D01*
X5005476Y-18026214D02*
X5015000Y-18007167D01*
X5034048Y-17997643D01*
X5062619Y-17997643D01*
X5081667Y-18007167D01*
X5091190Y-18026214D01*
X5091190Y-18130976D01*
X5186429Y-18130976D02*
X5186429Y-17997643D01*
X5186429Y-18016690D02*
X5195952Y-18007167D01*
X5215000Y-17997643D01*
X5243571Y-17997643D01*
X5262619Y-18007167D01*
X5272143Y-18026214D01*
X5272143Y-18130976D01*
X5272143Y-18026214D02*
X5281667Y-18007167D01*
X5300714Y-17997643D01*
X5329286Y-17997643D01*
X5348333Y-18007167D01*
X5357857Y-18026214D01*
X5357857Y-18130976D01*
X5748333Y-17921452D02*
X5576905Y-18178595D01*
X6005476Y-17930976D02*
X6024524Y-17930976D01*
X6043571Y-17940500D01*
X6053095Y-17950024D01*
X6062619Y-17969071D01*
X6072143Y-18007167D01*
X6072143Y-18054786D01*
X6062619Y-18092881D01*
X6053095Y-18111929D01*
X6043571Y-18121452D01*
X6024524Y-18130976D01*
X6005476Y-18130976D01*
X5986428Y-18121452D01*
X5976905Y-18111929D01*
X5967381Y-18092881D01*
X5957857Y-18054786D01*
X5957857Y-18007167D01*
X5967381Y-17969071D01*
X5976905Y-17950024D01*
X5986428Y-17940500D01*
X6005476Y-17930976D01*
X6157857Y-18111929D02*
X6167381Y-18121452D01*
X6157857Y-18130976D01*
X6148333Y-18121452D01*
X6157857Y-18111929D01*
X6157857Y-18130976D01*
X6291190Y-17930976D02*
X6310238Y-17930976D01*
X6329286Y-17940500D01*
X6338809Y-17950024D01*
X6348333Y-17969071D01*
X6357857Y-18007167D01*
X6357857Y-18054786D01*
X6348333Y-18092881D01*
X6338809Y-18111929D01*
X6329286Y-18121452D01*
X6310238Y-18130976D01*
X6291190Y-18130976D01*
X6272143Y-18121452D01*
X6262619Y-18111929D01*
X6253095Y-18092881D01*
X6243571Y-18054786D01*
X6243571Y-18007167D01*
X6253095Y-17969071D01*
X6262619Y-17950024D01*
X6272143Y-17940500D01*
X6291190Y-17930976D01*
X6529286Y-17997643D02*
X6529286Y-18130976D01*
X6481667Y-17921452D02*
X6434048Y-18064310D01*
X6557857Y-18064310D01*
X6615000Y-17930976D02*
X6748333Y-17930976D01*
X6662619Y-18130976D01*
X6815000Y-17950024D02*
X6824524Y-17940500D01*
X6843571Y-17930976D01*
X6891190Y-17930976D01*
X6910238Y-17940500D01*
X6919762Y-17950024D01*
X6929286Y-17969071D01*
X6929286Y-17988119D01*
X6919762Y-18016690D01*
X6805476Y-18130976D01*
X6929286Y-18130976D01*
X7005476Y-17930976D02*
X7005476Y-17969071D01*
X7081667Y-17930976D02*
X7081667Y-17969071D01*
X7376905Y-18207167D02*
X7367381Y-18197643D01*
X7348333Y-18169071D01*
X7338809Y-18150024D01*
X7329286Y-18121452D01*
X7319762Y-18073833D01*
X7319762Y-18035738D01*
X7329286Y-17988119D01*
X7338809Y-17959548D01*
X7348333Y-17940500D01*
X7367381Y-17911929D01*
X7376905Y-17902405D01*
X7443571Y-17950024D02*
X7453095Y-17940500D01*
X7472143Y-17930976D01*
X7519762Y-17930976D01*
X7538809Y-17940500D01*
X7548333Y-17950024D01*
X7557857Y-17969071D01*
X7557857Y-17988119D01*
X7548333Y-18016690D01*
X7434048Y-18130976D01*
X7557857Y-18130976D01*
X7681667Y-17930976D02*
X7700714Y-17930976D01*
X7719762Y-17940500D01*
X7729286Y-17950024D01*
X7738809Y-17969071D01*
X7748333Y-18007167D01*
X7748333Y-18054786D01*
X7738809Y-18092881D01*
X7729286Y-18111929D01*
X7719762Y-18121452D01*
X7700714Y-18130976D01*
X7681667Y-18130976D01*
X7662619Y-18121452D01*
X7653095Y-18111929D01*
X7643571Y-18092881D01*
X7634048Y-18054786D01*
X7634048Y-18007167D01*
X7643571Y-17969071D01*
X7653095Y-17950024D01*
X7662619Y-17940500D01*
X7681667Y-17930976D01*
X7986428Y-18130976D02*
X7986428Y-17930976D01*
X8072143Y-18130976D02*
X8072143Y-18026214D01*
X8062619Y-18007167D01*
X8043571Y-17997643D01*
X8015000Y-17997643D01*
X7995952Y-18007167D01*
X7986428Y-18016690D01*
X8195952Y-18130976D02*
X8176905Y-18121452D01*
X8167381Y-18111929D01*
X8157857Y-18092881D01*
X8157857Y-18035738D01*
X8167381Y-18016690D01*
X8176905Y-18007167D01*
X8195952Y-17997643D01*
X8224524Y-17997643D01*
X8243571Y-18007167D01*
X8253095Y-18016690D01*
X8262619Y-18035738D01*
X8262619Y-18092881D01*
X8253095Y-18111929D01*
X8243571Y-18121452D01*
X8224524Y-18130976D01*
X8195952Y-18130976D01*
X8376905Y-18130976D02*
X8357857Y-18121452D01*
X8348333Y-18102405D01*
X8348333Y-17930976D01*
X8529286Y-18121452D02*
X8510238Y-18130976D01*
X8472143Y-18130976D01*
X8453095Y-18121452D01*
X8443571Y-18102405D01*
X8443571Y-18026214D01*
X8453095Y-18007167D01*
X8472143Y-17997643D01*
X8510238Y-17997643D01*
X8529286Y-18007167D01*
X8538810Y-18026214D01*
X8538810Y-18045262D01*
X8443571Y-18064310D01*
X8615000Y-18121452D02*
X8634048Y-18130976D01*
X8672143Y-18130976D01*
X8691190Y-18121452D01*
X8700714Y-18102405D01*
X8700714Y-18092881D01*
X8691190Y-18073833D01*
X8672143Y-18064310D01*
X8643571Y-18064310D01*
X8624524Y-18054786D01*
X8615000Y-18035738D01*
X8615000Y-18026214D01*
X8624524Y-18007167D01*
X8643571Y-17997643D01*
X8672143Y-17997643D01*
X8691190Y-18007167D01*
X8767381Y-18207167D02*
X8776905Y-18197643D01*
X8795952Y-18169071D01*
X8805476Y-18150024D01*
X8815000Y-18121452D01*
X8824524Y-18073833D01*
X8824524Y-18035738D01*
X8815000Y-17988119D01*
X8805476Y-17959548D01*
X8795952Y-17940500D01*
X8776905Y-17911929D01*
X8767381Y-17902405D01*
M02*
