G04 #@! TF.GenerationSoftware,KiCad,Pcbnew,(6.0.2-0)*
G04 #@! TF.CreationDate,2023-05-16T15:47:16+01:00*
G04 #@! TF.ProjectId,cpc6128_rom_board,63706336-3132-4385-9f72-6f6d5f626f61,1*
G04 #@! TF.SameCoordinates,Original*
G04 #@! TF.FileFunction,Copper,L2,Bot*
G04 #@! TF.FilePolarity,Positive*
%FSLAX46Y46*%
G04 Gerber Fmt 4.6, Leading zero omitted, Abs format (unit mm)*
G04 Created by KiCad (PCBNEW (6.0.2-0)) date 2023-05-16 15:47:16*
%MOMM*%
%LPD*%
G01*
G04 APERTURE LIST*
G04 Aperture macros list*
%AMRoundRect*
0 Rectangle with rounded corners*
0 $1 Rounding radius*
0 $2 $3 $4 $5 $6 $7 $8 $9 X,Y pos of 4 corners*
0 Add a 4 corners polygon primitive as box body*
4,1,4,$2,$3,$4,$5,$6,$7,$8,$9,$2,$3,0*
0 Add four circle primitives for the rounded corners*
1,1,$1+$1,$2,$3*
1,1,$1+$1,$4,$5*
1,1,$1+$1,$6,$7*
1,1,$1+$1,$8,$9*
0 Add four rect primitives between the rounded corners*
20,1,$1+$1,$2,$3,$4,$5,0*
20,1,$1+$1,$4,$5,$6,$7,0*
20,1,$1+$1,$6,$7,$8,$9,0*
20,1,$1+$1,$8,$9,$2,$3,0*%
G04 Aperture macros list end*
G04 #@! TA.AperFunction,ComponentPad*
%ADD10C,1.600000*%
G04 #@! TD*
G04 #@! TA.AperFunction,ComponentPad*
%ADD11O,3.000000X2.500000*%
G04 #@! TD*
G04 #@! TA.AperFunction,ComponentPad*
%ADD12R,1.600000X1.600000*%
G04 #@! TD*
G04 #@! TA.AperFunction,ComponentPad*
%ADD13O,1.600000X1.600000*%
G04 #@! TD*
G04 #@! TA.AperFunction,ComponentPad*
%ADD14RoundRect,0.250000X0.600000X-0.600000X0.600000X0.600000X-0.600000X0.600000X-0.600000X-0.600000X0*%
G04 #@! TD*
G04 #@! TA.AperFunction,ComponentPad*
%ADD15C,1.700000*%
G04 #@! TD*
G04 #@! TA.AperFunction,ComponentPad*
%ADD16C,1.500000*%
G04 #@! TD*
G04 #@! TA.AperFunction,ComponentPad*
%ADD17R,1.800000X1.800000*%
G04 #@! TD*
G04 #@! TA.AperFunction,ComponentPad*
%ADD18O,1.800000X1.800000*%
G04 #@! TD*
G04 #@! TA.AperFunction,ComponentPad*
%ADD19C,1.524000*%
G04 #@! TD*
G04 #@! TA.AperFunction,ComponentPad*
%ADD20R,1.200000X1.200000*%
G04 #@! TD*
G04 #@! TA.AperFunction,ComponentPad*
%ADD21C,1.200000*%
G04 #@! TD*
G04 #@! TA.AperFunction,ViaPad*
%ADD22C,0.800000*%
G04 #@! TD*
G04 #@! TA.AperFunction,Conductor*
%ADD23C,0.254000*%
G04 #@! TD*
G04 APERTURE END LIST*
D10*
X69870000Y-110490000D03*
X72370000Y-110490000D03*
D11*
X107425000Y-53420000D03*
X119925000Y-53420000D03*
X107425000Y-58420000D03*
X119925000Y-58420000D03*
D12*
X83820000Y-114300000D03*
D13*
X83820000Y-116840000D03*
X83820000Y-119380000D03*
X83820000Y-121920000D03*
X83820000Y-124460000D03*
X83820000Y-127000000D03*
X83820000Y-129540000D03*
X83820000Y-132080000D03*
X91440000Y-132080000D03*
X91440000Y-129540000D03*
X91440000Y-127000000D03*
X91440000Y-124460000D03*
X91440000Y-121920000D03*
X91440000Y-119380000D03*
X91440000Y-116840000D03*
X91440000Y-114300000D03*
D11*
X145325000Y-141010000D03*
X132825000Y-141010000D03*
X132825000Y-146010000D03*
X145325000Y-146010000D03*
D10*
X52070000Y-133985000D03*
D13*
X52070000Y-126365000D03*
D14*
X57150000Y-148590000D03*
D15*
X57150000Y-146050000D03*
X59690000Y-148590000D03*
X59690000Y-146050000D03*
X62230000Y-148590000D03*
X62230000Y-146050000D03*
X64770000Y-148590000D03*
X64770000Y-146050000D03*
X67310000Y-148590000D03*
X67310000Y-146050000D03*
X69850000Y-148590000D03*
X69850000Y-146050000D03*
X72390000Y-148590000D03*
X72390000Y-146050000D03*
X74930000Y-148590000D03*
X74930000Y-146050000D03*
X77470000Y-148590000D03*
X77470000Y-146050000D03*
X80010000Y-148590000D03*
X80010000Y-146050000D03*
X82550000Y-148590000D03*
X82550000Y-146050000D03*
X85090000Y-148590000D03*
X85090000Y-146050000D03*
X87630000Y-148590000D03*
X87630000Y-146050000D03*
X90170000Y-148590000D03*
X90170000Y-146050000D03*
X92710000Y-148590000D03*
X92710000Y-146050000D03*
X95250000Y-148590000D03*
X95250000Y-146050000D03*
X97790000Y-148590000D03*
X97790000Y-146050000D03*
X100330000Y-148590000D03*
X100330000Y-146050000D03*
X102870000Y-148590000D03*
X102870000Y-146050000D03*
X105410000Y-148590000D03*
X105410000Y-146050000D03*
X107950000Y-148590000D03*
X107950000Y-146050000D03*
X110490000Y-148590000D03*
X110490000Y-146050000D03*
X113030000Y-148590000D03*
X113030000Y-146050000D03*
X115570000Y-148590000D03*
X115570000Y-146050000D03*
X118110000Y-148590000D03*
X118110000Y-146050000D03*
D10*
X62230000Y-133985000D03*
D13*
X62230000Y-126365000D03*
D10*
X70505000Y-80010000D03*
X73005000Y-80010000D03*
D12*
X83820000Y-85090000D03*
D13*
X83820000Y-87630000D03*
X83820000Y-90170000D03*
X83820000Y-92710000D03*
X83820000Y-95250000D03*
X83820000Y-97790000D03*
X83820000Y-100330000D03*
X83820000Y-102870000D03*
X91440000Y-102870000D03*
X91440000Y-100330000D03*
X91440000Y-97790000D03*
X91440000Y-95250000D03*
X91440000Y-92710000D03*
X91440000Y-90170000D03*
X91440000Y-87630000D03*
X91440000Y-85090000D03*
D10*
X46990000Y-133985000D03*
D13*
X46990000Y-126365000D03*
D16*
X47625000Y-98335000D03*
X47625000Y-93435000D03*
D10*
X84475000Y-80010000D03*
X86975000Y-80010000D03*
D12*
X69850000Y-85090000D03*
D13*
X69850000Y-87630000D03*
X69850000Y-90170000D03*
X69850000Y-92710000D03*
X69850000Y-95250000D03*
X69850000Y-97790000D03*
X69850000Y-100330000D03*
X69850000Y-102870000D03*
X77470000Y-102870000D03*
X77470000Y-100330000D03*
X77470000Y-97790000D03*
X77470000Y-95250000D03*
X77470000Y-92710000D03*
X77470000Y-90170000D03*
X77470000Y-87630000D03*
X77470000Y-85090000D03*
D17*
X114935000Y-133350000D03*
D18*
X114935000Y-125730000D03*
D11*
X123825000Y-40680000D03*
X136325000Y-40680000D03*
X136325000Y-45680000D03*
X123825000Y-45680000D03*
D10*
X83840000Y-109855000D03*
X86340000Y-109855000D03*
X47645000Y-105410000D03*
X50145000Y-105410000D03*
X47645000Y-107950000D03*
X50145000Y-107950000D03*
D12*
X53985000Y-85100000D03*
D13*
X53985000Y-87640000D03*
X53985000Y-90180000D03*
X53985000Y-92720000D03*
X53985000Y-95260000D03*
X53985000Y-97800000D03*
X53985000Y-100340000D03*
X53985000Y-102880000D03*
X53985000Y-105420000D03*
X53985000Y-107960000D03*
X53985000Y-110500000D03*
X53985000Y-113040000D03*
X53985000Y-115580000D03*
X53985000Y-118120000D03*
X61605000Y-118120000D03*
X61605000Y-115580000D03*
X61605000Y-113040000D03*
X61605000Y-110500000D03*
X61605000Y-107960000D03*
X61605000Y-105420000D03*
X61605000Y-102880000D03*
X61605000Y-100340000D03*
X61605000Y-97800000D03*
X61605000Y-95260000D03*
X61605000Y-92720000D03*
X61605000Y-90180000D03*
X61605000Y-87640000D03*
X61605000Y-85100000D03*
D12*
X138430000Y-114300000D03*
D13*
X138430000Y-116840000D03*
X138430000Y-119380000D03*
X138430000Y-121920000D03*
X138430000Y-124460000D03*
X138430000Y-127000000D03*
X138430000Y-129540000D03*
X146050000Y-129540000D03*
X146050000Y-127000000D03*
X146050000Y-124460000D03*
X146050000Y-121920000D03*
X146050000Y-119380000D03*
X146050000Y-116840000D03*
X146050000Y-114300000D03*
D10*
X107315000Y-125730000D03*
D13*
X107315000Y-133350000D03*
D10*
X102255000Y-80010000D03*
X104755000Y-80010000D03*
D12*
X138430000Y-85090000D03*
D13*
X138430000Y-87630000D03*
X138430000Y-90170000D03*
X138430000Y-92710000D03*
X138430000Y-95250000D03*
X138430000Y-97790000D03*
X138430000Y-100330000D03*
X146050000Y-100330000D03*
X146050000Y-97790000D03*
X146050000Y-95250000D03*
X146050000Y-92710000D03*
X146050000Y-90170000D03*
X146050000Y-87630000D03*
X146050000Y-85090000D03*
D10*
X124480000Y-109220000D03*
X126980000Y-109220000D03*
D12*
X100325000Y-84465000D03*
D13*
X100325000Y-87005000D03*
X100325000Y-89545000D03*
X100325000Y-92085000D03*
X100325000Y-94625000D03*
X100325000Y-97165000D03*
X100325000Y-99705000D03*
X100325000Y-102245000D03*
X100325000Y-104785000D03*
X100325000Y-107325000D03*
X100325000Y-109865000D03*
X100325000Y-112405000D03*
X100325000Y-114945000D03*
X100325000Y-117485000D03*
X115565000Y-117485000D03*
X115565000Y-114945000D03*
X115565000Y-112405000D03*
X115565000Y-109865000D03*
X115565000Y-107325000D03*
X115565000Y-104785000D03*
X115565000Y-102245000D03*
X115565000Y-99705000D03*
X115565000Y-97165000D03*
X115565000Y-94625000D03*
X115565000Y-92085000D03*
X115565000Y-89545000D03*
X115565000Y-87005000D03*
X115565000Y-84465000D03*
D19*
X69215000Y-64770000D03*
X66675000Y-64770000D03*
X64135000Y-64770000D03*
X61595000Y-64770000D03*
X59055000Y-64770000D03*
X56515000Y-64770000D03*
X53975000Y-64770000D03*
X51435000Y-64770000D03*
D12*
X69850000Y-114300000D03*
D13*
X69850000Y-116840000D03*
X69850000Y-119380000D03*
X69850000Y-121920000D03*
X69850000Y-124460000D03*
X69850000Y-127000000D03*
X69850000Y-129540000D03*
X77470000Y-129540000D03*
X77470000Y-127000000D03*
X77470000Y-124460000D03*
X77470000Y-121920000D03*
X77470000Y-119380000D03*
X77470000Y-116840000D03*
X77470000Y-114300000D03*
D20*
X112057400Y-78740000D03*
D21*
X114057400Y-78740000D03*
D12*
X124470000Y-114295000D03*
D13*
X124470000Y-116835000D03*
X124470000Y-119375000D03*
X124470000Y-121915000D03*
X124470000Y-124455000D03*
X124470000Y-126995000D03*
X124470000Y-129535000D03*
X132090000Y-129535000D03*
X132090000Y-126995000D03*
X132090000Y-124455000D03*
X132090000Y-121915000D03*
X132090000Y-119375000D03*
X132090000Y-116835000D03*
X132090000Y-114295000D03*
D19*
X84836000Y-45085000D03*
X87376000Y-45085000D03*
X89916000Y-45085000D03*
X92456000Y-45085000D03*
D11*
X140335000Y-53380000D03*
X152835000Y-53380000D03*
X152835000Y-58380000D03*
X140335000Y-58380000D03*
D10*
X124500000Y-80010000D03*
X127000000Y-80010000D03*
D12*
X124460000Y-85090000D03*
D13*
X124460000Y-87630000D03*
X124460000Y-90170000D03*
X124460000Y-92710000D03*
X124460000Y-95250000D03*
X124460000Y-97790000D03*
X124460000Y-100330000D03*
X132080000Y-100330000D03*
X132080000Y-97790000D03*
X132080000Y-95250000D03*
X132080000Y-92710000D03*
X132080000Y-90170000D03*
X132080000Y-87630000D03*
X132080000Y-85090000D03*
D20*
X56812400Y-78740000D03*
D21*
X58812400Y-78740000D03*
D11*
X136325000Y-66080000D03*
X123825000Y-66080000D03*
X136325000Y-71080000D03*
X123825000Y-71080000D03*
D10*
X139065000Y-80010000D03*
X141565000Y-80010000D03*
X101600000Y-133350000D03*
D13*
X101600000Y-125730000D03*
D10*
X139105000Y-109220000D03*
X141605000Y-109220000D03*
X65405000Y-102850000D03*
X65405000Y-100350000D03*
X57150000Y-133985000D03*
D13*
X57150000Y-126365000D03*
D22*
X63500000Y-113030000D03*
X72644000Y-116840000D03*
X103904500Y-117348000D03*
X87884000Y-126510500D03*
X87840103Y-132123897D03*
X79756000Y-107696000D03*
X72644000Y-133096000D03*
X72644000Y-124460000D03*
X87840103Y-129075897D03*
X69850000Y-106680000D03*
X103904500Y-110998000D03*
X64624500Y-74930000D03*
X65405000Y-76200000D03*
X123952000Y-141790500D03*
X69179900Y-108646500D03*
X64770000Y-96520000D03*
X64527200Y-111063100D03*
X94591700Y-88395700D03*
X80773000Y-93014100D03*
X76168000Y-96303700D03*
X89473900Y-137690000D03*
X121285000Y-146050000D03*
X109534400Y-142342400D03*
X93168700Y-141952200D03*
X82774700Y-108708500D03*
X125984000Y-91440000D03*
X124460000Y-149352000D03*
X64770000Y-128336100D03*
X56660500Y-106045000D03*
X87789400Y-103754100D03*
X87933300Y-90386700D03*
D23*
X53985000Y-105420000D02*
X52803900Y-105420000D01*
X48827200Y-104227800D02*
X47645000Y-105410000D01*
X52803900Y-105420000D02*
X51611700Y-104227800D01*
X51611700Y-104227800D02*
X48827200Y-104227800D01*
X139105000Y-101005000D02*
X138430000Y-100330000D01*
X103904500Y-110998000D02*
X103856989Y-111045511D01*
X70400989Y-107865989D02*
X72370000Y-109835000D01*
X103904500Y-117348000D02*
X103767500Y-117485000D01*
X103767500Y-117485000D02*
X100325000Y-117485000D01*
X72644000Y-133096000D02*
X72644000Y-132334000D01*
X76962000Y-110490000D02*
X72370000Y-110490000D01*
X87796206Y-132080000D02*
X87840103Y-132123897D01*
X67310000Y-111760000D02*
X67310000Y-109220000D01*
X72370000Y-109835000D02*
X72370000Y-110490000D01*
X103856989Y-111045511D02*
X87530511Y-111045511D01*
X66040000Y-113030000D02*
X67310000Y-111760000D01*
X72644000Y-124460000D02*
X77470000Y-124460000D01*
X72644000Y-133096000D02*
X73660000Y-132080000D01*
X67310000Y-109220000D02*
X68664011Y-107865989D01*
X68664011Y-107865989D02*
X69850000Y-106680000D01*
X72644000Y-132334000D02*
X69850000Y-129540000D01*
X65405000Y-100350000D02*
X61615000Y-100350000D01*
X63500000Y-113030000D02*
X66040000Y-113030000D01*
X79756000Y-107696000D02*
X76962000Y-110490000D01*
X69765989Y-107865989D02*
X70400989Y-107865989D01*
X87840103Y-129075897D02*
X87884000Y-129032000D01*
X61615000Y-100350000D02*
X61605000Y-100340000D01*
X68664011Y-107865989D02*
X69765989Y-107865989D01*
X73660000Y-132080000D02*
X83820000Y-132080000D01*
X72644000Y-116840000D02*
X77470000Y-116840000D01*
X139105000Y-109220000D02*
X139105000Y-101005000D01*
X87530511Y-111045511D02*
X86340000Y-109855000D01*
X87884000Y-129032000D02*
X87884000Y-126510500D01*
X83820000Y-132080000D02*
X87796206Y-132080000D01*
X51603300Y-106759400D02*
X48835600Y-106759400D01*
X53985000Y-107960000D02*
X52803900Y-107960000D01*
X52803900Y-107960000D02*
X51603300Y-106759400D01*
X48835600Y-106759400D02*
X47645000Y-107950000D01*
X133261100Y-100330000D02*
X135801100Y-97790000D01*
X101600000Y-133350000D02*
X109220000Y-125730000D01*
X109220000Y-125730000D02*
X113653900Y-125730000D01*
X135801100Y-97790000D02*
X138430000Y-97790000D01*
X114935000Y-125730000D02*
X113653900Y-125730000D01*
X132080000Y-100330000D02*
X133261100Y-100330000D01*
X56347200Y-101521100D02*
X64076100Y-101521100D01*
X78651100Y-114300000D02*
X80772100Y-112179000D01*
X137248900Y-121920000D02*
X134703900Y-119375000D01*
X122545000Y-84465000D02*
X122545000Y-93335000D01*
X140677000Y-80898000D02*
X141565000Y-80010000D01*
X58082400Y-80010000D02*
X70505000Y-80010000D01*
X132055000Y-114295000D02*
X132090000Y-114295000D01*
X137666100Y-83908900D02*
X140677000Y-80898000D01*
X80772100Y-109855000D02*
X83840000Y-109855000D01*
X126980000Y-109220000D02*
X132055000Y-114295000D01*
X78060600Y-114300000D02*
X78651100Y-114300000D01*
X85656200Y-78828800D02*
X101073800Y-78828800D01*
X46990000Y-133985000D02*
X52070000Y-133985000D01*
X133261100Y-85090000D02*
X134442200Y-83908900D01*
X53985000Y-100340000D02*
X55166100Y-100340000D01*
X80772100Y-103632100D02*
X77470000Y-100330000D01*
X138430000Y-121920000D02*
X137248900Y-121920000D01*
X55166100Y-100340000D02*
X56347200Y-101521100D01*
X80772100Y-109855000D02*
X80772100Y-103632100D01*
X144868900Y-85090000D02*
X146050000Y-85090000D01*
X132080000Y-82550000D02*
X132080000Y-85090000D01*
X73680000Y-114300000D02*
X77470000Y-114300000D01*
X129540000Y-80010000D02*
X132080000Y-82550000D01*
X63500000Y-80010000D02*
X70505000Y-80010000D01*
X103525000Y-78740000D02*
X102255000Y-80010000D01*
X101073800Y-78828800D02*
X102255000Y-80010000D01*
X107315000Y-125730000D02*
X101600000Y-125730000D01*
X137243900Y-114295000D02*
X137248900Y-114300000D01*
X132080000Y-85090000D02*
X133261100Y-85090000D01*
X141565000Y-80010000D02*
X141565000Y-81786100D01*
X122545000Y-84465000D02*
X127000000Y-80010000D01*
X91440000Y-129540000D02*
X92621100Y-129540000D01*
X84475000Y-80010000D02*
X85656200Y-78828800D01*
X78060600Y-114300000D02*
X77470000Y-114300000D01*
X69215000Y-64770000D02*
X63500000Y-70485000D01*
X91440000Y-114300000D02*
X88900000Y-114300000D01*
X141565000Y-81786100D02*
X144868900Y-85090000D01*
X112057400Y-78740000D02*
X103525000Y-78740000D01*
X87376000Y-45085000D02*
X87376000Y-46609000D01*
X127000000Y-80010000D02*
X129540000Y-80010000D01*
X80772100Y-112179000D02*
X80772100Y-109855000D01*
X122545000Y-93335000D02*
X124460000Y-95250000D01*
X56812400Y-78740000D02*
X58082400Y-80010000D01*
X112057400Y-80957400D02*
X115565000Y-84465000D01*
X88900000Y-114300000D02*
X84455000Y-109855000D01*
X134703900Y-119375000D02*
X132090000Y-119375000D01*
X92621100Y-129540000D02*
X96431100Y-125730000D01*
X64076100Y-101521100D02*
X65405000Y-102850000D01*
X132080000Y-95250000D02*
X124460000Y-95250000D01*
X138430000Y-114300000D02*
X137248900Y-114300000D01*
X96431100Y-125730000D02*
X101600000Y-125730000D01*
X132090000Y-114295000D02*
X137243900Y-114295000D01*
X134442200Y-83908900D02*
X137666100Y-83908900D01*
X84455000Y-109855000D02*
X83840000Y-109855000D01*
X87376000Y-46609000D02*
X69215000Y-64770000D01*
X115565000Y-84465000D02*
X122545000Y-84465000D01*
X63500000Y-70485000D02*
X63500000Y-80010000D01*
X112057400Y-78740000D02*
X112057400Y-80957400D01*
X69870000Y-110490000D02*
X73680000Y-114300000D01*
X89916000Y-54864000D02*
X69850000Y-74930000D01*
X89916000Y-45085000D02*
X89916000Y-54864000D01*
X69850000Y-74930000D02*
X64624500Y-74930000D01*
X71437500Y-76200000D02*
X65405000Y-76200000D01*
X92456000Y-45085000D02*
X92456000Y-55181500D01*
X92456000Y-55181500D02*
X71437500Y-76200000D01*
X81241200Y-147988400D02*
X80572800Y-147320000D01*
X109220000Y-146685000D02*
X109220000Y-149063900D01*
X80572800Y-147320000D02*
X60960000Y-147320000D01*
X82490300Y-150351600D02*
X81241200Y-149102500D01*
X60960000Y-147320000D02*
X59690000Y-148590000D01*
X123952000Y-141790500D02*
X123824900Y-141917600D01*
X109220000Y-145524800D02*
X109220000Y-146614790D01*
X123824900Y-141917600D02*
X112827200Y-141917600D01*
X109220000Y-149063900D02*
X107932300Y-150351600D01*
X112827200Y-141917600D02*
X109220000Y-145524800D01*
X81241200Y-149102500D02*
X81241200Y-147988400D01*
X107932300Y-150351600D02*
X82490300Y-150351600D01*
X68600400Y-109226000D02*
X69179900Y-108646500D01*
X76701600Y-81806200D02*
X73417800Y-85090000D01*
X96485100Y-81806200D02*
X76701600Y-81806200D01*
X69850000Y-119380000D02*
X68600400Y-118130400D01*
X99143900Y-84465000D02*
X96485100Y-81806200D01*
X100325000Y-84465000D02*
X99143900Y-84465000D01*
X73417800Y-85090000D02*
X69850000Y-85090000D01*
X68600400Y-118130400D02*
X68600400Y-109226000D01*
X114383900Y-89545000D02*
X110485100Y-85646200D01*
X76987000Y-82314300D02*
X71671300Y-87630000D01*
X69850000Y-88442000D02*
X69850000Y-87630000D01*
X116746100Y-89545000D02*
X123721100Y-96520000D01*
X116064900Y-89545000D02*
X116746100Y-89545000D01*
X64770000Y-96520000D02*
X64770000Y-93522000D01*
X123721100Y-96520000D02*
X141058900Y-96520000D01*
X99067100Y-85646200D02*
X95735200Y-82314300D01*
X110485100Y-85646200D02*
X99067100Y-85646200D01*
X146050000Y-100330000D02*
X144868900Y-100330000D01*
X64770000Y-93522000D02*
X69850000Y-88442000D01*
X141058900Y-96520000D02*
X144868900Y-100330000D01*
X95735200Y-82314300D02*
X76987000Y-82314300D01*
X115565000Y-89545000D02*
X114383900Y-89545000D01*
X116064900Y-89545000D02*
X115565000Y-89545000D01*
X71671300Y-87630000D02*
X69850000Y-87630000D01*
X47413600Y-127654000D02*
X46546500Y-127654000D01*
X54610000Y-114300000D02*
X55880000Y-113030000D01*
X45805200Y-126912700D02*
X45805200Y-121199800D01*
X94973100Y-82834200D02*
X77185800Y-82834200D01*
X57059800Y-104230200D02*
X65741100Y-104230200D01*
X55880000Y-105410000D02*
X57059800Y-104230200D01*
X99143900Y-87005000D02*
X94973100Y-82834200D01*
X55880000Y-113030000D02*
X55880000Y-105410000D01*
X62230000Y-146050000D02*
X62230000Y-142470400D01*
X65741100Y-104230200D02*
X67108600Y-102862700D01*
X67108600Y-92911400D02*
X69850000Y-90170000D01*
X77185800Y-82834200D02*
X69850000Y-90170000D01*
X100325000Y-87005000D02*
X99143900Y-87005000D01*
X52705000Y-114300000D02*
X54610000Y-114300000D01*
X46546500Y-127654000D02*
X45805200Y-126912700D01*
X45805200Y-121199800D02*
X52705000Y-114300000D01*
X67108600Y-102862700D02*
X67108600Y-92911400D01*
X62230000Y-142470400D02*
X47413600Y-127654000D01*
X113048900Y-95830000D02*
X99473600Y-95830000D01*
X115565000Y-97165000D02*
X114383900Y-97165000D01*
X114383900Y-97165000D02*
X113048900Y-95830000D01*
X74781600Y-88959500D02*
X71031100Y-92710000D01*
X99473600Y-95830000D02*
X92603100Y-88959500D01*
X69850000Y-92710000D02*
X71031100Y-92710000D01*
X92603100Y-88959500D02*
X74781600Y-88959500D01*
X72389900Y-96608800D02*
X72389900Y-97084800D01*
X79799400Y-96608800D02*
X82250600Y-99060000D01*
X69850000Y-95250000D02*
X71031100Y-95250000D01*
X76967500Y-96608800D02*
X79799400Y-96608800D01*
X84956100Y-99060000D02*
X91887600Y-105991500D01*
X107508900Y-105991500D02*
X111255400Y-102245000D01*
X76491500Y-97084800D02*
X76967500Y-96608800D01*
X111255400Y-102245000D02*
X115565000Y-102245000D01*
X82250600Y-99060000D02*
X84956100Y-99060000D01*
X72389900Y-102000600D02*
X64527200Y-109863300D01*
X72389900Y-97084800D02*
X72389900Y-102000600D01*
X71031100Y-95250000D02*
X72389900Y-96608800D01*
X64527200Y-109863300D02*
X64527200Y-111063100D01*
X72389900Y-97084800D02*
X76491500Y-97084800D01*
X91887600Y-105991500D02*
X107508900Y-105991500D01*
X113073600Y-93314700D02*
X99510700Y-93314700D01*
X99510700Y-93314700D02*
X94591700Y-88395700D01*
X114383900Y-94625000D02*
X113073600Y-93314700D01*
X115565000Y-94625000D02*
X114383900Y-94625000D01*
X92264900Y-83342300D02*
X99826500Y-90903900D01*
X68111300Y-92740000D02*
X69411300Y-91440000D01*
X70281800Y-91440000D02*
X74623900Y-87097900D01*
X68111300Y-98591300D02*
X68111300Y-92740000D01*
X114383900Y-92085000D02*
X115565000Y-92085000D01*
X74623900Y-87097900D02*
X74623900Y-86259900D01*
X77541500Y-83342300D02*
X92264900Y-83342300D01*
X74623900Y-86259900D02*
X77541500Y-83342300D01*
X99826500Y-90903900D02*
X113202800Y-90903900D01*
X69850000Y-100330000D02*
X68111300Y-98591300D01*
X69411300Y-91440000D02*
X70281800Y-91440000D01*
X113202800Y-90903900D02*
X114383900Y-92085000D01*
X100190000Y-92085000D02*
X92013900Y-83908900D01*
X92013900Y-83908900D02*
X86182200Y-83908900D01*
X85001100Y-85090000D02*
X83820000Y-85090000D01*
X86182200Y-83908900D02*
X85001100Y-85090000D01*
X100325000Y-92085000D02*
X100190000Y-92085000D01*
X76168000Y-94815800D02*
X76168000Y-96303700D01*
X86195900Y-86435200D02*
X85001100Y-87630000D01*
X99143900Y-94625000D02*
X93047600Y-88528700D01*
X93047600Y-88528700D02*
X93047600Y-87562800D01*
X77003800Y-93980000D02*
X76168000Y-94815800D01*
X100325000Y-94625000D02*
X99143900Y-94625000D01*
X91920000Y-86435200D02*
X86195900Y-86435200D01*
X93047600Y-87562800D02*
X91920000Y-86435200D01*
X83820000Y-87630000D02*
X85001100Y-87630000D01*
X80773000Y-93014100D02*
X79756600Y-93014100D01*
X78790700Y-93980000D02*
X77003800Y-93980000D01*
X79756600Y-93014100D02*
X78790700Y-93980000D01*
X93418900Y-91440000D02*
X86271100Y-91440000D01*
X83820000Y-90170000D02*
X85001100Y-90170000D01*
X100325000Y-97165000D02*
X99143900Y-97165000D01*
X99143900Y-97165000D02*
X93418900Y-91440000D01*
X80750000Y-137690000D02*
X89473900Y-137690000D01*
X86271100Y-91440000D02*
X85001100Y-90170000D01*
X72390000Y-146050000D02*
X80750000Y-137690000D01*
X93350900Y-93912000D02*
X89280100Y-93912000D01*
X85836300Y-93545200D02*
X85001100Y-92710000D01*
X88913300Y-93545200D02*
X85836300Y-93545200D01*
X83820000Y-92710000D02*
X85001100Y-92710000D01*
X99143900Y-99705000D02*
X93350900Y-93912000D01*
X100325000Y-99705000D02*
X99143900Y-99705000D01*
X89280100Y-93912000D02*
X88913300Y-93545200D01*
X86182300Y-96431200D02*
X85001100Y-95250000D01*
X100325000Y-102245000D02*
X99143900Y-102245000D01*
X99143900Y-102245000D02*
X93330100Y-96431200D01*
X83820000Y-95250000D02*
X85001100Y-95250000D01*
X93330100Y-96431200D02*
X86182300Y-96431200D01*
X100325000Y-104785000D02*
X91627000Y-104785000D01*
X84632000Y-97790000D02*
X83820000Y-97790000D01*
X91627000Y-104785000D02*
X84632000Y-97790000D01*
X100325000Y-107325000D02*
X92465000Y-107325000D01*
X85470000Y-100330000D02*
X85001100Y-100330000D01*
X92465000Y-107325000D02*
X85470000Y-100330000D01*
X83820000Y-100330000D02*
X85001100Y-100330000D01*
X111760000Y-149153700D02*
X110012000Y-150901700D01*
X120054489Y-147280511D02*
X112521889Y-147280511D01*
X114803100Y-111135000D02*
X109723100Y-116215000D01*
X116745511Y-108505511D02*
X116745511Y-110353985D01*
X116745511Y-110353985D02*
X115964496Y-111135000D01*
X109723100Y-116215000D02*
X92065000Y-116215000D01*
X112521889Y-147280511D02*
X111760000Y-148042400D01*
X82321700Y-150901700D02*
X80010000Y-148590000D01*
X115964496Y-111135000D02*
X114803100Y-111135000D01*
X115565000Y-107325000D02*
X116745511Y-108505511D01*
X111760000Y-148042400D02*
X111760000Y-149153700D01*
X92065000Y-116215000D02*
X91440000Y-116840000D01*
X121285000Y-146050000D02*
X120054489Y-147280511D01*
X110012000Y-150901700D02*
X82321700Y-150901700D01*
X115565000Y-109865000D02*
X106890300Y-109865000D01*
X103080300Y-113675000D02*
X95333900Y-113675000D01*
X86182200Y-115481100D02*
X85001100Y-114300000D01*
X95333900Y-113675000D02*
X93527800Y-115481100D01*
X93527800Y-115481100D02*
X86182200Y-115481100D01*
X83820000Y-114300000D02*
X85001100Y-114300000D01*
X106890300Y-109865000D02*
X103080300Y-113675000D01*
X106001200Y-149843500D02*
X83803500Y-149843500D01*
X83803500Y-149843500D02*
X82550000Y-148590000D01*
X106680100Y-149164600D02*
X106001200Y-149843500D01*
X106680100Y-145196700D02*
X106680100Y-149164600D01*
X109534400Y-142342400D02*
X106680100Y-145196700D01*
X90624000Y-120595900D02*
X89408100Y-119380000D01*
X108733000Y-120595900D02*
X90624000Y-120595900D01*
X115565000Y-114945000D02*
X114383900Y-114945000D01*
X114383900Y-114945000D02*
X108733000Y-120595900D01*
X89408100Y-119380000D02*
X83820000Y-119380000D01*
X89540200Y-121920000D02*
X83820000Y-121920000D01*
X114383900Y-117485000D02*
X108739400Y-123129500D01*
X115565000Y-117485000D02*
X114383900Y-117485000D01*
X108739400Y-123129500D02*
X90749700Y-123129500D01*
X90749700Y-123129500D02*
X89540200Y-121920000D01*
X93168700Y-141952200D02*
X89187800Y-141952200D01*
X89187800Y-141952200D02*
X85090000Y-146050000D01*
X83279200Y-108204000D02*
X82774700Y-108708500D01*
X111335100Y-103602500D02*
X129940900Y-103602500D01*
X100325000Y-109865000D02*
X105072600Y-109865000D01*
X99143900Y-109865000D02*
X97482900Y-108204000D01*
X105072600Y-109865000D02*
X111335100Y-103602500D01*
X139610511Y-115659489D02*
X138430000Y-116840000D01*
X129940900Y-103602500D02*
X139610511Y-113272111D01*
X97482900Y-108204000D02*
X83279200Y-108204000D01*
X100325000Y-109865000D02*
X99143900Y-109865000D01*
X139610511Y-113272111D02*
X139610511Y-115659489D01*
X133749496Y-90170000D02*
X138430000Y-90170000D01*
X129313600Y-88900000D02*
X132479496Y-88900000D01*
X132479496Y-88900000D02*
X133749496Y-90170000D01*
X126773600Y-91440000D02*
X129313600Y-88900000D01*
X125984000Y-91440000D02*
X126773600Y-91440000D01*
X124460000Y-149352000D02*
X124460000Y-145796000D01*
X146304000Y-143256000D02*
X148336000Y-141224000D01*
X124460000Y-145796000D02*
X127000000Y-143256000D01*
X148336000Y-100076000D02*
X146050000Y-97790000D01*
X148336000Y-141224000D02*
X148336000Y-100076000D01*
X127000000Y-143256000D02*
X146304000Y-143256000D01*
X113990900Y-135650300D02*
X134040600Y-135650300D01*
X104140000Y-145501200D02*
X113990900Y-135650300D01*
X102870000Y-147811800D02*
X104140000Y-146541800D01*
X104140000Y-146541800D02*
X104140000Y-145501200D01*
X102870000Y-147811800D02*
X102870000Y-148590000D01*
X62230000Y-133985000D02*
X87477700Y-133985000D01*
X99782400Y-147320000D02*
X102378200Y-147320000D01*
X87477700Y-133985000D02*
X99098800Y-145606100D01*
X134040600Y-135650300D02*
X143386100Y-126304800D01*
X143386100Y-126304800D02*
X143386100Y-122871500D01*
X147295700Y-118085700D02*
X146050000Y-116840000D01*
X102378200Y-147320000D02*
X102870000Y-147811800D01*
X146498400Y-120650000D02*
X147295700Y-119852700D01*
X99098800Y-146636400D02*
X99782400Y-147320000D01*
X143386100Y-122871500D02*
X145607600Y-120650000D01*
X99098800Y-145606100D02*
X99098800Y-146636400D01*
X145607600Y-120650000D02*
X146498400Y-120650000D01*
X147295700Y-119852700D02*
X147295700Y-118085700D01*
X64770000Y-128336100D02*
X64836100Y-128270000D01*
X64836100Y-128270000D02*
X85090000Y-128270000D01*
X85090000Y-128270000D02*
X102870000Y-146050000D01*
X131872500Y-141010000D02*
X130919900Y-141010000D01*
X105410000Y-145362200D02*
X105410000Y-146050000D01*
X132825000Y-141010000D02*
X145325000Y-141010000D01*
X130919900Y-141010000D02*
X109762200Y-141010000D01*
X131872500Y-141010000D02*
X132825000Y-141010000D01*
X109762200Y-141010000D02*
X105410000Y-145362200D01*
X93756200Y-125730000D02*
X95041600Y-124444600D01*
X129718300Y-128185600D02*
X130908900Y-126995000D01*
X95041600Y-124444600D02*
X117368800Y-124444600D01*
X66617900Y-125730000D02*
X93756200Y-125730000D01*
X49361700Y-127555600D02*
X64792300Y-127555600D01*
X64792300Y-127555600D02*
X66617900Y-125730000D01*
X46990000Y-126365000D02*
X48171100Y-126365000D01*
X117368800Y-124444600D02*
X121109800Y-128185600D01*
X132090000Y-126995000D02*
X130908900Y-126995000D01*
X121109800Y-128185600D02*
X129718300Y-128185600D01*
X48171100Y-126365000D02*
X49361700Y-127555600D01*
X53552900Y-99070000D02*
X62026900Y-99070000D01*
X63500000Y-92899700D02*
X68659200Y-87740500D01*
X54437300Y-101610000D02*
X53508600Y-101610000D01*
X53985000Y-110500000D02*
X55173800Y-109311200D01*
X63500000Y-97596900D02*
X63500000Y-92899700D01*
X114383900Y-87005000D02*
X115565000Y-87005000D01*
X55173800Y-102346500D02*
X54437300Y-101610000D01*
X68659200Y-84139000D02*
X69075600Y-83722600D01*
X52766400Y-99856500D02*
X53552900Y-99070000D01*
X69075600Y-83722600D02*
X73991500Y-83722600D01*
X62026900Y-99070000D02*
X63500000Y-97596900D01*
X55173800Y-109311200D02*
X55173800Y-102346500D01*
X52766400Y-100867800D02*
X52766400Y-99856500D01*
X73991500Y-83722600D02*
X76416000Y-81298100D01*
X76416000Y-81298100D02*
X108677000Y-81298100D01*
X108677000Y-81298100D02*
X114383900Y-87005000D01*
X68659200Y-87740500D02*
X68659200Y-84139000D01*
X53508600Y-101610000D02*
X52766400Y-100867800D01*
X84510200Y-91500400D02*
X85719800Y-92710000D01*
X62786100Y-115580000D02*
X67945000Y-120738900D01*
X79860700Y-91500400D02*
X84510200Y-91500400D01*
X85719800Y-92710000D02*
X91440000Y-92710000D01*
X77470000Y-92710000D02*
X78651100Y-92710000D01*
X61605000Y-115580000D02*
X62786100Y-115580000D01*
X91440000Y-121920000D02*
X90258900Y-121920000D01*
X78651100Y-92710000D02*
X79860700Y-91500400D01*
X89077800Y-120738900D02*
X90258900Y-121920000D01*
X67945000Y-120738900D02*
X89077800Y-120738900D01*
X73223900Y-81510700D02*
X114054600Y-40680000D01*
X114054600Y-40680000D02*
X123825000Y-40680000D01*
X53985000Y-113040000D02*
X48905000Y-113040000D01*
X48905000Y-113040000D02*
X45085000Y-109220000D01*
X45085000Y-109220000D02*
X45085000Y-87945622D01*
X136325000Y-40680000D02*
X123825000Y-40680000D01*
X45085000Y-87945622D02*
X51519922Y-81510700D01*
X51519922Y-81510700D02*
X73223900Y-81510700D01*
X73788000Y-83207400D02*
X90915400Y-66080000D01*
X62785511Y-92808689D02*
X67807500Y-87786700D01*
X61605000Y-97800000D02*
X62785511Y-96619489D01*
X136325000Y-66080000D02*
X123825000Y-66080000D01*
X67807500Y-84272200D02*
X68872300Y-83207400D01*
X62785511Y-96619489D02*
X62785511Y-92808689D01*
X68872300Y-83207400D02*
X73788000Y-83207400D01*
X90915400Y-66080000D02*
X123825000Y-66080000D01*
X67807500Y-87786700D02*
X67807500Y-84272200D01*
X119925000Y-53420000D02*
X107425000Y-53420000D01*
X59690000Y-93345000D02*
X61605000Y-95260000D01*
X61953800Y-82191200D02*
X59690000Y-84455000D01*
X107425000Y-53420000D02*
X102138200Y-53420000D01*
X59690000Y-84455000D02*
X59690000Y-93345000D01*
X73367000Y-82191200D02*
X61953800Y-82191200D01*
X102138200Y-53420000D02*
X73367000Y-82191200D01*
X73578358Y-82699300D02*
X68586400Y-82699300D01*
X67119900Y-86393200D02*
X61605000Y-91908100D01*
X135929900Y-55880000D02*
X100397658Y-55880000D01*
X138429900Y-53380000D02*
X135929900Y-55880000D01*
X67119900Y-84165800D02*
X67119900Y-86393200D01*
X100397658Y-55880000D02*
X73578358Y-82699300D01*
X152835000Y-53380000D02*
X140335000Y-53380000D01*
X68586400Y-82699300D02*
X67119900Y-84165800D01*
X61605000Y-91908100D02*
X61605000Y-92720000D01*
X140335000Y-53380000D02*
X138429900Y-53380000D01*
X134536100Y-128270000D02*
X133271100Y-129535000D01*
X139673400Y-126555100D02*
X139673400Y-127506100D01*
X139673400Y-127506100D02*
X138909500Y-128270000D01*
X138848300Y-125730000D02*
X139673400Y-126555100D01*
X127234400Y-116191600D02*
X131687800Y-120645000D01*
X138909500Y-128270000D02*
X134536100Y-128270000D01*
X115565000Y-104785000D02*
X117113000Y-104785000D01*
X117113000Y-104785000D02*
X127234400Y-114906400D01*
X131687800Y-120645000D02*
X132761000Y-120645000D01*
X137846000Y-125730000D02*
X138848300Y-125730000D01*
X132090000Y-129535000D02*
X133271100Y-129535000D01*
X127234400Y-114906400D02*
X127234400Y-116191600D01*
X132761000Y-120645000D02*
X137846000Y-125730000D01*
X71031200Y-100824500D02*
X71031200Y-97265800D01*
X70285400Y-96520000D02*
X69428400Y-96520000D01*
X69428400Y-96520000D02*
X68619500Y-95711100D01*
X72413900Y-94045000D02*
X76288900Y-90170000D01*
X71031200Y-97265800D02*
X70285400Y-96520000D01*
X56660500Y-106045000D02*
X57236900Y-106621400D01*
X68619500Y-95711100D02*
X68619500Y-94788800D01*
X68619500Y-94788800D02*
X69363300Y-94045000D01*
X69158200Y-101600000D02*
X70255700Y-101600000D01*
X76288900Y-90170000D02*
X77470000Y-90170000D01*
X69363300Y-94045000D02*
X72413900Y-94045000D01*
X70255700Y-101600000D02*
X71031200Y-100824500D01*
X57236900Y-106621400D02*
X64136800Y-106621400D01*
X64136800Y-106621400D02*
X69158200Y-101600000D01*
X57329800Y-123190000D02*
X84553500Y-123190000D01*
X89540300Y-95250000D02*
X90258900Y-95250000D01*
X52804489Y-116760511D02*
X52804489Y-118664689D01*
X53985000Y-115580000D02*
X52804489Y-116760511D01*
X78651100Y-95250000D02*
X79840100Y-94061000D01*
X88351300Y-94061000D02*
X89540300Y-95250000D01*
X85823500Y-124460000D02*
X91440000Y-124460000D01*
X91440000Y-95250000D02*
X90258900Y-95250000D01*
X52804489Y-118664689D02*
X57329800Y-123190000D01*
X79840100Y-94061000D02*
X88351300Y-94061000D01*
X84553500Y-123190000D02*
X85823500Y-124460000D01*
X77470000Y-95250000D02*
X78651100Y-95250000D01*
X66675000Y-110572500D02*
X66675000Y-108585000D01*
X66675000Y-108585000D02*
X77470000Y-97790000D01*
X82403985Y-102723985D02*
X82403985Y-103558733D01*
X87460100Y-104083400D02*
X87789400Y-103754100D01*
X82928652Y-104083400D02*
X87460100Y-104083400D01*
X65403300Y-111844200D02*
X66675000Y-110572500D01*
X61072800Y-111844200D02*
X65403300Y-111844200D01*
X77470000Y-97790000D02*
X82403985Y-102723985D01*
X82403985Y-103558733D02*
X82928652Y-104083400D01*
X53985000Y-118120000D02*
X54797000Y-118120000D01*
X54797000Y-118120000D02*
X61072800Y-111844200D01*
X98423200Y-118021100D02*
X99087400Y-118685300D01*
X108694000Y-118685300D02*
X113642700Y-113736600D01*
X72212200Y-118021100D02*
X98423200Y-118021100D01*
X71031100Y-116840000D02*
X72212200Y-118021100D01*
X118895900Y-116562700D02*
X118895900Y-118084600D01*
X123996300Y-123185000D02*
X126886100Y-123185000D01*
X118895900Y-118084600D02*
X123996300Y-123185000D01*
X69850000Y-116840000D02*
X71031100Y-116840000D01*
X132669200Y-125636200D02*
X134033000Y-127000000D01*
X126886100Y-123185000D02*
X129337300Y-125636200D01*
X113642700Y-113736600D02*
X116069800Y-113736600D01*
X99087400Y-118685300D02*
X108694000Y-118685300D01*
X129337300Y-125636200D02*
X132669200Y-125636200D01*
X134033000Y-127000000D02*
X138430000Y-127000000D01*
X116069800Y-113736600D02*
X118895900Y-116562700D01*
X141760900Y-91760000D02*
X141760900Y-95244600D01*
X147805300Y-125244700D02*
X146050000Y-127000000D01*
X134442200Y-88811100D02*
X138812000Y-88811100D01*
X141760900Y-95244600D02*
X145576300Y-99060000D01*
X146507200Y-99060000D02*
X147805300Y-100358100D01*
X133261100Y-87630000D02*
X134442200Y-88811100D01*
X147805300Y-100358100D02*
X147805300Y-125244700D01*
X138812000Y-88811100D02*
X141760900Y-91760000D01*
X132080000Y-87630000D02*
X133261100Y-87630000D01*
X145576300Y-99060000D02*
X146507200Y-99060000D01*
X125184500Y-97790000D02*
X146050000Y-118655500D01*
X124460000Y-97790000D02*
X125184500Y-97790000D01*
X146050000Y-118655500D02*
X146050000Y-119380000D01*
X90042200Y-90386700D02*
X90258900Y-90170000D01*
X87933300Y-90386700D02*
X90042200Y-90386700D01*
X91440000Y-90170000D02*
X90258900Y-90170000D01*
X146050000Y-87630000D02*
X138430000Y-87630000D01*
M02*
