G04 #@! TF.GenerationSoftware,KiCad,Pcbnew,(6.0.2-0)*
G04 #@! TF.CreationDate,2023-05-16T15:47:17+01:00*
G04 #@! TF.ProjectId,cpc6128_rom_board,63706336-3132-4385-9f72-6f6d5f626f61,1*
G04 #@! TF.SameCoordinates,Original*
G04 #@! TF.FileFunction,Soldermask,Bot*
G04 #@! TF.FilePolarity,Negative*
%FSLAX46Y46*%
G04 Gerber Fmt 4.6, Leading zero omitted, Abs format (unit mm)*
G04 Created by KiCad (PCBNEW (6.0.2-0)) date 2023-05-16 15:47:17*
%MOMM*%
%LPD*%
G01*
G04 APERTURE LIST*
G04 Aperture macros list*
%AMRoundRect*
0 Rectangle with rounded corners*
0 $1 Rounding radius*
0 $2 $3 $4 $5 $6 $7 $8 $9 X,Y pos of 4 corners*
0 Add a 4 corners polygon primitive as box body*
4,1,4,$2,$3,$4,$5,$6,$7,$8,$9,$2,$3,0*
0 Add four circle primitives for the rounded corners*
1,1,$1+$1,$2,$3*
1,1,$1+$1,$4,$5*
1,1,$1+$1,$6,$7*
1,1,$1+$1,$8,$9*
0 Add four rect primitives between the rounded corners*
20,1,$1+$1,$2,$3,$4,$5,0*
20,1,$1+$1,$4,$5,$6,$7,0*
20,1,$1+$1,$6,$7,$8,$9,0*
20,1,$1+$1,$8,$9,$2,$3,0*%
G04 Aperture macros list end*
%ADD10C,1.600000*%
%ADD11O,3.000000X2.500000*%
%ADD12R,1.600000X1.600000*%
%ADD13O,1.600000X1.600000*%
%ADD14RoundRect,0.250000X0.600000X-0.600000X0.600000X0.600000X-0.600000X0.600000X-0.600000X-0.600000X0*%
%ADD15C,1.700000*%
%ADD16C,1.500000*%
%ADD17R,1.800000X1.800000*%
%ADD18O,1.800000X1.800000*%
%ADD19C,3.000000*%
%ADD20C,1.524000*%
%ADD21R,1.200000X1.200000*%
%ADD22C,1.200000*%
G04 APERTURE END LIST*
D10*
X69870000Y-110490000D03*
X72370000Y-110490000D03*
D11*
X107425000Y-53420000D03*
X119925000Y-53420000D03*
X107425000Y-58420000D03*
X119925000Y-58420000D03*
D12*
X83820000Y-114300000D03*
D13*
X83820000Y-116840000D03*
X83820000Y-119380000D03*
X83820000Y-121920000D03*
X83820000Y-124460000D03*
X83820000Y-127000000D03*
X83820000Y-129540000D03*
X83820000Y-132080000D03*
X91440000Y-132080000D03*
X91440000Y-129540000D03*
X91440000Y-127000000D03*
X91440000Y-124460000D03*
X91440000Y-121920000D03*
X91440000Y-119380000D03*
X91440000Y-116840000D03*
X91440000Y-114300000D03*
D11*
X145325000Y-141010000D03*
X132825000Y-141010000D03*
X132825000Y-146010000D03*
X145325000Y-146010000D03*
D10*
X52070000Y-133985000D03*
D13*
X52070000Y-126365000D03*
D14*
X57150000Y-148590000D03*
D15*
X57150000Y-146050000D03*
X59690000Y-148590000D03*
X59690000Y-146050000D03*
X62230000Y-148590000D03*
X62230000Y-146050000D03*
X64770000Y-148590000D03*
X64770000Y-146050000D03*
X67310000Y-148590000D03*
X67310000Y-146050000D03*
X69850000Y-148590000D03*
X69850000Y-146050000D03*
X72390000Y-148590000D03*
X72390000Y-146050000D03*
X74930000Y-148590000D03*
X74930000Y-146050000D03*
X77470000Y-148590000D03*
X77470000Y-146050000D03*
X80010000Y-148590000D03*
X80010000Y-146050000D03*
X82550000Y-148590000D03*
X82550000Y-146050000D03*
X85090000Y-148590000D03*
X85090000Y-146050000D03*
X87630000Y-148590000D03*
X87630000Y-146050000D03*
X90170000Y-148590000D03*
X90170000Y-146050000D03*
X92710000Y-148590000D03*
X92710000Y-146050000D03*
X95250000Y-148590000D03*
X95250000Y-146050000D03*
X97790000Y-148590000D03*
X97790000Y-146050000D03*
X100330000Y-148590000D03*
X100330000Y-146050000D03*
X102870000Y-148590000D03*
X102870000Y-146050000D03*
X105410000Y-148590000D03*
X105410000Y-146050000D03*
X107950000Y-148590000D03*
X107950000Y-146050000D03*
X110490000Y-148590000D03*
X110490000Y-146050000D03*
X113030000Y-148590000D03*
X113030000Y-146050000D03*
X115570000Y-148590000D03*
X115570000Y-146050000D03*
X118110000Y-148590000D03*
X118110000Y-146050000D03*
D10*
X62230000Y-133985000D03*
D13*
X62230000Y-126365000D03*
D10*
X70505000Y-80010000D03*
X73005000Y-80010000D03*
D12*
X83820000Y-85090000D03*
D13*
X83820000Y-87630000D03*
X83820000Y-90170000D03*
X83820000Y-92710000D03*
X83820000Y-95250000D03*
X83820000Y-97790000D03*
X83820000Y-100330000D03*
X83820000Y-102870000D03*
X91440000Y-102870000D03*
X91440000Y-100330000D03*
X91440000Y-97790000D03*
X91440000Y-95250000D03*
X91440000Y-92710000D03*
X91440000Y-90170000D03*
X91440000Y-87630000D03*
X91440000Y-85090000D03*
D10*
X46990000Y-133985000D03*
D13*
X46990000Y-126365000D03*
D16*
X47625000Y-98335000D03*
X47625000Y-93435000D03*
D10*
X84475000Y-80010000D03*
X86975000Y-80010000D03*
D12*
X69850000Y-85090000D03*
D13*
X69850000Y-87630000D03*
X69850000Y-90170000D03*
X69850000Y-92710000D03*
X69850000Y-95250000D03*
X69850000Y-97790000D03*
X69850000Y-100330000D03*
X69850000Y-102870000D03*
X77470000Y-102870000D03*
X77470000Y-100330000D03*
X77470000Y-97790000D03*
X77470000Y-95250000D03*
X77470000Y-92710000D03*
X77470000Y-90170000D03*
X77470000Y-87630000D03*
X77470000Y-85090000D03*
D17*
X114935000Y-133350000D03*
D18*
X114935000Y-125730000D03*
D11*
X123825000Y-40680000D03*
X136325000Y-40680000D03*
X136325000Y-45680000D03*
X123825000Y-45680000D03*
D10*
X83840000Y-109855000D03*
X86340000Y-109855000D03*
D19*
X153652900Y-37991100D03*
D10*
X47645000Y-105410000D03*
X50145000Y-105410000D03*
X47645000Y-107950000D03*
X50145000Y-107950000D03*
D12*
X53985000Y-85100000D03*
D13*
X53985000Y-87640000D03*
X53985000Y-90180000D03*
X53985000Y-92720000D03*
X53985000Y-95260000D03*
X53985000Y-97800000D03*
X53985000Y-100340000D03*
X53985000Y-102880000D03*
X53985000Y-105420000D03*
X53985000Y-107960000D03*
X53985000Y-110500000D03*
X53985000Y-113040000D03*
X53985000Y-115580000D03*
X53985000Y-118120000D03*
X61605000Y-118120000D03*
X61605000Y-115580000D03*
X61605000Y-113040000D03*
X61605000Y-110500000D03*
X61605000Y-107960000D03*
X61605000Y-105420000D03*
X61605000Y-102880000D03*
X61605000Y-100340000D03*
X61605000Y-97800000D03*
X61605000Y-95260000D03*
X61605000Y-92720000D03*
X61605000Y-90180000D03*
X61605000Y-87640000D03*
X61605000Y-85100000D03*
D12*
X138430000Y-114300000D03*
D13*
X138430000Y-116840000D03*
X138430000Y-119380000D03*
X138430000Y-121920000D03*
X138430000Y-124460000D03*
X138430000Y-127000000D03*
X138430000Y-129540000D03*
X146050000Y-129540000D03*
X146050000Y-127000000D03*
X146050000Y-124460000D03*
X146050000Y-121920000D03*
X146050000Y-119380000D03*
X146050000Y-116840000D03*
X146050000Y-114300000D03*
D10*
X107315000Y-125730000D03*
D13*
X107315000Y-133350000D03*
D10*
X102255000Y-80010000D03*
X104755000Y-80010000D03*
D12*
X138430000Y-85090000D03*
D13*
X138430000Y-87630000D03*
X138430000Y-90170000D03*
X138430000Y-92710000D03*
X138430000Y-95250000D03*
X138430000Y-97790000D03*
X138430000Y-100330000D03*
X146050000Y-100330000D03*
X146050000Y-97790000D03*
X146050000Y-95250000D03*
X146050000Y-92710000D03*
X146050000Y-90170000D03*
X146050000Y-87630000D03*
X146050000Y-85090000D03*
D10*
X124480000Y-109220000D03*
X126980000Y-109220000D03*
D12*
X100325000Y-84465000D03*
D13*
X100325000Y-87005000D03*
X100325000Y-89545000D03*
X100325000Y-92085000D03*
X100325000Y-94625000D03*
X100325000Y-97165000D03*
X100325000Y-99705000D03*
X100325000Y-102245000D03*
X100325000Y-104785000D03*
X100325000Y-107325000D03*
X100325000Y-109865000D03*
X100325000Y-112405000D03*
X100325000Y-114945000D03*
X100325000Y-117485000D03*
X115565000Y-117485000D03*
X115565000Y-114945000D03*
X115565000Y-112405000D03*
X115565000Y-109865000D03*
X115565000Y-107325000D03*
X115565000Y-104785000D03*
X115565000Y-102245000D03*
X115565000Y-99705000D03*
X115565000Y-97165000D03*
X115565000Y-94625000D03*
X115565000Y-92085000D03*
X115565000Y-89545000D03*
X115565000Y-87005000D03*
X115565000Y-84465000D03*
D20*
X69215000Y-64770000D03*
X66675000Y-64770000D03*
X64135000Y-64770000D03*
X61595000Y-64770000D03*
X59055000Y-64770000D03*
X56515000Y-64770000D03*
X53975000Y-64770000D03*
X51435000Y-64770000D03*
D12*
X69850000Y-114300000D03*
D13*
X69850000Y-116840000D03*
X69850000Y-119380000D03*
X69850000Y-121920000D03*
X69850000Y-124460000D03*
X69850000Y-127000000D03*
X69850000Y-129540000D03*
X77470000Y-129540000D03*
X77470000Y-127000000D03*
X77470000Y-124460000D03*
X77470000Y-121920000D03*
X77470000Y-119380000D03*
X77470000Y-116840000D03*
X77470000Y-114300000D03*
D19*
X41910000Y-154307000D03*
X153652900Y-154307000D03*
D21*
X112057400Y-78740000D03*
D22*
X114057400Y-78740000D03*
D12*
X124470000Y-114295000D03*
D13*
X124470000Y-116835000D03*
X124470000Y-119375000D03*
X124470000Y-121915000D03*
X124470000Y-124455000D03*
X124470000Y-126995000D03*
X124470000Y-129535000D03*
X132090000Y-129535000D03*
X132090000Y-126995000D03*
X132090000Y-124455000D03*
X132090000Y-121915000D03*
X132090000Y-119375000D03*
X132090000Y-116835000D03*
X132090000Y-114295000D03*
D20*
X84836000Y-45085000D03*
X87376000Y-45085000D03*
X89916000Y-45085000D03*
X92456000Y-45085000D03*
D11*
X140335000Y-53380000D03*
X152835000Y-53380000D03*
X152835000Y-58380000D03*
X140335000Y-58380000D03*
D10*
X124500000Y-80010000D03*
X127000000Y-80010000D03*
D12*
X124460000Y-85090000D03*
D13*
X124460000Y-87630000D03*
X124460000Y-90170000D03*
X124460000Y-92710000D03*
X124460000Y-95250000D03*
X124460000Y-97790000D03*
X124460000Y-100330000D03*
X132080000Y-100330000D03*
X132080000Y-97790000D03*
X132080000Y-95250000D03*
X132080000Y-92710000D03*
X132080000Y-90170000D03*
X132080000Y-87630000D03*
X132080000Y-85090000D03*
D21*
X56812400Y-78740000D03*
D22*
X58812400Y-78740000D03*
D11*
X136325000Y-66080000D03*
X123825000Y-66080000D03*
X136325000Y-71080000D03*
X123825000Y-71080000D03*
D10*
X139065000Y-80010000D03*
X141565000Y-80010000D03*
X101600000Y-133350000D03*
D13*
X101600000Y-125730000D03*
D10*
X139105000Y-109220000D03*
X141605000Y-109220000D03*
X65405000Y-102850000D03*
X65405000Y-100350000D03*
D19*
X41910000Y-37991100D03*
D10*
X57150000Y-133985000D03*
D13*
X57150000Y-126365000D03*
M02*
