M48
; DRILL file {KiCad (6.0.2-0)} date 2023 May 16, Tuesday 15:48:07
; FORMAT={-:-/ absolute / metric / decimal}
; #@! TF.CreationDate,2023-05-16T15:48:07+01:00
; #@! TF.GenerationSoftware,Kicad,Pcbnew,(6.0.2-0)
; #@! TF.FileFunction,Plated,1,2,PTH
FMAT,2
METRIC
; #@! TA.AperFunction,Plated,PTH,ViaDrill
T1C0.400
; #@! TA.AperFunction,Plated,PTH,ComponentDrill
T2C0.600
; #@! TA.AperFunction,Plated,PTH,ComponentDrill
T3C0.762
; #@! TA.AperFunction,Plated,PTH,ComponentDrill
T4C0.800
; #@! TA.AperFunction,Plated,PTH,ComponentDrill
T5C0.900
; #@! TA.AperFunction,Plated,PTH,ComponentDrill
T6C1.000
; #@! TA.AperFunction,Plated,PTH,ComponentDrill
T7C1.200
%
G90
G05
T1
X56.66Y-106.045
X63.5Y-113.03
X64.527Y-111.063
X64.624Y-74.93
X64.77Y-96.52
X64.77Y-128.336
X65.405Y-76.2
X69.18Y-108.646
X69.85Y-106.68
X72.644Y-116.84
X72.644Y-124.46
X72.644Y-133.096
X76.168Y-96.304
X79.756Y-107.696
X80.773Y-93.014
X82.775Y-108.709
X87.789Y-103.754
X87.84Y-129.076
X87.84Y-132.124
X87.884Y-126.51
X87.933Y-90.387
X89.474Y-137.69
X93.169Y-141.952
X94.592Y-88.396
X103.904Y-110.998
X103.904Y-117.348
X109.534Y-142.342
X121.285Y-146.05
X123.952Y-141.79
X124.46Y-149.352
X125.984Y-91.44
T2
X56.812Y-78.74
X58.812Y-78.74
X112.057Y-78.74
X114.057Y-78.74
T3
X51.435Y-64.77
X53.975Y-64.77
X56.515Y-64.77
X59.055Y-64.77
X61.595Y-64.77
X64.135Y-64.77
X66.675Y-64.77
X69.215Y-64.77
X84.836Y-45.085
X87.376Y-45.085
X89.916Y-45.085
X92.456Y-45.085
T4
X46.99Y-126.365
X46.99Y-133.985
X47.625Y-93.435
X47.625Y-98.335
X47.645Y-105.41
X47.645Y-107.95
X50.145Y-105.41
X50.145Y-107.95
X52.07Y-126.365
X52.07Y-133.985
X53.985Y-85.1
X53.985Y-87.64
X53.985Y-90.18
X53.985Y-92.72
X53.985Y-95.26
X53.985Y-97.8
X53.985Y-100.34
X53.985Y-102.88
X53.985Y-105.42
X53.985Y-107.96
X53.985Y-110.5
X53.985Y-113.04
X53.985Y-115.58
X53.985Y-118.12
X57.15Y-126.365
X57.15Y-133.985
X61.605Y-85.1
X61.605Y-87.64
X61.605Y-90.18
X61.605Y-92.72
X61.605Y-95.26
X61.605Y-97.8
X61.605Y-100.34
X61.605Y-102.88
X61.605Y-105.42
X61.605Y-107.96
X61.605Y-110.5
X61.605Y-113.04
X61.605Y-115.58
X61.605Y-118.12
X62.23Y-126.365
X62.23Y-133.985
X65.405Y-100.35
X65.405Y-102.85
X69.85Y-85.09
X69.85Y-87.63
X69.85Y-90.17
X69.85Y-92.71
X69.85Y-95.25
X69.85Y-97.79
X69.85Y-100.33
X69.85Y-102.87
X69.85Y-114.3
X69.85Y-116.84
X69.85Y-119.38
X69.85Y-121.92
X69.85Y-124.46
X69.85Y-127.0
X69.85Y-129.54
X69.87Y-110.49
X70.505Y-80.01
X72.37Y-110.49
X73.005Y-80.01
X77.47Y-85.09
X77.47Y-87.63
X77.47Y-90.17
X77.47Y-92.71
X77.47Y-95.25
X77.47Y-97.79
X77.47Y-100.33
X77.47Y-102.87
X77.47Y-114.3
X77.47Y-116.84
X77.47Y-119.38
X77.47Y-121.92
X77.47Y-124.46
X77.47Y-127.0
X77.47Y-129.54
X83.82Y-85.09
X83.82Y-87.63
X83.82Y-90.17
X83.82Y-92.71
X83.82Y-95.25
X83.82Y-97.79
X83.82Y-100.33
X83.82Y-102.87
X83.82Y-114.3
X83.82Y-116.84
X83.82Y-119.38
X83.82Y-121.92
X83.82Y-124.46
X83.82Y-127.0
X83.82Y-129.54
X83.82Y-132.08
X83.84Y-109.855
X84.475Y-80.01
X86.34Y-109.855
X86.975Y-80.01
X91.44Y-85.09
X91.44Y-87.63
X91.44Y-90.17
X91.44Y-92.71
X91.44Y-95.25
X91.44Y-97.79
X91.44Y-100.33
X91.44Y-102.87
X91.44Y-114.3
X91.44Y-116.84
X91.44Y-119.38
X91.44Y-121.92
X91.44Y-124.46
X91.44Y-127.0
X91.44Y-129.54
X91.44Y-132.08
X100.325Y-84.465
X100.325Y-87.005
X100.325Y-89.545
X100.325Y-92.085
X100.325Y-94.625
X100.325Y-97.165
X100.325Y-99.705
X100.325Y-102.245
X100.325Y-104.785
X100.325Y-107.325
X100.325Y-109.865
X100.325Y-112.405
X100.325Y-114.945
X100.325Y-117.485
X101.6Y-125.73
X101.6Y-133.35
X102.255Y-80.01
X104.755Y-80.01
X107.315Y-125.73
X107.315Y-133.35
X115.565Y-84.465
X115.565Y-87.005
X115.565Y-89.545
X115.565Y-92.085
X115.565Y-94.625
X115.565Y-97.165
X115.565Y-99.705
X115.565Y-102.245
X115.565Y-104.785
X115.565Y-107.325
X115.565Y-109.865
X115.565Y-112.405
X115.565Y-114.945
X115.565Y-117.485
X124.46Y-85.09
X124.46Y-87.63
X124.46Y-90.17
X124.46Y-92.71
X124.46Y-95.25
X124.46Y-97.79
X124.46Y-100.33
X124.47Y-114.295
X124.47Y-116.835
X124.47Y-119.375
X124.47Y-121.915
X124.47Y-124.455
X124.47Y-126.995
X124.47Y-129.535
X124.48Y-109.22
X124.5Y-80.01
X126.98Y-109.22
X127.0Y-80.01
X132.08Y-85.09
X132.08Y-87.63
X132.08Y-90.17
X132.08Y-92.71
X132.08Y-95.25
X132.08Y-97.79
X132.08Y-100.33
X132.09Y-114.295
X132.09Y-116.835
X132.09Y-119.375
X132.09Y-121.915
X132.09Y-124.455
X132.09Y-126.995
X132.09Y-129.535
X138.43Y-85.09
X138.43Y-87.63
X138.43Y-90.17
X138.43Y-92.71
X138.43Y-95.25
X138.43Y-97.79
X138.43Y-100.33
X138.43Y-114.3
X138.43Y-116.84
X138.43Y-119.38
X138.43Y-121.92
X138.43Y-124.46
X138.43Y-127.0
X138.43Y-129.54
X139.065Y-80.01
X139.105Y-109.22
X141.565Y-80.01
X141.605Y-109.22
X146.05Y-85.09
X146.05Y-87.63
X146.05Y-90.17
X146.05Y-92.71
X146.05Y-95.25
X146.05Y-97.79
X146.05Y-100.33
X146.05Y-114.3
X146.05Y-116.84
X146.05Y-119.38
X146.05Y-121.92
X146.05Y-124.46
X146.05Y-127.0
X146.05Y-129.54
T5
X114.935Y-125.73
X114.935Y-133.35
T6
X57.15Y-146.05
X57.15Y-148.59
X59.69Y-146.05
X59.69Y-148.59
X62.23Y-146.05
X62.23Y-148.59
X64.77Y-146.05
X64.77Y-148.59
X67.31Y-146.05
X67.31Y-148.59
X69.85Y-146.05
X69.85Y-148.59
X72.39Y-146.05
X72.39Y-148.59
X74.93Y-146.05
X74.93Y-148.59
X77.47Y-146.05
X77.47Y-148.59
X80.01Y-146.05
X80.01Y-148.59
X82.55Y-146.05
X82.55Y-148.59
X85.09Y-146.05
X85.09Y-148.59
X87.63Y-146.05
X87.63Y-148.59
X90.17Y-146.05
X90.17Y-148.59
X92.71Y-146.05
X92.71Y-148.59
X95.25Y-146.05
X95.25Y-148.59
X97.79Y-146.05
X97.79Y-148.59
X100.33Y-146.05
X100.33Y-148.59
X102.87Y-146.05
X102.87Y-148.59
X105.41Y-146.05
X105.41Y-148.59
X107.95Y-146.05
X107.95Y-148.59
X110.49Y-146.05
X110.49Y-148.59
X113.03Y-146.05
X113.03Y-148.59
X115.57Y-146.05
X115.57Y-148.59
X118.11Y-146.05
X118.11Y-148.59
T7
X107.425Y-53.42
X107.425Y-58.42
X119.925Y-53.42
X119.925Y-58.42
X123.825Y-40.68
X123.825Y-45.68
X123.825Y-66.08
X123.825Y-71.08
X132.825Y-141.01
X132.825Y-146.01
X136.325Y-40.68
X136.325Y-45.68
X136.325Y-66.08
X136.325Y-71.08
X140.335Y-53.38
X140.335Y-58.38
X145.325Y-141.01
X145.325Y-146.01
X152.835Y-53.38
X152.835Y-58.38
T0
M30
