G04 #@! TF.GenerationSoftware,KiCad,Pcbnew,(6.0.2-0)*
G04 #@! TF.CreationDate,2023-05-16T15:47:16+01:00*
G04 #@! TF.ProjectId,cpc6128_rom_board,63706336-3132-4385-9f72-6f6d5f626f61,1*
G04 #@! TF.SameCoordinates,Original*
G04 #@! TF.FileFunction,Legend,Top*
G04 #@! TF.FilePolarity,Positive*
%FSLAX46Y46*%
G04 Gerber Fmt 4.6, Leading zero omitted, Abs format (unit mm)*
G04 Created by KiCad (PCBNEW (6.0.2-0)) date 2023-05-16 15:47:16*
%MOMM*%
%LPD*%
G01*
G04 APERTURE LIST*
G04 Aperture macros list*
%AMRoundRect*
0 Rectangle with rounded corners*
0 $1 Rounding radius*
0 $2 $3 $4 $5 $6 $7 $8 $9 X,Y pos of 4 corners*
0 Add a 4 corners polygon primitive as box body*
4,1,4,$2,$3,$4,$5,$6,$7,$8,$9,$2,$3,0*
0 Add four circle primitives for the rounded corners*
1,1,$1+$1,$2,$3*
1,1,$1+$1,$4,$5*
1,1,$1+$1,$6,$7*
1,1,$1+$1,$8,$9*
0 Add four rect primitives between the rounded corners*
20,1,$1+$1,$2,$3,$4,$5,0*
20,1,$1+$1,$4,$5,$6,$7,0*
20,1,$1+$1,$6,$7,$8,$9,0*
20,1,$1+$1,$8,$9,$2,$3,0*%
G04 Aperture macros list end*
%ADD10C,0.300000*%
%ADD11C,0.150000*%
%ADD12C,0.120000*%
%ADD13C,1.600000*%
%ADD14O,3.000000X2.500000*%
%ADD15R,1.600000X1.600000*%
%ADD16O,1.600000X1.600000*%
%ADD17RoundRect,0.250000X0.600000X-0.600000X0.600000X0.600000X-0.600000X0.600000X-0.600000X-0.600000X0*%
%ADD18C,1.700000*%
%ADD19C,1.500000*%
%ADD20R,1.800000X1.800000*%
%ADD21O,1.800000X1.800000*%
%ADD22C,3.000000*%
%ADD23C,1.524000*%
%ADD24R,1.200000X1.200000*%
%ADD25C,1.200000*%
G04 APERTURE END LIST*
D10*
X83129285Y-37205000D02*
X83843571Y-37205000D01*
X82986428Y-37633571D02*
X83486428Y-36133571D01*
X83986428Y-37633571D01*
X84486428Y-37633571D02*
X84486428Y-36633571D01*
X84486428Y-36776428D02*
X84557857Y-36705000D01*
X84700714Y-36633571D01*
X84915000Y-36633571D01*
X85057857Y-36705000D01*
X85129285Y-36847857D01*
X85129285Y-37633571D01*
X85129285Y-36847857D02*
X85200714Y-36705000D01*
X85343571Y-36633571D01*
X85557857Y-36633571D01*
X85700714Y-36705000D01*
X85772142Y-36847857D01*
X85772142Y-37633571D01*
X86415000Y-37562142D02*
X86557857Y-37633571D01*
X86843571Y-37633571D01*
X86986428Y-37562142D01*
X87057857Y-37419285D01*
X87057857Y-37347857D01*
X86986428Y-37205000D01*
X86843571Y-37133571D01*
X86629285Y-37133571D01*
X86486428Y-37062142D01*
X86415000Y-36919285D01*
X86415000Y-36847857D01*
X86486428Y-36705000D01*
X86629285Y-36633571D01*
X86843571Y-36633571D01*
X86986428Y-36705000D01*
X87486428Y-36633571D02*
X88057857Y-36633571D01*
X87700714Y-36133571D02*
X87700714Y-37419285D01*
X87772142Y-37562142D01*
X87915000Y-37633571D01*
X88057857Y-37633571D01*
X88557857Y-37633571D02*
X88557857Y-36633571D01*
X88557857Y-36919285D02*
X88629285Y-36776428D01*
X88700714Y-36705000D01*
X88843571Y-36633571D01*
X88986428Y-36633571D01*
X90129285Y-37633571D02*
X90129285Y-36847857D01*
X90057857Y-36705000D01*
X89915000Y-36633571D01*
X89629285Y-36633571D01*
X89486428Y-36705000D01*
X90129285Y-37562142D02*
X89986428Y-37633571D01*
X89629285Y-37633571D01*
X89486428Y-37562142D01*
X89415000Y-37419285D01*
X89415000Y-37276428D01*
X89486428Y-37133571D01*
X89629285Y-37062142D01*
X89986428Y-37062142D01*
X90129285Y-36990714D01*
X91486428Y-37633571D02*
X91486428Y-36133571D01*
X91486428Y-37562142D02*
X91343571Y-37633571D01*
X91057857Y-37633571D01*
X90915000Y-37562142D01*
X90843571Y-37490714D01*
X90772142Y-37347857D01*
X90772142Y-36919285D01*
X90843571Y-36776428D01*
X90915000Y-36705000D01*
X91057857Y-36633571D01*
X91343571Y-36633571D01*
X91486428Y-36705000D01*
X94200714Y-37490714D02*
X94129285Y-37562142D01*
X93915000Y-37633571D01*
X93772142Y-37633571D01*
X93557857Y-37562142D01*
X93415000Y-37419285D01*
X93343571Y-37276428D01*
X93272142Y-36990714D01*
X93272142Y-36776428D01*
X93343571Y-36490714D01*
X93415000Y-36347857D01*
X93557857Y-36205000D01*
X93772142Y-36133571D01*
X93915000Y-36133571D01*
X94129285Y-36205000D01*
X94200714Y-36276428D01*
X94843571Y-37633571D02*
X94843571Y-36133571D01*
X95415000Y-36133571D01*
X95557857Y-36205000D01*
X95629285Y-36276428D01*
X95700714Y-36419285D01*
X95700714Y-36633571D01*
X95629285Y-36776428D01*
X95557857Y-36847857D01*
X95415000Y-36919285D01*
X94843571Y-36919285D01*
X97200714Y-37490714D02*
X97129285Y-37562142D01*
X96915000Y-37633571D01*
X96772142Y-37633571D01*
X96557857Y-37562142D01*
X96415000Y-37419285D01*
X96343571Y-37276428D01*
X96272142Y-36990714D01*
X96272142Y-36776428D01*
X96343571Y-36490714D01*
X96415000Y-36347857D01*
X96557857Y-36205000D01*
X96772142Y-36133571D01*
X96915000Y-36133571D01*
X97129285Y-36205000D01*
X97200714Y-36276428D01*
X99629285Y-36133571D02*
X99343571Y-36133571D01*
X99200714Y-36205000D01*
X99129285Y-36276428D01*
X98986428Y-36490714D01*
X98915000Y-36776428D01*
X98915000Y-37347857D01*
X98986428Y-37490714D01*
X99057857Y-37562142D01*
X99200714Y-37633571D01*
X99486428Y-37633571D01*
X99629285Y-37562142D01*
X99700714Y-37490714D01*
X99772142Y-37347857D01*
X99772142Y-36990714D01*
X99700714Y-36847857D01*
X99629285Y-36776428D01*
X99486428Y-36705000D01*
X99200714Y-36705000D01*
X99057857Y-36776428D01*
X98986428Y-36847857D01*
X98915000Y-36990714D01*
X101200714Y-37633571D02*
X100343571Y-37633571D01*
X100772142Y-37633571D02*
X100772142Y-36133571D01*
X100629285Y-36347857D01*
X100486428Y-36490714D01*
X100343571Y-36562142D01*
X101772142Y-36276428D02*
X101843571Y-36205000D01*
X101986428Y-36133571D01*
X102343571Y-36133571D01*
X102486428Y-36205000D01*
X102557857Y-36276428D01*
X102629285Y-36419285D01*
X102629285Y-36562142D01*
X102557857Y-36776428D01*
X101700714Y-37633571D01*
X102629285Y-37633571D01*
X103486428Y-36776428D02*
X103343571Y-36705000D01*
X103272142Y-36633571D01*
X103200714Y-36490714D01*
X103200714Y-36419285D01*
X103272142Y-36276428D01*
X103343571Y-36205000D01*
X103486428Y-36133571D01*
X103772142Y-36133571D01*
X103915000Y-36205000D01*
X103986428Y-36276428D01*
X104057857Y-36419285D01*
X104057857Y-36490714D01*
X103986428Y-36633571D01*
X103915000Y-36705000D01*
X103772142Y-36776428D01*
X103486428Y-36776428D01*
X103343571Y-36847857D01*
X103272142Y-36919285D01*
X103200714Y-37062142D01*
X103200714Y-37347857D01*
X103272142Y-37490714D01*
X103343571Y-37562142D01*
X103486428Y-37633571D01*
X103772142Y-37633571D01*
X103915000Y-37562142D01*
X103986428Y-37490714D01*
X104057857Y-37347857D01*
X104057857Y-37062142D01*
X103986428Y-36919285D01*
X103915000Y-36847857D01*
X103772142Y-36776428D01*
X106700714Y-37633571D02*
X106200714Y-36919285D01*
X105843571Y-37633571D02*
X105843571Y-36133571D01*
X106415000Y-36133571D01*
X106557857Y-36205000D01*
X106629285Y-36276428D01*
X106700714Y-36419285D01*
X106700714Y-36633571D01*
X106629285Y-36776428D01*
X106557857Y-36847857D01*
X106415000Y-36919285D01*
X105843571Y-36919285D01*
X107629285Y-36133571D02*
X107915000Y-36133571D01*
X108057857Y-36205000D01*
X108200714Y-36347857D01*
X108272142Y-36633571D01*
X108272142Y-37133571D01*
X108200714Y-37419285D01*
X108057857Y-37562142D01*
X107915000Y-37633571D01*
X107629285Y-37633571D01*
X107486428Y-37562142D01*
X107343571Y-37419285D01*
X107272142Y-37133571D01*
X107272142Y-36633571D01*
X107343571Y-36347857D01*
X107486428Y-36205000D01*
X107629285Y-36133571D01*
X108915000Y-37633571D02*
X108915000Y-36133571D01*
X109415000Y-37205000D01*
X109915000Y-36133571D01*
X109915000Y-37633571D01*
X112272142Y-36847857D02*
X112486428Y-36919285D01*
X112557857Y-36990714D01*
X112629285Y-37133571D01*
X112629285Y-37347857D01*
X112557857Y-37490714D01*
X112486428Y-37562142D01*
X112343571Y-37633571D01*
X111772142Y-37633571D01*
X111772142Y-36133571D01*
X112272142Y-36133571D01*
X112415000Y-36205000D01*
X112486428Y-36276428D01*
X112557857Y-36419285D01*
X112557857Y-36562142D01*
X112486428Y-36705000D01*
X112415000Y-36776428D01*
X112272142Y-36847857D01*
X111772142Y-36847857D01*
X113486428Y-37633571D02*
X113343571Y-37562142D01*
X113272142Y-37490714D01*
X113200714Y-37347857D01*
X113200714Y-36919285D01*
X113272142Y-36776428D01*
X113343571Y-36705000D01*
X113486428Y-36633571D01*
X113700714Y-36633571D01*
X113843571Y-36705000D01*
X113915000Y-36776428D01*
X113986428Y-36919285D01*
X113986428Y-37347857D01*
X113915000Y-37490714D01*
X113843571Y-37562142D01*
X113700714Y-37633571D01*
X113486428Y-37633571D01*
X115272142Y-37633571D02*
X115272142Y-36847857D01*
X115200714Y-36705000D01*
X115057857Y-36633571D01*
X114772142Y-36633571D01*
X114629285Y-36705000D01*
X115272142Y-37562142D02*
X115129285Y-37633571D01*
X114772142Y-37633571D01*
X114629285Y-37562142D01*
X114557857Y-37419285D01*
X114557857Y-37276428D01*
X114629285Y-37133571D01*
X114772142Y-37062142D01*
X115129285Y-37062142D01*
X115272142Y-36990714D01*
X115986428Y-37633571D02*
X115986428Y-36633571D01*
X115986428Y-36919285D02*
X116057857Y-36776428D01*
X116129285Y-36705000D01*
X116272142Y-36633571D01*
X116415000Y-36633571D01*
X117557857Y-37633571D02*
X117557857Y-36133571D01*
X117557857Y-37562142D02*
X117415000Y-37633571D01*
X117129285Y-37633571D01*
X116986428Y-37562142D01*
X116915000Y-37490714D01*
X116843571Y-37347857D01*
X116843571Y-36919285D01*
X116915000Y-36776428D01*
X116986428Y-36705000D01*
X117129285Y-36633571D01*
X117415000Y-36633571D01*
X117557857Y-36705000D01*
X103629285Y-40048571D02*
X103629285Y-39048571D01*
X103629285Y-39334285D02*
X103700714Y-39191428D01*
X103772142Y-39120000D01*
X103915000Y-39048571D01*
X104057857Y-39048571D01*
X105129285Y-39977142D02*
X104986428Y-40048571D01*
X104700714Y-40048571D01*
X104557857Y-39977142D01*
X104486428Y-39834285D01*
X104486428Y-39262857D01*
X104557857Y-39120000D01*
X104700714Y-39048571D01*
X104986428Y-39048571D01*
X105129285Y-39120000D01*
X105200714Y-39262857D01*
X105200714Y-39405714D01*
X104486428Y-39548571D01*
X105700714Y-39048571D02*
X106057857Y-40048571D01*
X106415000Y-39048571D01*
X107772142Y-40048571D02*
X106915000Y-40048571D01*
X107343571Y-40048571D02*
X107343571Y-38548571D01*
X107200714Y-38762857D01*
X107057857Y-38905714D01*
X106915000Y-38977142D01*
X109557857Y-39477142D02*
X110700714Y-39477142D01*
X112486428Y-38691428D02*
X112557857Y-38620000D01*
X112700714Y-38548571D01*
X113057857Y-38548571D01*
X113200714Y-38620000D01*
X113272142Y-38691428D01*
X113343571Y-38834285D01*
X113343571Y-38977142D01*
X113272142Y-39191428D01*
X112415000Y-40048571D01*
X113343571Y-40048571D01*
X114272142Y-38548571D02*
X114415000Y-38548571D01*
X114557857Y-38620000D01*
X114629285Y-38691428D01*
X114700714Y-38834285D01*
X114772142Y-39120000D01*
X114772142Y-39477142D01*
X114700714Y-39762857D01*
X114629285Y-39905714D01*
X114557857Y-39977142D01*
X114415000Y-40048571D01*
X114272142Y-40048571D01*
X114129285Y-39977142D01*
X114057857Y-39905714D01*
X113986428Y-39762857D01*
X113915000Y-39477142D01*
X113915000Y-39120000D01*
X113986428Y-38834285D01*
X114057857Y-38691428D01*
X114129285Y-38620000D01*
X114272142Y-38548571D01*
X115343571Y-38691428D02*
X115415000Y-38620000D01*
X115557857Y-38548571D01*
X115915000Y-38548571D01*
X116057857Y-38620000D01*
X116129285Y-38691428D01*
X116200714Y-38834285D01*
X116200714Y-38977142D01*
X116129285Y-39191428D01*
X115272142Y-40048571D01*
X116200714Y-40048571D01*
X116700714Y-38548571D02*
X117629285Y-38548571D01*
X117129285Y-39120000D01*
X117343571Y-39120000D01*
X117486428Y-39191428D01*
X117557857Y-39262857D01*
X117629285Y-39405714D01*
X117629285Y-39762857D01*
X117557857Y-39905714D01*
X117486428Y-39977142D01*
X117343571Y-40048571D01*
X116915000Y-40048571D01*
X116772142Y-39977142D01*
X116700714Y-39905714D01*
X104272142Y-41677857D02*
X104486428Y-41749285D01*
X104557857Y-41820714D01*
X104629285Y-41963571D01*
X104629285Y-42177857D01*
X104557857Y-42320714D01*
X104486428Y-42392142D01*
X104343571Y-42463571D01*
X103772142Y-42463571D01*
X103772142Y-40963571D01*
X104272142Y-40963571D01*
X104415000Y-41035000D01*
X104486428Y-41106428D01*
X104557857Y-41249285D01*
X104557857Y-41392142D01*
X104486428Y-41535000D01*
X104415000Y-41606428D01*
X104272142Y-41677857D01*
X103772142Y-41677857D01*
X105272142Y-42463571D02*
X105272142Y-41463571D01*
X105272142Y-41749285D02*
X105343571Y-41606428D01*
X105415000Y-41535000D01*
X105557857Y-41463571D01*
X105700714Y-41463571D01*
X106843571Y-41463571D02*
X106843571Y-42463571D01*
X106200714Y-41463571D02*
X106200714Y-42249285D01*
X106272142Y-42392142D01*
X106415000Y-42463571D01*
X106629285Y-42463571D01*
X106772142Y-42392142D01*
X106843571Y-42320714D01*
X107557857Y-41463571D02*
X107557857Y-42463571D01*
X107557857Y-41606428D02*
X107629285Y-41535000D01*
X107772142Y-41463571D01*
X107986428Y-41463571D01*
X108129285Y-41535000D01*
X108200714Y-41677857D01*
X108200714Y-42463571D01*
X109129285Y-42463571D02*
X108986428Y-42392142D01*
X108915000Y-42320714D01*
X108843571Y-42177857D01*
X108843571Y-41749285D01*
X108915000Y-41606428D01*
X108986428Y-41535000D01*
X109129285Y-41463571D01*
X109343571Y-41463571D01*
X109486428Y-41535000D01*
X109557857Y-41606428D01*
X109629285Y-41749285D01*
X109629285Y-42177857D01*
X109557857Y-42320714D01*
X109486428Y-42392142D01*
X109343571Y-42463571D01*
X109129285Y-42463571D01*
X112272142Y-42320714D02*
X112200714Y-42392142D01*
X111986428Y-42463571D01*
X111843571Y-42463571D01*
X111629285Y-42392142D01*
X111486428Y-42249285D01*
X111415000Y-42106428D01*
X111343571Y-41820714D01*
X111343571Y-41606428D01*
X111415000Y-41320714D01*
X111486428Y-41177857D01*
X111629285Y-41035000D01*
X111843571Y-40963571D01*
X111986428Y-40963571D01*
X112200714Y-41035000D01*
X112272142Y-41106428D01*
X113129285Y-42463571D02*
X112986428Y-42392142D01*
X112915000Y-42320714D01*
X112843571Y-42177857D01*
X112843571Y-41749285D01*
X112915000Y-41606428D01*
X112986428Y-41535000D01*
X113129285Y-41463571D01*
X113343571Y-41463571D01*
X113486428Y-41535000D01*
X113557857Y-41606428D01*
X113629285Y-41749285D01*
X113629285Y-42177857D01*
X113557857Y-42320714D01*
X113486428Y-42392142D01*
X113343571Y-42463571D01*
X113129285Y-42463571D01*
X114272142Y-41463571D02*
X114272142Y-42463571D01*
X114272142Y-41606428D02*
X114343571Y-41535000D01*
X114486428Y-41463571D01*
X114700714Y-41463571D01*
X114843571Y-41535000D01*
X114915000Y-41677857D01*
X114915000Y-42463571D01*
X116272142Y-42463571D02*
X116272142Y-40963571D01*
X116272142Y-42392142D02*
X116129285Y-42463571D01*
X115843571Y-42463571D01*
X115700714Y-42392142D01*
X115629285Y-42320714D01*
X115557857Y-42177857D01*
X115557857Y-41749285D01*
X115629285Y-41606428D01*
X115700714Y-41535000D01*
X115843571Y-41463571D01*
X116129285Y-41463571D01*
X116272142Y-41535000D01*
X117557857Y-42392142D02*
X117415000Y-42463571D01*
X117129285Y-42463571D01*
X116986428Y-42392142D01*
X116915000Y-42249285D01*
X116915000Y-41677857D01*
X116986428Y-41535000D01*
X117129285Y-41463571D01*
X117415000Y-41463571D01*
X117557857Y-41535000D01*
X117629285Y-41677857D01*
X117629285Y-41820714D01*
X116915000Y-41963571D01*
D11*
X70477142Y-108797142D02*
X70429523Y-108844761D01*
X70286666Y-108892380D01*
X70191428Y-108892380D01*
X70048571Y-108844761D01*
X69953333Y-108749523D01*
X69905714Y-108654285D01*
X69858095Y-108463809D01*
X69858095Y-108320952D01*
X69905714Y-108130476D01*
X69953333Y-108035238D01*
X70048571Y-107940000D01*
X70191428Y-107892380D01*
X70286666Y-107892380D01*
X70429523Y-107940000D01*
X70477142Y-107987619D01*
X71429523Y-108892380D02*
X70858095Y-108892380D01*
X71143809Y-108892380D02*
X71143809Y-107892380D01*
X71048571Y-108035238D01*
X70953333Y-108130476D01*
X70858095Y-108178095D01*
X72286666Y-108225714D02*
X72286666Y-108892380D01*
X72048571Y-107844761D02*
X71810476Y-108559047D01*
X72429523Y-108559047D01*
X112441666Y-49164761D02*
X112584523Y-49212380D01*
X112822619Y-49212380D01*
X112917857Y-49164761D01*
X112965476Y-49117142D01*
X113013095Y-49021904D01*
X113013095Y-48926666D01*
X112965476Y-48831428D01*
X112917857Y-48783809D01*
X112822619Y-48736190D01*
X112632142Y-48688571D01*
X112536904Y-48640952D01*
X112489285Y-48593333D01*
X112441666Y-48498095D01*
X112441666Y-48402857D01*
X112489285Y-48307619D01*
X112536904Y-48260000D01*
X112632142Y-48212380D01*
X112870238Y-48212380D01*
X113013095Y-48260000D01*
X113346428Y-48212380D02*
X113584523Y-49212380D01*
X113775000Y-48498095D01*
X113965476Y-49212380D01*
X114203571Y-48212380D01*
X115013095Y-48545714D02*
X115013095Y-49212380D01*
X114775000Y-48164761D02*
X114536904Y-48879047D01*
X115155952Y-48879047D01*
X86868095Y-111422380D02*
X86868095Y-112231904D01*
X86915714Y-112327142D01*
X86963333Y-112374761D01*
X87058571Y-112422380D01*
X87249047Y-112422380D01*
X87344285Y-112374761D01*
X87391904Y-112327142D01*
X87439523Y-112231904D01*
X87439523Y-111422380D01*
X88058571Y-111850952D02*
X87963333Y-111803333D01*
X87915714Y-111755714D01*
X87868095Y-111660476D01*
X87868095Y-111612857D01*
X87915714Y-111517619D01*
X87963333Y-111470000D01*
X88058571Y-111422380D01*
X88249047Y-111422380D01*
X88344285Y-111470000D01*
X88391904Y-111517619D01*
X88439523Y-111612857D01*
X88439523Y-111660476D01*
X88391904Y-111755714D01*
X88344285Y-111803333D01*
X88249047Y-111850952D01*
X88058571Y-111850952D01*
X87963333Y-111898571D01*
X87915714Y-111946190D01*
X87868095Y-112041428D01*
X87868095Y-112231904D01*
X87915714Y-112327142D01*
X87963333Y-112374761D01*
X88058571Y-112422380D01*
X88249047Y-112422380D01*
X88344285Y-112374761D01*
X88391904Y-112327142D01*
X88439523Y-112231904D01*
X88439523Y-112041428D01*
X88391904Y-111946190D01*
X88344285Y-111898571D01*
X88249047Y-111850952D01*
X137841666Y-136754761D02*
X137984523Y-136802380D01*
X138222619Y-136802380D01*
X138317857Y-136754761D01*
X138365476Y-136707142D01*
X138413095Y-136611904D01*
X138413095Y-136516666D01*
X138365476Y-136421428D01*
X138317857Y-136373809D01*
X138222619Y-136326190D01*
X138032142Y-136278571D01*
X137936904Y-136230952D01*
X137889285Y-136183333D01*
X137841666Y-136088095D01*
X137841666Y-135992857D01*
X137889285Y-135897619D01*
X137936904Y-135850000D01*
X138032142Y-135802380D01*
X138270238Y-135802380D01*
X138413095Y-135850000D01*
X138746428Y-135802380D02*
X138984523Y-136802380D01*
X139175000Y-136088095D01*
X139365476Y-136802380D01*
X139603571Y-135802380D01*
X140508333Y-136802380D02*
X139936904Y-136802380D01*
X140222619Y-136802380D02*
X140222619Y-135802380D01*
X140127380Y-135945238D01*
X140032142Y-136040476D01*
X139936904Y-136088095D01*
X50152380Y-130341666D02*
X49676190Y-130675000D01*
X50152380Y-130913095D02*
X49152380Y-130913095D01*
X49152380Y-130532142D01*
X49200000Y-130436904D01*
X49247619Y-130389285D01*
X49342857Y-130341666D01*
X49485714Y-130341666D01*
X49580952Y-130389285D01*
X49628571Y-130436904D01*
X49676190Y-130532142D01*
X49676190Y-130913095D01*
X49247619Y-129960714D02*
X49200000Y-129913095D01*
X49152380Y-129817857D01*
X49152380Y-129579761D01*
X49200000Y-129484523D01*
X49247619Y-129436904D01*
X49342857Y-129389285D01*
X49438095Y-129389285D01*
X49580952Y-129436904D01*
X50152380Y-130008333D01*
X50152380Y-129389285D01*
X50502380Y-147653333D02*
X51216666Y-147653333D01*
X51359523Y-147700952D01*
X51454761Y-147796190D01*
X51502380Y-147939047D01*
X51502380Y-148034285D01*
X51502380Y-146653333D02*
X51502380Y-147224761D01*
X51502380Y-146939047D02*
X50502380Y-146939047D01*
X50645238Y-147034285D01*
X50740476Y-147129523D01*
X50788095Y-147224761D01*
X60312380Y-130341666D02*
X59836190Y-130675000D01*
X60312380Y-130913095D02*
X59312380Y-130913095D01*
X59312380Y-130532142D01*
X59360000Y-130436904D01*
X59407619Y-130389285D01*
X59502857Y-130341666D01*
X59645714Y-130341666D01*
X59740952Y-130389285D01*
X59788571Y-130436904D01*
X59836190Y-130532142D01*
X59836190Y-130913095D01*
X59645714Y-129484523D02*
X60312380Y-129484523D01*
X59264761Y-129722619D02*
X59979047Y-129960714D01*
X59979047Y-129341666D01*
X71588333Y-78317142D02*
X71540714Y-78364761D01*
X71397857Y-78412380D01*
X71302619Y-78412380D01*
X71159761Y-78364761D01*
X71064523Y-78269523D01*
X71016904Y-78174285D01*
X70969285Y-77983809D01*
X70969285Y-77840952D01*
X71016904Y-77650476D01*
X71064523Y-77555238D01*
X71159761Y-77460000D01*
X71302619Y-77412380D01*
X71397857Y-77412380D01*
X71540714Y-77460000D01*
X71588333Y-77507619D01*
X72159761Y-77840952D02*
X72064523Y-77793333D01*
X72016904Y-77745714D01*
X71969285Y-77650476D01*
X71969285Y-77602857D01*
X72016904Y-77507619D01*
X72064523Y-77460000D01*
X72159761Y-77412380D01*
X72350238Y-77412380D01*
X72445476Y-77460000D01*
X72493095Y-77507619D01*
X72540714Y-77602857D01*
X72540714Y-77650476D01*
X72493095Y-77745714D01*
X72445476Y-77793333D01*
X72350238Y-77840952D01*
X72159761Y-77840952D01*
X72064523Y-77888571D01*
X72016904Y-77936190D01*
X71969285Y-78031428D01*
X71969285Y-78221904D01*
X72016904Y-78317142D01*
X72064523Y-78364761D01*
X72159761Y-78412380D01*
X72350238Y-78412380D01*
X72445476Y-78364761D01*
X72493095Y-78317142D01*
X72540714Y-78221904D01*
X72540714Y-78031428D01*
X72493095Y-77936190D01*
X72445476Y-77888571D01*
X72350238Y-77840952D01*
X86868095Y-82212380D02*
X86868095Y-83021904D01*
X86915714Y-83117142D01*
X86963333Y-83164761D01*
X87058571Y-83212380D01*
X87249047Y-83212380D01*
X87344285Y-83164761D01*
X87391904Y-83117142D01*
X87439523Y-83021904D01*
X87439523Y-82212380D01*
X88344285Y-82212380D02*
X88153809Y-82212380D01*
X88058571Y-82260000D01*
X88010952Y-82307619D01*
X87915714Y-82450476D01*
X87868095Y-82640952D01*
X87868095Y-83021904D01*
X87915714Y-83117142D01*
X87963333Y-83164761D01*
X88058571Y-83212380D01*
X88249047Y-83212380D01*
X88344285Y-83164761D01*
X88391904Y-83117142D01*
X88439523Y-83021904D01*
X88439523Y-82783809D01*
X88391904Y-82688571D01*
X88344285Y-82640952D01*
X88249047Y-82593333D01*
X88058571Y-82593333D01*
X87963333Y-82640952D01*
X87915714Y-82688571D01*
X87868095Y-82783809D01*
X45072380Y-130341666D02*
X44596190Y-130675000D01*
X45072380Y-130913095D02*
X44072380Y-130913095D01*
X44072380Y-130532142D01*
X44120000Y-130436904D01*
X44167619Y-130389285D01*
X44262857Y-130341666D01*
X44405714Y-130341666D01*
X44500952Y-130389285D01*
X44548571Y-130436904D01*
X44596190Y-130532142D01*
X44596190Y-130913095D01*
X45072380Y-129389285D02*
X45072380Y-129960714D01*
X45072380Y-129675000D02*
X44072380Y-129675000D01*
X44215238Y-129770238D01*
X44310476Y-129865476D01*
X44358095Y-129960714D01*
X44076190Y-96361190D02*
X44552380Y-96361190D01*
X43552380Y-96694523D02*
X44076190Y-96361190D01*
X43552380Y-96027857D01*
X44552380Y-95170714D02*
X44552380Y-95742142D01*
X44552380Y-95456428D02*
X43552380Y-95456428D01*
X43695238Y-95551666D01*
X43790476Y-95646904D01*
X43838095Y-95742142D01*
X85082142Y-78317142D02*
X85034523Y-78364761D01*
X84891666Y-78412380D01*
X84796428Y-78412380D01*
X84653571Y-78364761D01*
X84558333Y-78269523D01*
X84510714Y-78174285D01*
X84463095Y-77983809D01*
X84463095Y-77840952D01*
X84510714Y-77650476D01*
X84558333Y-77555238D01*
X84653571Y-77460000D01*
X84796428Y-77412380D01*
X84891666Y-77412380D01*
X85034523Y-77460000D01*
X85082142Y-77507619D01*
X86034523Y-78412380D02*
X85463095Y-78412380D01*
X85748809Y-78412380D02*
X85748809Y-77412380D01*
X85653571Y-77555238D01*
X85558333Y-77650476D01*
X85463095Y-77698095D01*
X86653571Y-77412380D02*
X86748809Y-77412380D01*
X86844047Y-77460000D01*
X86891666Y-77507619D01*
X86939285Y-77602857D01*
X86986904Y-77793333D01*
X86986904Y-78031428D01*
X86939285Y-78221904D01*
X86891666Y-78317142D01*
X86844047Y-78364761D01*
X86748809Y-78412380D01*
X86653571Y-78412380D01*
X86558333Y-78364761D01*
X86510714Y-78317142D01*
X86463095Y-78221904D01*
X86415476Y-78031428D01*
X86415476Y-77793333D01*
X86463095Y-77602857D01*
X86510714Y-77507619D01*
X86558333Y-77460000D01*
X86653571Y-77412380D01*
X72898095Y-82212380D02*
X72898095Y-83021904D01*
X72945714Y-83117142D01*
X72993333Y-83164761D01*
X73088571Y-83212380D01*
X73279047Y-83212380D01*
X73374285Y-83164761D01*
X73421904Y-83117142D01*
X73469523Y-83021904D01*
X73469523Y-82212380D01*
X74374285Y-82545714D02*
X74374285Y-83212380D01*
X74136190Y-82164761D02*
X73898095Y-82879047D01*
X74517142Y-82879047D01*
X112917380Y-130278095D02*
X111917380Y-130278095D01*
X111917380Y-130040000D01*
X111965000Y-129897142D01*
X112060238Y-129801904D01*
X112155476Y-129754285D01*
X112345952Y-129706666D01*
X112488809Y-129706666D01*
X112679285Y-129754285D01*
X112774523Y-129801904D01*
X112869761Y-129897142D01*
X112917380Y-130040000D01*
X112917380Y-130278095D01*
X112917380Y-128754285D02*
X112917380Y-129325714D01*
X112917380Y-129040000D02*
X111917380Y-129040000D01*
X112060238Y-129135238D01*
X112155476Y-129230476D01*
X112203095Y-129325714D01*
X128841666Y-36424761D02*
X128984523Y-36472380D01*
X129222619Y-36472380D01*
X129317857Y-36424761D01*
X129365476Y-36377142D01*
X129413095Y-36281904D01*
X129413095Y-36186666D01*
X129365476Y-36091428D01*
X129317857Y-36043809D01*
X129222619Y-35996190D01*
X129032142Y-35948571D01*
X128936904Y-35900952D01*
X128889285Y-35853333D01*
X128841666Y-35758095D01*
X128841666Y-35662857D01*
X128889285Y-35567619D01*
X128936904Y-35520000D01*
X129032142Y-35472380D01*
X129270238Y-35472380D01*
X129413095Y-35520000D01*
X129746428Y-35472380D02*
X129984523Y-36472380D01*
X130175000Y-35758095D01*
X130365476Y-36472380D01*
X130603571Y-35472380D01*
X130936904Y-35567619D02*
X130984523Y-35520000D01*
X131079761Y-35472380D01*
X131317857Y-35472380D01*
X131413095Y-35520000D01*
X131460714Y-35567619D01*
X131508333Y-35662857D01*
X131508333Y-35758095D01*
X131460714Y-35900952D01*
X130889285Y-36472380D01*
X131508333Y-36472380D01*
X84447142Y-108162142D02*
X84399523Y-108209761D01*
X84256666Y-108257380D01*
X84161428Y-108257380D01*
X84018571Y-108209761D01*
X83923333Y-108114523D01*
X83875714Y-108019285D01*
X83828095Y-107828809D01*
X83828095Y-107685952D01*
X83875714Y-107495476D01*
X83923333Y-107400238D01*
X84018571Y-107305000D01*
X84161428Y-107257380D01*
X84256666Y-107257380D01*
X84399523Y-107305000D01*
X84447142Y-107352619D01*
X85399523Y-108257380D02*
X84828095Y-108257380D01*
X85113809Y-108257380D02*
X85113809Y-107257380D01*
X85018571Y-107400238D01*
X84923333Y-107495476D01*
X84828095Y-107543095D01*
X85732857Y-107257380D02*
X86351904Y-107257380D01*
X86018571Y-107638333D01*
X86161428Y-107638333D01*
X86256666Y-107685952D01*
X86304285Y-107733571D01*
X86351904Y-107828809D01*
X86351904Y-108066904D01*
X86304285Y-108162142D01*
X86256666Y-108209761D01*
X86161428Y-108257380D01*
X85875714Y-108257380D01*
X85780476Y-108209761D01*
X85732857Y-108162142D01*
X44918333Y-105767142D02*
X44870714Y-105814761D01*
X44727857Y-105862380D01*
X44632619Y-105862380D01*
X44489761Y-105814761D01*
X44394523Y-105719523D01*
X44346904Y-105624285D01*
X44299285Y-105433809D01*
X44299285Y-105290952D01*
X44346904Y-105100476D01*
X44394523Y-105005238D01*
X44489761Y-104910000D01*
X44632619Y-104862380D01*
X44727857Y-104862380D01*
X44870714Y-104910000D01*
X44918333Y-104957619D01*
X45823095Y-104862380D02*
X45346904Y-104862380D01*
X45299285Y-105338571D01*
X45346904Y-105290952D01*
X45442142Y-105243333D01*
X45680238Y-105243333D01*
X45775476Y-105290952D01*
X45823095Y-105338571D01*
X45870714Y-105433809D01*
X45870714Y-105671904D01*
X45823095Y-105767142D01*
X45775476Y-105814761D01*
X45680238Y-105862380D01*
X45442142Y-105862380D01*
X45346904Y-105814761D01*
X45299285Y-105767142D01*
X44918333Y-108307142D02*
X44870714Y-108354761D01*
X44727857Y-108402380D01*
X44632619Y-108402380D01*
X44489761Y-108354761D01*
X44394523Y-108259523D01*
X44346904Y-108164285D01*
X44299285Y-107973809D01*
X44299285Y-107830952D01*
X44346904Y-107640476D01*
X44394523Y-107545238D01*
X44489761Y-107450000D01*
X44632619Y-107402380D01*
X44727857Y-107402380D01*
X44870714Y-107450000D01*
X44918333Y-107497619D01*
X45775476Y-107402380D02*
X45585000Y-107402380D01*
X45489761Y-107450000D01*
X45442142Y-107497619D01*
X45346904Y-107640476D01*
X45299285Y-107830952D01*
X45299285Y-108211904D01*
X45346904Y-108307142D01*
X45394523Y-108354761D01*
X45489761Y-108402380D01*
X45680238Y-108402380D01*
X45775476Y-108354761D01*
X45823095Y-108307142D01*
X45870714Y-108211904D01*
X45870714Y-107973809D01*
X45823095Y-107878571D01*
X45775476Y-107830952D01*
X45680238Y-107783333D01*
X45489761Y-107783333D01*
X45394523Y-107830952D01*
X45346904Y-107878571D01*
X45299285Y-107973809D01*
X57033095Y-82222380D02*
X57033095Y-83031904D01*
X57080714Y-83127142D01*
X57128333Y-83174761D01*
X57223571Y-83222380D01*
X57414047Y-83222380D01*
X57509285Y-83174761D01*
X57556904Y-83127142D01*
X57604523Y-83031904D01*
X57604523Y-82222380D01*
X58033095Y-82317619D02*
X58080714Y-82270000D01*
X58175952Y-82222380D01*
X58414047Y-82222380D01*
X58509285Y-82270000D01*
X58556904Y-82317619D01*
X58604523Y-82412857D01*
X58604523Y-82508095D01*
X58556904Y-82650952D01*
X57985476Y-83222380D01*
X58604523Y-83222380D01*
X141478095Y-111422380D02*
X141478095Y-112231904D01*
X141525714Y-112327142D01*
X141573333Y-112374761D01*
X141668571Y-112422380D01*
X141859047Y-112422380D01*
X141954285Y-112374761D01*
X142001904Y-112327142D01*
X142049523Y-112231904D01*
X142049523Y-111422380D01*
X142430476Y-111422380D02*
X143049523Y-111422380D01*
X142716190Y-111803333D01*
X142859047Y-111803333D01*
X142954285Y-111850952D01*
X143001904Y-111898571D01*
X143049523Y-111993809D01*
X143049523Y-112231904D01*
X143001904Y-112327142D01*
X142954285Y-112374761D01*
X142859047Y-112422380D01*
X142573333Y-112422380D01*
X142478095Y-112374761D01*
X142430476Y-112327142D01*
X105227380Y-129706666D02*
X104751190Y-130040000D01*
X105227380Y-130278095D02*
X104227380Y-130278095D01*
X104227380Y-129897142D01*
X104275000Y-129801904D01*
X104322619Y-129754285D01*
X104417857Y-129706666D01*
X104560714Y-129706666D01*
X104655952Y-129754285D01*
X104703571Y-129801904D01*
X104751190Y-129897142D01*
X104751190Y-130278095D01*
X104227380Y-128801904D02*
X104227380Y-129278095D01*
X104703571Y-129325714D01*
X104655952Y-129278095D01*
X104608333Y-129182857D01*
X104608333Y-128944761D01*
X104655952Y-128849523D01*
X104703571Y-128801904D01*
X104798809Y-128754285D01*
X105036904Y-128754285D01*
X105132142Y-128801904D01*
X105179761Y-128849523D01*
X105227380Y-128944761D01*
X105227380Y-129182857D01*
X105179761Y-129278095D01*
X105132142Y-129325714D01*
X103338333Y-78317142D02*
X103290714Y-78364761D01*
X103147857Y-78412380D01*
X103052619Y-78412380D01*
X102909761Y-78364761D01*
X102814523Y-78269523D01*
X102766904Y-78174285D01*
X102719285Y-77983809D01*
X102719285Y-77840952D01*
X102766904Y-77650476D01*
X102814523Y-77555238D01*
X102909761Y-77460000D01*
X103052619Y-77412380D01*
X103147857Y-77412380D01*
X103290714Y-77460000D01*
X103338333Y-77507619D01*
X103671666Y-77412380D02*
X104290714Y-77412380D01*
X103957380Y-77793333D01*
X104100238Y-77793333D01*
X104195476Y-77840952D01*
X104243095Y-77888571D01*
X104290714Y-77983809D01*
X104290714Y-78221904D01*
X104243095Y-78317142D01*
X104195476Y-78364761D01*
X104100238Y-78412380D01*
X103814523Y-78412380D01*
X103719285Y-78364761D01*
X103671666Y-78317142D01*
X141478095Y-82212380D02*
X141478095Y-83021904D01*
X141525714Y-83117142D01*
X141573333Y-83164761D01*
X141668571Y-83212380D01*
X141859047Y-83212380D01*
X141954285Y-83164761D01*
X142001904Y-83117142D01*
X142049523Y-83021904D01*
X142049523Y-82212380D01*
X142430476Y-82212380D02*
X143097142Y-82212380D01*
X142668571Y-83212380D01*
X125087142Y-107527142D02*
X125039523Y-107574761D01*
X124896666Y-107622380D01*
X124801428Y-107622380D01*
X124658571Y-107574761D01*
X124563333Y-107479523D01*
X124515714Y-107384285D01*
X124468095Y-107193809D01*
X124468095Y-107050952D01*
X124515714Y-106860476D01*
X124563333Y-106765238D01*
X124658571Y-106670000D01*
X124801428Y-106622380D01*
X124896666Y-106622380D01*
X125039523Y-106670000D01*
X125087142Y-106717619D01*
X126039523Y-107622380D02*
X125468095Y-107622380D01*
X125753809Y-107622380D02*
X125753809Y-106622380D01*
X125658571Y-106765238D01*
X125563333Y-106860476D01*
X125468095Y-106908095D01*
X126420476Y-106717619D02*
X126468095Y-106670000D01*
X126563333Y-106622380D01*
X126801428Y-106622380D01*
X126896666Y-106670000D01*
X126944285Y-106717619D01*
X126991904Y-106812857D01*
X126991904Y-106908095D01*
X126944285Y-107050952D01*
X126372857Y-107622380D01*
X126991904Y-107622380D01*
X107183095Y-81587380D02*
X107183095Y-82396904D01*
X107230714Y-82492142D01*
X107278333Y-82539761D01*
X107373571Y-82587380D01*
X107564047Y-82587380D01*
X107659285Y-82539761D01*
X107706904Y-82492142D01*
X107754523Y-82396904D01*
X107754523Y-81587380D01*
X108754523Y-82587380D02*
X108183095Y-82587380D01*
X108468809Y-82587380D02*
X108468809Y-81587380D01*
X108373571Y-81730238D01*
X108278333Y-81825476D01*
X108183095Y-81873095D01*
X59991666Y-67016380D02*
X59991666Y-67730666D01*
X59944047Y-67873523D01*
X59848809Y-67968761D01*
X59705952Y-68016380D01*
X59610714Y-68016380D01*
X60420238Y-67111619D02*
X60467857Y-67064000D01*
X60563095Y-67016380D01*
X60801190Y-67016380D01*
X60896428Y-67064000D01*
X60944047Y-67111619D01*
X60991666Y-67206857D01*
X60991666Y-67302095D01*
X60944047Y-67444952D01*
X60372619Y-68016380D01*
X60991666Y-68016380D01*
X72421904Y-111422380D02*
X72421904Y-112231904D01*
X72469523Y-112327142D01*
X72517142Y-112374761D01*
X72612380Y-112422380D01*
X72802857Y-112422380D01*
X72898095Y-112374761D01*
X72945714Y-112327142D01*
X72993333Y-112231904D01*
X72993333Y-111422380D01*
X73993333Y-112422380D02*
X73421904Y-112422380D01*
X73707619Y-112422380D02*
X73707619Y-111422380D01*
X73612380Y-111565238D01*
X73517142Y-111660476D01*
X73421904Y-111708095D01*
X74612380Y-111422380D02*
X74707619Y-111422380D01*
X74802857Y-111470000D01*
X74850476Y-111517619D01*
X74898095Y-111612857D01*
X74945714Y-111803333D01*
X74945714Y-112041428D01*
X74898095Y-112231904D01*
X74850476Y-112327142D01*
X74802857Y-112374761D01*
X74707619Y-112422380D01*
X74612380Y-112422380D01*
X74517142Y-112374761D01*
X74469523Y-112327142D01*
X74421904Y-112231904D01*
X74374285Y-112041428D01*
X74374285Y-111803333D01*
X74421904Y-111612857D01*
X74469523Y-111517619D01*
X74517142Y-111470000D01*
X74612380Y-111422380D01*
X112890733Y-75847142D02*
X112843114Y-75894761D01*
X112700257Y-75942380D01*
X112605019Y-75942380D01*
X112462161Y-75894761D01*
X112366923Y-75799523D01*
X112319304Y-75704285D01*
X112271685Y-75513809D01*
X112271685Y-75370952D01*
X112319304Y-75180476D01*
X112366923Y-75085238D01*
X112462161Y-74990000D01*
X112605019Y-74942380D01*
X112700257Y-74942380D01*
X112843114Y-74990000D01*
X112890733Y-75037619D01*
X113843114Y-75942380D02*
X113271685Y-75942380D01*
X113557400Y-75942380D02*
X113557400Y-74942380D01*
X113462161Y-75085238D01*
X113366923Y-75180476D01*
X113271685Y-75228095D01*
X127518095Y-111417380D02*
X127518095Y-112226904D01*
X127565714Y-112322142D01*
X127613333Y-112369761D01*
X127708571Y-112417380D01*
X127899047Y-112417380D01*
X127994285Y-112369761D01*
X128041904Y-112322142D01*
X128089523Y-112226904D01*
X128089523Y-111417380D01*
X128613333Y-112417380D02*
X128803809Y-112417380D01*
X128899047Y-112369761D01*
X128946666Y-112322142D01*
X129041904Y-112179285D01*
X129089523Y-111988809D01*
X129089523Y-111607857D01*
X129041904Y-111512619D01*
X128994285Y-111465000D01*
X128899047Y-111417380D01*
X128708571Y-111417380D01*
X128613333Y-111465000D01*
X128565714Y-111512619D01*
X128518095Y-111607857D01*
X128518095Y-111845952D01*
X128565714Y-111941190D01*
X128613333Y-111988809D01*
X128708571Y-112036428D01*
X128899047Y-112036428D01*
X128994285Y-111988809D01*
X129041904Y-111941190D01*
X129089523Y-111845952D01*
X87431714Y-42997380D02*
X87431714Y-41997380D01*
X87669809Y-41997380D01*
X87812666Y-42045000D01*
X87907904Y-42140238D01*
X87955523Y-42235476D01*
X88003142Y-42425952D01*
X88003142Y-42568809D01*
X87955523Y-42759285D01*
X87907904Y-42854523D01*
X87812666Y-42949761D01*
X87669809Y-42997380D01*
X87431714Y-42997380D01*
X88384095Y-42949761D02*
X88526952Y-42997380D01*
X88765047Y-42997380D01*
X88860285Y-42949761D01*
X88907904Y-42902142D01*
X88955523Y-42806904D01*
X88955523Y-42711666D01*
X88907904Y-42616428D01*
X88860285Y-42568809D01*
X88765047Y-42521190D01*
X88574571Y-42473571D01*
X88479333Y-42425952D01*
X88431714Y-42378333D01*
X88384095Y-42283095D01*
X88384095Y-42187857D01*
X88431714Y-42092619D01*
X88479333Y-42045000D01*
X88574571Y-41997380D01*
X88812666Y-41997380D01*
X88955523Y-42045000D01*
X89907904Y-42997380D02*
X89336476Y-42997380D01*
X89622190Y-42997380D02*
X89622190Y-41997380D01*
X89526952Y-42140238D01*
X89431714Y-42235476D01*
X89336476Y-42283095D01*
X145351666Y-49124761D02*
X145494523Y-49172380D01*
X145732619Y-49172380D01*
X145827857Y-49124761D01*
X145875476Y-49077142D01*
X145923095Y-48981904D01*
X145923095Y-48886666D01*
X145875476Y-48791428D01*
X145827857Y-48743809D01*
X145732619Y-48696190D01*
X145542142Y-48648571D01*
X145446904Y-48600952D01*
X145399285Y-48553333D01*
X145351666Y-48458095D01*
X145351666Y-48362857D01*
X145399285Y-48267619D01*
X145446904Y-48220000D01*
X145542142Y-48172380D01*
X145780238Y-48172380D01*
X145923095Y-48220000D01*
X146256428Y-48172380D02*
X146494523Y-49172380D01*
X146685000Y-48458095D01*
X146875476Y-49172380D01*
X147113571Y-48172380D01*
X147970714Y-48172380D02*
X147494523Y-48172380D01*
X147446904Y-48648571D01*
X147494523Y-48600952D01*
X147589761Y-48553333D01*
X147827857Y-48553333D01*
X147923095Y-48600952D01*
X147970714Y-48648571D01*
X148018333Y-48743809D01*
X148018333Y-48981904D01*
X147970714Y-49077142D01*
X147923095Y-49124761D01*
X147827857Y-49172380D01*
X147589761Y-49172380D01*
X147494523Y-49124761D01*
X147446904Y-49077142D01*
X125583333Y-78317142D02*
X125535714Y-78364761D01*
X125392857Y-78412380D01*
X125297619Y-78412380D01*
X125154761Y-78364761D01*
X125059523Y-78269523D01*
X125011904Y-78174285D01*
X124964285Y-77983809D01*
X124964285Y-77840952D01*
X125011904Y-77650476D01*
X125059523Y-77555238D01*
X125154761Y-77460000D01*
X125297619Y-77412380D01*
X125392857Y-77412380D01*
X125535714Y-77460000D01*
X125583333Y-77507619D01*
X126059523Y-78412380D02*
X126250000Y-78412380D01*
X126345238Y-78364761D01*
X126392857Y-78317142D01*
X126488095Y-78174285D01*
X126535714Y-77983809D01*
X126535714Y-77602857D01*
X126488095Y-77507619D01*
X126440476Y-77460000D01*
X126345238Y-77412380D01*
X126154761Y-77412380D01*
X126059523Y-77460000D01*
X126011904Y-77507619D01*
X125964285Y-77602857D01*
X125964285Y-77840952D01*
X126011904Y-77936190D01*
X126059523Y-77983809D01*
X126154761Y-78031428D01*
X126345238Y-78031428D01*
X126440476Y-77983809D01*
X126488095Y-77936190D01*
X126535714Y-77840952D01*
X127508095Y-82212380D02*
X127508095Y-83021904D01*
X127555714Y-83117142D01*
X127603333Y-83164761D01*
X127698571Y-83212380D01*
X127889047Y-83212380D01*
X127984285Y-83164761D01*
X128031904Y-83117142D01*
X128079523Y-83021904D01*
X128079523Y-82212380D01*
X129031904Y-82212380D02*
X128555714Y-82212380D01*
X128508095Y-82688571D01*
X128555714Y-82640952D01*
X128650952Y-82593333D01*
X128889047Y-82593333D01*
X128984285Y-82640952D01*
X129031904Y-82688571D01*
X129079523Y-82783809D01*
X129079523Y-83021904D01*
X129031904Y-83117142D01*
X128984285Y-83164761D01*
X128889047Y-83212380D01*
X128650952Y-83212380D01*
X128555714Y-83164761D01*
X128508095Y-83117142D01*
X57645733Y-75847142D02*
X57598114Y-75894761D01*
X57455257Y-75942380D01*
X57360019Y-75942380D01*
X57217161Y-75894761D01*
X57121923Y-75799523D01*
X57074304Y-75704285D01*
X57026685Y-75513809D01*
X57026685Y-75370952D01*
X57074304Y-75180476D01*
X57121923Y-75085238D01*
X57217161Y-74990000D01*
X57360019Y-74942380D01*
X57455257Y-74942380D01*
X57598114Y-74990000D01*
X57645733Y-75037619D01*
X58026685Y-75037619D02*
X58074304Y-74990000D01*
X58169542Y-74942380D01*
X58407638Y-74942380D01*
X58502876Y-74990000D01*
X58550495Y-75037619D01*
X58598114Y-75132857D01*
X58598114Y-75228095D01*
X58550495Y-75370952D01*
X57979066Y-75942380D01*
X58598114Y-75942380D01*
X128841666Y-61824761D02*
X128984523Y-61872380D01*
X129222619Y-61872380D01*
X129317857Y-61824761D01*
X129365476Y-61777142D01*
X129413095Y-61681904D01*
X129413095Y-61586666D01*
X129365476Y-61491428D01*
X129317857Y-61443809D01*
X129222619Y-61396190D01*
X129032142Y-61348571D01*
X128936904Y-61300952D01*
X128889285Y-61253333D01*
X128841666Y-61158095D01*
X128841666Y-61062857D01*
X128889285Y-60967619D01*
X128936904Y-60920000D01*
X129032142Y-60872380D01*
X129270238Y-60872380D01*
X129413095Y-60920000D01*
X129746428Y-60872380D02*
X129984523Y-61872380D01*
X130175000Y-61158095D01*
X130365476Y-61872380D01*
X130603571Y-60872380D01*
X130889285Y-60872380D02*
X131508333Y-60872380D01*
X131175000Y-61253333D01*
X131317857Y-61253333D01*
X131413095Y-61300952D01*
X131460714Y-61348571D01*
X131508333Y-61443809D01*
X131508333Y-61681904D01*
X131460714Y-61777142D01*
X131413095Y-61824761D01*
X131317857Y-61872380D01*
X131032142Y-61872380D01*
X130936904Y-61824761D01*
X130889285Y-61777142D01*
X139672142Y-78317142D02*
X139624523Y-78364761D01*
X139481666Y-78412380D01*
X139386428Y-78412380D01*
X139243571Y-78364761D01*
X139148333Y-78269523D01*
X139100714Y-78174285D01*
X139053095Y-77983809D01*
X139053095Y-77840952D01*
X139100714Y-77650476D01*
X139148333Y-77555238D01*
X139243571Y-77460000D01*
X139386428Y-77412380D01*
X139481666Y-77412380D01*
X139624523Y-77460000D01*
X139672142Y-77507619D01*
X140624523Y-78412380D02*
X140053095Y-78412380D01*
X140338809Y-78412380D02*
X140338809Y-77412380D01*
X140243571Y-77555238D01*
X140148333Y-77650476D01*
X140053095Y-77698095D01*
X141576904Y-78412380D02*
X141005476Y-78412380D01*
X141291190Y-78412380D02*
X141291190Y-77412380D01*
X141195952Y-77555238D01*
X141100714Y-77650476D01*
X141005476Y-77698095D01*
X99682380Y-129706666D02*
X99206190Y-130040000D01*
X99682380Y-130278095D02*
X98682380Y-130278095D01*
X98682380Y-129897142D01*
X98730000Y-129801904D01*
X98777619Y-129754285D01*
X98872857Y-129706666D01*
X99015714Y-129706666D01*
X99110952Y-129754285D01*
X99158571Y-129801904D01*
X99206190Y-129897142D01*
X99206190Y-130278095D01*
X98682380Y-128849523D02*
X98682380Y-129040000D01*
X98730000Y-129135238D01*
X98777619Y-129182857D01*
X98920476Y-129278095D01*
X99110952Y-129325714D01*
X99491904Y-129325714D01*
X99587142Y-129278095D01*
X99634761Y-129230476D01*
X99682380Y-129135238D01*
X99682380Y-128944761D01*
X99634761Y-128849523D01*
X99587142Y-128801904D01*
X99491904Y-128754285D01*
X99253809Y-128754285D01*
X99158571Y-128801904D01*
X99110952Y-128849523D01*
X99063333Y-128944761D01*
X99063333Y-129135238D01*
X99110952Y-129230476D01*
X99158571Y-129278095D01*
X99253809Y-129325714D01*
X140188333Y-107527142D02*
X140140714Y-107574761D01*
X139997857Y-107622380D01*
X139902619Y-107622380D01*
X139759761Y-107574761D01*
X139664523Y-107479523D01*
X139616904Y-107384285D01*
X139569285Y-107193809D01*
X139569285Y-107050952D01*
X139616904Y-106860476D01*
X139664523Y-106765238D01*
X139759761Y-106670000D01*
X139902619Y-106622380D01*
X139997857Y-106622380D01*
X140140714Y-106670000D01*
X140188333Y-106717619D01*
X140521666Y-106622380D02*
X141188333Y-106622380D01*
X140759761Y-107622380D01*
X63712142Y-101766666D02*
X63759761Y-101814285D01*
X63807380Y-101957142D01*
X63807380Y-102052380D01*
X63759761Y-102195238D01*
X63664523Y-102290476D01*
X63569285Y-102338095D01*
X63378809Y-102385714D01*
X63235952Y-102385714D01*
X63045476Y-102338095D01*
X62950238Y-102290476D01*
X62855000Y-102195238D01*
X62807380Y-102052380D01*
X62807380Y-101957142D01*
X62855000Y-101814285D01*
X62902619Y-101766666D01*
X63140714Y-100909523D02*
X63807380Y-100909523D01*
X62759761Y-101147619D02*
X63474047Y-101385714D01*
X63474047Y-100766666D01*
X55232380Y-130341666D02*
X54756190Y-130675000D01*
X55232380Y-130913095D02*
X54232380Y-130913095D01*
X54232380Y-130532142D01*
X54280000Y-130436904D01*
X54327619Y-130389285D01*
X54422857Y-130341666D01*
X54565714Y-130341666D01*
X54660952Y-130389285D01*
X54708571Y-130436904D01*
X54756190Y-130532142D01*
X54756190Y-130913095D01*
X54232380Y-130008333D02*
X54232380Y-129389285D01*
X54613333Y-129722619D01*
X54613333Y-129579761D01*
X54660952Y-129484523D01*
X54708571Y-129436904D01*
X54803809Y-129389285D01*
X55041904Y-129389285D01*
X55137142Y-129436904D01*
X55184761Y-129484523D01*
X55232380Y-129579761D01*
X55232380Y-129865476D01*
X55184761Y-129960714D01*
X55137142Y-130008333D01*
D12*
X70491000Y-111410000D02*
X71749000Y-111410000D01*
X70491000Y-109570000D02*
X71749000Y-109570000D01*
X107525000Y-49770000D02*
X119825000Y-49770000D01*
X107525000Y-62070000D02*
X107525000Y-59950000D01*
X119825000Y-59950000D02*
X119825000Y-62070000D01*
X119825000Y-62070000D02*
X107525000Y-62070000D01*
X107525000Y-51890000D02*
X107525000Y-49770000D01*
X107525000Y-56890000D02*
X107525000Y-54950000D01*
X119825000Y-54950000D02*
X119825000Y-56890000D01*
X119825000Y-49770000D02*
X119825000Y-51890000D01*
X118354050Y-55960000D02*
G75*
G03*
X118354050Y-55960000I-4579050J0D01*
G01*
X92770000Y-112910000D02*
X82490000Y-112910000D01*
X84980000Y-112970000D02*
X84980000Y-133410000D01*
X92770000Y-133470000D02*
X92770000Y-112910000D01*
X86630000Y-112970000D02*
X84980000Y-112970000D01*
X84980000Y-133410000D02*
X90280000Y-133410000D01*
X82490000Y-112910000D02*
X82490000Y-133470000D01*
X82490000Y-133470000D02*
X92770000Y-133470000D01*
X90280000Y-112970000D02*
X88630000Y-112970000D01*
X90280000Y-133410000D02*
X90280000Y-112970000D01*
X86630000Y-112970000D02*
G75*
G03*
X88630000Y-112970000I1000000J0D01*
G01*
X132925000Y-139480000D02*
X132925000Y-137360000D01*
X145225000Y-142540000D02*
X145225000Y-144480000D01*
X145225000Y-149660000D02*
X132925000Y-149660000D01*
X145225000Y-137360000D02*
X145225000Y-139480000D01*
X145225000Y-147540000D02*
X145225000Y-149660000D01*
X132925000Y-149660000D02*
X132925000Y-147540000D01*
X132925000Y-144480000D02*
X132925000Y-142540000D01*
X132925000Y-137360000D02*
X145225000Y-137360000D01*
X143754050Y-143550000D02*
G75*
G03*
X143754050Y-143550000I-4579050J0D01*
G01*
X50700000Y-133445000D02*
X50700000Y-126905000D01*
X53110000Y-133445000D02*
X53440000Y-133445000D01*
X50700000Y-126905000D02*
X51030000Y-126905000D01*
X53440000Y-126905000D02*
X53110000Y-126905000D01*
X53440000Y-133445000D02*
X53440000Y-126905000D01*
X51030000Y-133445000D02*
X50700000Y-133445000D01*
X89680000Y-150570000D02*
X89680000Y-150570000D01*
X89680000Y-150570000D02*
X89680000Y-151880000D01*
X51940000Y-151880000D02*
X51940000Y-142760000D01*
X122020000Y-150570000D02*
X89680000Y-150570000D01*
X53240000Y-144070000D02*
X122020000Y-144070000D01*
X53240000Y-150570000D02*
X53240000Y-144070000D01*
X57150000Y-152270000D02*
X56650000Y-153270000D01*
X123320000Y-151880000D02*
X51940000Y-151880000D01*
X56650000Y-153270000D02*
X57650000Y-153270000D01*
X123320000Y-142760000D02*
X123320000Y-151880000D01*
X85580000Y-150570000D02*
X53240000Y-150570000D01*
X57650000Y-153270000D02*
X57150000Y-152270000D01*
X122020000Y-144070000D02*
X122020000Y-150570000D01*
X51940000Y-142760000D02*
X123320000Y-142760000D01*
X85580000Y-151880000D02*
X85580000Y-150570000D01*
X63600000Y-126905000D02*
X63270000Y-126905000D01*
X63600000Y-133445000D02*
X63600000Y-126905000D01*
X61190000Y-133445000D02*
X60860000Y-133445000D01*
X60860000Y-126905000D02*
X61190000Y-126905000D01*
X63270000Y-133445000D02*
X63600000Y-133445000D01*
X60860000Y-133445000D02*
X60860000Y-126905000D01*
X71126000Y-79090000D02*
X72384000Y-79090000D01*
X71126000Y-80930000D02*
X72384000Y-80930000D01*
X92770000Y-104260000D02*
X92770000Y-83700000D01*
X90280000Y-104200000D02*
X90280000Y-83760000D01*
X84980000Y-104200000D02*
X90280000Y-104200000D01*
X82490000Y-104260000D02*
X92770000Y-104260000D01*
X86630000Y-83760000D02*
X84980000Y-83760000D01*
X90280000Y-83760000D02*
X88630000Y-83760000D01*
X92770000Y-83700000D02*
X82490000Y-83700000D01*
X82490000Y-83700000D02*
X82490000Y-104260000D01*
X84980000Y-83760000D02*
X84980000Y-104200000D01*
X86630000Y-83760000D02*
G75*
G03*
X88630000Y-83760000I1000000J0D01*
G01*
X45950000Y-133445000D02*
X45620000Y-133445000D01*
X48030000Y-133445000D02*
X48360000Y-133445000D01*
X45620000Y-126905000D02*
X45950000Y-126905000D01*
X45620000Y-133445000D02*
X45620000Y-126905000D01*
X48360000Y-126905000D02*
X48030000Y-126905000D01*
X48360000Y-133445000D02*
X48360000Y-126905000D01*
X45100000Y-99010000D02*
X45100000Y-92760000D01*
X50150000Y-99010000D02*
X50150000Y-92760000D01*
X50150000Y-92760000D02*
G75*
G03*
X45100000Y-92760000I-2525000J0D01*
G01*
X45100000Y-99010000D02*
G75*
G03*
X50150000Y-99010000I2525000J0D01*
G01*
X85096000Y-80930000D02*
X86354000Y-80930000D01*
X85096000Y-79090000D02*
X86354000Y-79090000D01*
X78800000Y-104260000D02*
X78800000Y-83700000D01*
X72660000Y-83760000D02*
X71010000Y-83760000D01*
X71010000Y-83760000D02*
X71010000Y-104200000D01*
X68520000Y-104260000D02*
X78800000Y-104260000D01*
X76310000Y-83760000D02*
X74660000Y-83760000D01*
X71010000Y-104200000D02*
X76310000Y-104200000D01*
X68520000Y-83700000D02*
X68520000Y-104260000D01*
X78800000Y-83700000D02*
X68520000Y-83700000D01*
X76310000Y-104200000D02*
X76310000Y-83760000D01*
X72660000Y-83760000D02*
G75*
G03*
X74660000Y-83760000I1000000J0D01*
G01*
X113465000Y-126820000D02*
X113795000Y-126820000D01*
X113465000Y-131240000D02*
X116405000Y-131240000D01*
X113795000Y-132260000D02*
X113465000Y-132260000D01*
X116075000Y-132260000D02*
X116405000Y-132260000D01*
X116405000Y-132260000D02*
X116405000Y-126820000D01*
X113465000Y-131360000D02*
X116405000Y-131360000D01*
X116405000Y-126820000D02*
X116075000Y-126820000D01*
X113465000Y-131480000D02*
X116405000Y-131480000D01*
X113465000Y-132260000D02*
X113465000Y-126820000D01*
X136225000Y-37030000D02*
X136225000Y-39150000D01*
X136225000Y-49330000D02*
X123925000Y-49330000D01*
X123925000Y-44150000D02*
X123925000Y-42210000D01*
X136225000Y-47210000D02*
X136225000Y-49330000D01*
X136225000Y-42210000D02*
X136225000Y-44150000D01*
X123925000Y-49330000D02*
X123925000Y-47210000D01*
X123925000Y-39150000D02*
X123925000Y-37030000D01*
X123925000Y-37030000D02*
X136225000Y-37030000D01*
X134754050Y-43220000D02*
G75*
G03*
X134754050Y-43220000I-4579050J0D01*
G01*
X84461000Y-110775000D02*
X85719000Y-110775000D01*
X84461000Y-108935000D02*
X85719000Y-108935000D01*
X48266000Y-104490000D02*
X49524000Y-104490000D01*
X48266000Y-106330000D02*
X49524000Y-106330000D01*
X48266000Y-108870000D02*
X49524000Y-108870000D01*
X48266000Y-107030000D02*
X49524000Y-107030000D01*
X55145000Y-83770000D02*
X55145000Y-119450000D01*
X56795000Y-83770000D02*
X55145000Y-83770000D01*
X60445000Y-83770000D02*
X58795000Y-83770000D01*
X55145000Y-119450000D02*
X60445000Y-119450000D01*
X60445000Y-119450000D02*
X60445000Y-83770000D01*
X56795000Y-83770000D02*
G75*
G03*
X58795000Y-83770000I1000000J0D01*
G01*
X144890000Y-112970000D02*
X143240000Y-112970000D01*
X137100000Y-130930000D02*
X147380000Y-130930000D01*
X144890000Y-130870000D02*
X144890000Y-112970000D01*
X137100000Y-112910000D02*
X137100000Y-130930000D01*
X141240000Y-112970000D02*
X139590000Y-112970000D01*
X147380000Y-130930000D02*
X147380000Y-112910000D01*
X147380000Y-112910000D02*
X137100000Y-112910000D01*
X139590000Y-130870000D02*
X144890000Y-130870000D01*
X139590000Y-112970000D02*
X139590000Y-130870000D01*
X141240000Y-112970000D02*
G75*
G03*
X143240000Y-112970000I1000000J0D01*
G01*
X106275000Y-126270000D02*
X105945000Y-126270000D01*
X105945000Y-132810000D02*
X106275000Y-132810000D01*
X105945000Y-126270000D02*
X105945000Y-132810000D01*
X108355000Y-126270000D02*
X108685000Y-126270000D01*
X108685000Y-126270000D02*
X108685000Y-132810000D01*
X108685000Y-132810000D02*
X108355000Y-132810000D01*
X102876000Y-80930000D02*
X104134000Y-80930000D01*
X102876000Y-79090000D02*
X104134000Y-79090000D01*
X137100000Y-83700000D02*
X137100000Y-101720000D01*
X144890000Y-101660000D02*
X144890000Y-83760000D01*
X147380000Y-101720000D02*
X147380000Y-83700000D01*
X144890000Y-83760000D02*
X143240000Y-83760000D01*
X141240000Y-83760000D02*
X139590000Y-83760000D01*
X147380000Y-83700000D02*
X137100000Y-83700000D01*
X139590000Y-83760000D02*
X139590000Y-101660000D01*
X137100000Y-101720000D02*
X147380000Y-101720000D01*
X139590000Y-101660000D02*
X144890000Y-101660000D01*
X141240000Y-83760000D02*
G75*
G03*
X143240000Y-83760000I1000000J0D01*
G01*
X125101000Y-110140000D02*
X126359000Y-110140000D01*
X125101000Y-108300000D02*
X126359000Y-108300000D01*
X101485000Y-118815000D02*
X114405000Y-118815000D01*
X114405000Y-83135000D02*
X108945000Y-83135000D01*
X106945000Y-83135000D02*
X101485000Y-83135000D01*
X114405000Y-118815000D02*
X114405000Y-83135000D01*
X101485000Y-83135000D02*
X101485000Y-118815000D01*
X106945000Y-83135000D02*
G75*
G03*
X108945000Y-83135000I1000000J0D01*
G01*
X47879000Y-65786000D02*
X72771000Y-65786000D01*
X72771000Y-65786000D02*
X72771000Y-34798000D01*
X72771000Y-34798000D02*
X47879000Y-34798000D01*
X47879000Y-34798000D02*
X47879000Y-65786000D01*
X78800000Y-112910000D02*
X68520000Y-112910000D01*
X76310000Y-112970000D02*
X74660000Y-112970000D01*
X76310000Y-130870000D02*
X76310000Y-112970000D01*
X72660000Y-112970000D02*
X71010000Y-112970000D01*
X68520000Y-112910000D02*
X68520000Y-130930000D01*
X78800000Y-130930000D02*
X78800000Y-112910000D01*
X68520000Y-130930000D02*
X78800000Y-130930000D01*
X71010000Y-130870000D02*
X76310000Y-130870000D01*
X71010000Y-112970000D02*
X71010000Y-130870000D01*
X72660000Y-112970000D02*
G75*
G03*
X74660000Y-112970000I1000000J0D01*
G01*
X113097400Y-76660000D02*
X113097400Y-80820000D01*
X114018400Y-76889000D02*
X114018400Y-77900000D01*
X113938400Y-79580000D02*
X113938400Y-80629000D01*
X113137400Y-76661000D02*
X113137400Y-80819000D01*
X114138400Y-79580000D02*
X114138400Y-80525000D01*
X114298400Y-77060000D02*
X114298400Y-77900000D01*
X114938400Y-77800000D02*
X114938400Y-79680000D01*
X114098400Y-76932000D02*
X114098400Y-77900000D01*
X114258400Y-79580000D02*
X114258400Y-80448000D01*
X114218400Y-79580000D02*
X114218400Y-80475000D01*
X114378400Y-77121000D02*
X114378400Y-77900000D01*
X114858400Y-77660000D02*
X114858400Y-77900000D01*
X114618400Y-77344000D02*
X114618400Y-77900000D01*
X114578400Y-77302000D02*
X114578400Y-77900000D01*
X113377400Y-76684000D02*
X113377400Y-77900000D01*
X113497400Y-79580000D02*
X113497400Y-80774000D01*
X114578400Y-79580000D02*
X114578400Y-80178000D01*
X113257400Y-79580000D02*
X113257400Y-80811000D01*
X113457400Y-79580000D02*
X113457400Y-80782000D01*
X114098400Y-79580000D02*
X114098400Y-80548000D01*
X113617400Y-79580000D02*
X113617400Y-80745000D01*
X115018400Y-77972000D02*
X115018400Y-79508000D01*
X113257400Y-76669000D02*
X113257400Y-77900000D01*
X113057400Y-76660000D02*
X113057400Y-80820000D01*
X114658400Y-77389000D02*
X114658400Y-77900000D01*
X113898400Y-76833000D02*
X113898400Y-77900000D01*
X113497400Y-76706000D02*
X113497400Y-77900000D01*
X114778400Y-79580000D02*
X114778400Y-79940000D01*
X114178400Y-79580000D02*
X114178400Y-80500000D01*
X113818400Y-76800000D02*
X113818400Y-77900000D01*
X113577400Y-79580000D02*
X113577400Y-80756000D01*
X113818400Y-79580000D02*
X113818400Y-80680000D01*
X113978400Y-79580000D02*
X113978400Y-80610000D01*
X113337400Y-79580000D02*
X113337400Y-80802000D01*
X113778400Y-79580000D02*
X113778400Y-80694000D01*
X110987599Y-77345000D02*
X110987599Y-77745000D01*
X114618400Y-79580000D02*
X114618400Y-80136000D01*
X113978400Y-76870000D02*
X113978400Y-77900000D01*
X114698400Y-77436000D02*
X114698400Y-77900000D01*
X113577400Y-76724000D02*
X113577400Y-77900000D01*
X114138400Y-76955000D02*
X114138400Y-77900000D01*
X113858400Y-79580000D02*
X113858400Y-80664000D01*
X114538400Y-79580000D02*
X114538400Y-80218000D01*
X113297400Y-79580000D02*
X113297400Y-80807000D01*
X114018400Y-79580000D02*
X114018400Y-80591000D01*
X113938400Y-76851000D02*
X113938400Y-77900000D01*
X114338400Y-79580000D02*
X114338400Y-80390000D01*
X115098400Y-78203000D02*
X115098400Y-79277000D01*
X114738400Y-77486000D02*
X114738400Y-77900000D01*
X113537400Y-79580000D02*
X113537400Y-80765000D01*
X114378400Y-79580000D02*
X114378400Y-80359000D01*
X114458400Y-79580000D02*
X114458400Y-80292000D01*
X113537400Y-76715000D02*
X113537400Y-77900000D01*
X113737400Y-76772000D02*
X113737400Y-77900000D01*
X113697400Y-76758000D02*
X113697400Y-77900000D01*
X114898400Y-77727000D02*
X114898400Y-79753000D01*
X114338400Y-77090000D02*
X114338400Y-77900000D01*
X114818400Y-77598000D02*
X114818400Y-77900000D01*
X114498400Y-79580000D02*
X114498400Y-80256000D01*
X114858400Y-79580000D02*
X114858400Y-79820000D01*
X113217400Y-76666000D02*
X113217400Y-80814000D01*
X113657400Y-76746000D02*
X113657400Y-77900000D01*
X113778400Y-76786000D02*
X113778400Y-77900000D01*
X110787599Y-77545000D02*
X111187599Y-77545000D01*
X113457400Y-76698000D02*
X113457400Y-77900000D01*
X115058400Y-78076000D02*
X115058400Y-79404000D01*
X113617400Y-76735000D02*
X113617400Y-77900000D01*
X113898400Y-79580000D02*
X113898400Y-80647000D01*
X113657400Y-79580000D02*
X113657400Y-80734000D01*
X114818400Y-79580000D02*
X114818400Y-79882000D01*
X114658400Y-79580000D02*
X114658400Y-80091000D01*
X114058400Y-76910000D02*
X114058400Y-77900000D01*
X113417400Y-79580000D02*
X113417400Y-80790000D01*
X113177400Y-76663000D02*
X113177400Y-80817000D01*
X113377400Y-79580000D02*
X113377400Y-80796000D01*
X114058400Y-79580000D02*
X114058400Y-80570000D01*
X113697400Y-79580000D02*
X113697400Y-80722000D01*
X114258400Y-77032000D02*
X114258400Y-77900000D01*
X114698400Y-79580000D02*
X114698400Y-80044000D01*
X113858400Y-76816000D02*
X113858400Y-77900000D01*
X114418400Y-77153000D02*
X114418400Y-77900000D01*
X114458400Y-77188000D02*
X114458400Y-77900000D01*
X114498400Y-77224000D02*
X114498400Y-77900000D01*
X114738400Y-79580000D02*
X114738400Y-79994000D01*
X114978400Y-77881000D02*
X114978400Y-79599000D01*
X113297400Y-76673000D02*
X113297400Y-77900000D01*
X113337400Y-76678000D02*
X113337400Y-77900000D01*
X114218400Y-77005000D02*
X114218400Y-77900000D01*
X114418400Y-79580000D02*
X114418400Y-80327000D01*
X114298400Y-79580000D02*
X114298400Y-80420000D01*
X114778400Y-77540000D02*
X114778400Y-77900000D01*
X114538400Y-77262000D02*
X114538400Y-77900000D01*
X113737400Y-79580000D02*
X113737400Y-80708000D01*
X113417400Y-76690000D02*
X113417400Y-77900000D01*
X115138400Y-78370000D02*
X115138400Y-79110000D01*
X114178400Y-76980000D02*
X114178400Y-77900000D01*
X115177400Y-78740000D02*
G75*
G03*
X115177400Y-78740000I-2120000J0D01*
G01*
X130930000Y-112965000D02*
X129280000Y-112965000D01*
X123140000Y-112905000D02*
X123140000Y-130925000D01*
X133420000Y-130925000D02*
X133420000Y-112905000D01*
X133420000Y-112905000D02*
X123140000Y-112905000D01*
X130930000Y-130865000D02*
X130930000Y-112965000D01*
X125630000Y-130865000D02*
X130930000Y-130865000D01*
X127280000Y-112965000D02*
X125630000Y-112965000D01*
X123140000Y-130925000D02*
X133420000Y-130925000D01*
X125630000Y-112965000D02*
X125630000Y-130865000D01*
X127280000Y-112965000D02*
G75*
G03*
X129280000Y-112965000I1000000J0D01*
G01*
X101346000Y-44069000D02*
X76454000Y-44069000D01*
X76454000Y-44069000D02*
X76454000Y-71501000D01*
X76454000Y-71501000D02*
X101346000Y-71501000D01*
X101346000Y-71501000D02*
X101346000Y-44069000D01*
X140435000Y-51850000D02*
X140435000Y-49730000D01*
X140435000Y-49730000D02*
X152735000Y-49730000D01*
X152735000Y-54910000D02*
X152735000Y-56850000D01*
X152735000Y-49730000D02*
X152735000Y-51850000D01*
X140435000Y-62030000D02*
X140435000Y-59910000D01*
X152735000Y-62030000D02*
X140435000Y-62030000D01*
X152735000Y-59910000D02*
X152735000Y-62030000D01*
X140435000Y-56850000D02*
X140435000Y-54910000D01*
X151264050Y-55920000D02*
G75*
G03*
X151264050Y-55920000I-4579050J0D01*
G01*
X125121000Y-79090000D02*
X126379000Y-79090000D01*
X125121000Y-80930000D02*
X126379000Y-80930000D01*
X133410000Y-83700000D02*
X123130000Y-83700000D01*
X127270000Y-83760000D02*
X125620000Y-83760000D01*
X125620000Y-101660000D02*
X130920000Y-101660000D01*
X123130000Y-83700000D02*
X123130000Y-101720000D01*
X125620000Y-83760000D02*
X125620000Y-101660000D01*
X130920000Y-83760000D02*
X129270000Y-83760000D01*
X123130000Y-101720000D02*
X133410000Y-101720000D01*
X133410000Y-101720000D02*
X133410000Y-83700000D01*
X130920000Y-101660000D02*
X130920000Y-83760000D01*
X127270000Y-83760000D02*
G75*
G03*
X129270000Y-83760000I1000000J0D01*
G01*
X58372400Y-79580000D02*
X58372400Y-80745000D01*
X58653400Y-79580000D02*
X58653400Y-80647000D01*
X59173400Y-79580000D02*
X59173400Y-80327000D01*
X59613400Y-77660000D02*
X59613400Y-77900000D01*
X58933400Y-79580000D02*
X58933400Y-80500000D01*
X58092400Y-76678000D02*
X58092400Y-77900000D01*
X58773400Y-79580000D02*
X58773400Y-80591000D01*
X59373400Y-79580000D02*
X59373400Y-80136000D01*
X59213400Y-77188000D02*
X59213400Y-77900000D01*
X59893400Y-78370000D02*
X59893400Y-79110000D01*
X55542599Y-77545000D02*
X55942599Y-77545000D01*
X59013400Y-79580000D02*
X59013400Y-80448000D01*
X58252400Y-76706000D02*
X58252400Y-77900000D01*
X59453400Y-79580000D02*
X59453400Y-80044000D01*
X58533400Y-79580000D02*
X58533400Y-80694000D01*
X59133400Y-79580000D02*
X59133400Y-80359000D01*
X58212400Y-79580000D02*
X58212400Y-80782000D01*
X58693400Y-76851000D02*
X58693400Y-77900000D01*
X58452400Y-79580000D02*
X58452400Y-80722000D01*
X59253400Y-77224000D02*
X59253400Y-77900000D01*
X59853400Y-78203000D02*
X59853400Y-79277000D01*
X59413400Y-77389000D02*
X59413400Y-77900000D01*
X59333400Y-77302000D02*
X59333400Y-77900000D01*
X59573400Y-77598000D02*
X59573400Y-77900000D01*
X58733400Y-76870000D02*
X58733400Y-77900000D01*
X59813400Y-78076000D02*
X59813400Y-79404000D01*
X59013400Y-77032000D02*
X59013400Y-77900000D01*
X59253400Y-79580000D02*
X59253400Y-80256000D01*
X59373400Y-77344000D02*
X59373400Y-77900000D01*
X59453400Y-77436000D02*
X59453400Y-77900000D01*
X57892400Y-76661000D02*
X57892400Y-80819000D01*
X58492400Y-79580000D02*
X58492400Y-80708000D01*
X59053400Y-79580000D02*
X59053400Y-80420000D01*
X58092400Y-79580000D02*
X58092400Y-80802000D01*
X59413400Y-79580000D02*
X59413400Y-80091000D01*
X58813400Y-76910000D02*
X58813400Y-77900000D01*
X58573400Y-76800000D02*
X58573400Y-77900000D01*
X58773400Y-76889000D02*
X58773400Y-77900000D01*
X59693400Y-77800000D02*
X59693400Y-79680000D01*
X58573400Y-79580000D02*
X58573400Y-80680000D01*
X58172400Y-79580000D02*
X58172400Y-80790000D01*
X59613400Y-79580000D02*
X59613400Y-79820000D01*
X58853400Y-76932000D02*
X58853400Y-77900000D01*
X58973400Y-77005000D02*
X58973400Y-77900000D01*
X58132400Y-79580000D02*
X58132400Y-80796000D01*
X58613400Y-79580000D02*
X58613400Y-80664000D01*
X58613400Y-76816000D02*
X58613400Y-77900000D01*
X57852400Y-76660000D02*
X57852400Y-80820000D01*
X58933400Y-76980000D02*
X58933400Y-77900000D01*
X59053400Y-77060000D02*
X59053400Y-77900000D01*
X58412400Y-79580000D02*
X58412400Y-80734000D01*
X58733400Y-79580000D02*
X58733400Y-80610000D01*
X55742599Y-77345000D02*
X55742599Y-77745000D01*
X58212400Y-76698000D02*
X58212400Y-77900000D01*
X59173400Y-77153000D02*
X59173400Y-77900000D01*
X58893400Y-76955000D02*
X58893400Y-77900000D01*
X58052400Y-76673000D02*
X58052400Y-77900000D01*
X58132400Y-76684000D02*
X58132400Y-77900000D01*
X58172400Y-76690000D02*
X58172400Y-77900000D01*
X59333400Y-79580000D02*
X59333400Y-80178000D01*
X59653400Y-77727000D02*
X59653400Y-79753000D01*
X58653400Y-76833000D02*
X58653400Y-77900000D01*
X58372400Y-76735000D02*
X58372400Y-77900000D01*
X59773400Y-77972000D02*
X59773400Y-79508000D01*
X57812400Y-76660000D02*
X57812400Y-80820000D01*
X58252400Y-79580000D02*
X58252400Y-80774000D01*
X58973400Y-79580000D02*
X58973400Y-80475000D01*
X59533400Y-77540000D02*
X59533400Y-77900000D01*
X58292400Y-76715000D02*
X58292400Y-77900000D01*
X59093400Y-77090000D02*
X59093400Y-77900000D01*
X58012400Y-76669000D02*
X58012400Y-77900000D01*
X59533400Y-79580000D02*
X59533400Y-79940000D01*
X59093400Y-79580000D02*
X59093400Y-80390000D01*
X57932400Y-76663000D02*
X57932400Y-80817000D01*
X59293400Y-77262000D02*
X59293400Y-77900000D01*
X58533400Y-76786000D02*
X58533400Y-77900000D01*
X59213400Y-79580000D02*
X59213400Y-80292000D01*
X59733400Y-77881000D02*
X59733400Y-79599000D01*
X58292400Y-79580000D02*
X58292400Y-80765000D01*
X58853400Y-79580000D02*
X58853400Y-80548000D01*
X59493400Y-77486000D02*
X59493400Y-77900000D01*
X58332400Y-76724000D02*
X58332400Y-77900000D01*
X59493400Y-79580000D02*
X59493400Y-79994000D01*
X58693400Y-79580000D02*
X58693400Y-80629000D01*
X58492400Y-76772000D02*
X58492400Y-77900000D01*
X59573400Y-79580000D02*
X59573400Y-79882000D01*
X59133400Y-77121000D02*
X59133400Y-77900000D01*
X58813400Y-79580000D02*
X58813400Y-80570000D01*
X58052400Y-79580000D02*
X58052400Y-80807000D01*
X58012400Y-79580000D02*
X58012400Y-80811000D01*
X57972400Y-76666000D02*
X57972400Y-80814000D01*
X58893400Y-79580000D02*
X58893400Y-80525000D01*
X58332400Y-79580000D02*
X58332400Y-80756000D01*
X59293400Y-79580000D02*
X59293400Y-80218000D01*
X58412400Y-76746000D02*
X58412400Y-77900000D01*
X58452400Y-76758000D02*
X58452400Y-77900000D01*
X59932400Y-78740000D02*
G75*
G03*
X59932400Y-78740000I-2120000J0D01*
G01*
X123925000Y-62430000D02*
X136225000Y-62430000D01*
X136225000Y-74730000D02*
X123925000Y-74730000D01*
X123925000Y-74730000D02*
X123925000Y-72610000D01*
X123925000Y-64550000D02*
X123925000Y-62430000D01*
X136225000Y-67610000D02*
X136225000Y-69550000D01*
X123925000Y-69550000D02*
X123925000Y-67610000D01*
X136225000Y-62430000D02*
X136225000Y-64550000D01*
X136225000Y-72610000D02*
X136225000Y-74730000D01*
X134754050Y-68620000D02*
G75*
G03*
X134754050Y-68620000I-4579050J0D01*
G01*
X139686000Y-79090000D02*
X140944000Y-79090000D01*
X139686000Y-80930000D02*
X140944000Y-80930000D01*
X102970000Y-126270000D02*
X102640000Y-126270000D01*
X100560000Y-132810000D02*
X100230000Y-132810000D01*
X102640000Y-132810000D02*
X102970000Y-132810000D01*
X100230000Y-132810000D02*
X100230000Y-126270000D01*
X102970000Y-132810000D02*
X102970000Y-126270000D01*
X100230000Y-126270000D02*
X100560000Y-126270000D01*
X139726000Y-110140000D02*
X140984000Y-110140000D01*
X139726000Y-108300000D02*
X140984000Y-108300000D01*
X66325000Y-102229000D02*
X66325000Y-100971000D01*
X64485000Y-102229000D02*
X64485000Y-100971000D01*
X58520000Y-133445000D02*
X58520000Y-126905000D01*
X58520000Y-126905000D02*
X58190000Y-126905000D01*
X58190000Y-133445000D02*
X58520000Y-133445000D01*
X55780000Y-126905000D02*
X56110000Y-126905000D01*
X55780000Y-133445000D02*
X55780000Y-126905000D01*
X56110000Y-133445000D02*
X55780000Y-133445000D01*
%LPC*%
D13*
X69870000Y-110490000D03*
X72370000Y-110490000D03*
D14*
X107425000Y-53420000D03*
X119925000Y-53420000D03*
X107425000Y-58420000D03*
X119925000Y-58420000D03*
D15*
X83820000Y-114300000D03*
D16*
X83820000Y-116840000D03*
X83820000Y-119380000D03*
X83820000Y-121920000D03*
X83820000Y-124460000D03*
X83820000Y-127000000D03*
X83820000Y-129540000D03*
X83820000Y-132080000D03*
X91440000Y-132080000D03*
X91440000Y-129540000D03*
X91440000Y-127000000D03*
X91440000Y-124460000D03*
X91440000Y-121920000D03*
X91440000Y-119380000D03*
X91440000Y-116840000D03*
X91440000Y-114300000D03*
D14*
X145325000Y-141010000D03*
X132825000Y-141010000D03*
X132825000Y-146010000D03*
X145325000Y-146010000D03*
D13*
X52070000Y-133985000D03*
D16*
X52070000Y-126365000D03*
D17*
X57150000Y-148590000D03*
D18*
X57150000Y-146050000D03*
X59690000Y-148590000D03*
X59690000Y-146050000D03*
X62230000Y-148590000D03*
X62230000Y-146050000D03*
X64770000Y-148590000D03*
X64770000Y-146050000D03*
X67310000Y-148590000D03*
X67310000Y-146050000D03*
X69850000Y-148590000D03*
X69850000Y-146050000D03*
X72390000Y-148590000D03*
X72390000Y-146050000D03*
X74930000Y-148590000D03*
X74930000Y-146050000D03*
X77470000Y-148590000D03*
X77470000Y-146050000D03*
X80010000Y-148590000D03*
X80010000Y-146050000D03*
X82550000Y-148590000D03*
X82550000Y-146050000D03*
X85090000Y-148590000D03*
X85090000Y-146050000D03*
X87630000Y-148590000D03*
X87630000Y-146050000D03*
X90170000Y-148590000D03*
X90170000Y-146050000D03*
X92710000Y-148590000D03*
X92710000Y-146050000D03*
X95250000Y-148590000D03*
X95250000Y-146050000D03*
X97790000Y-148590000D03*
X97790000Y-146050000D03*
X100330000Y-148590000D03*
X100330000Y-146050000D03*
X102870000Y-148590000D03*
X102870000Y-146050000D03*
X105410000Y-148590000D03*
X105410000Y-146050000D03*
X107950000Y-148590000D03*
X107950000Y-146050000D03*
X110490000Y-148590000D03*
X110490000Y-146050000D03*
X113030000Y-148590000D03*
X113030000Y-146050000D03*
X115570000Y-148590000D03*
X115570000Y-146050000D03*
X118110000Y-148590000D03*
X118110000Y-146050000D03*
D13*
X62230000Y-133985000D03*
D16*
X62230000Y-126365000D03*
D13*
X70505000Y-80010000D03*
X73005000Y-80010000D03*
D15*
X83820000Y-85090000D03*
D16*
X83820000Y-87630000D03*
X83820000Y-90170000D03*
X83820000Y-92710000D03*
X83820000Y-95250000D03*
X83820000Y-97790000D03*
X83820000Y-100330000D03*
X83820000Y-102870000D03*
X91440000Y-102870000D03*
X91440000Y-100330000D03*
X91440000Y-97790000D03*
X91440000Y-95250000D03*
X91440000Y-92710000D03*
X91440000Y-90170000D03*
X91440000Y-87630000D03*
X91440000Y-85090000D03*
D13*
X46990000Y-133985000D03*
D16*
X46990000Y-126365000D03*
D19*
X47625000Y-98335000D03*
X47625000Y-93435000D03*
D13*
X84475000Y-80010000D03*
X86975000Y-80010000D03*
D15*
X69850000Y-85090000D03*
D16*
X69850000Y-87630000D03*
X69850000Y-90170000D03*
X69850000Y-92710000D03*
X69850000Y-95250000D03*
X69850000Y-97790000D03*
X69850000Y-100330000D03*
X69850000Y-102870000D03*
X77470000Y-102870000D03*
X77470000Y-100330000D03*
X77470000Y-97790000D03*
X77470000Y-95250000D03*
X77470000Y-92710000D03*
X77470000Y-90170000D03*
X77470000Y-87630000D03*
X77470000Y-85090000D03*
D20*
X114935000Y-133350000D03*
D21*
X114935000Y-125730000D03*
D14*
X123825000Y-40680000D03*
X136325000Y-40680000D03*
X136325000Y-45680000D03*
X123825000Y-45680000D03*
D13*
X83840000Y-109855000D03*
X86340000Y-109855000D03*
D22*
X153652900Y-37991100D03*
D13*
X47645000Y-105410000D03*
X50145000Y-105410000D03*
X47645000Y-107950000D03*
X50145000Y-107950000D03*
D15*
X53985000Y-85100000D03*
D16*
X53985000Y-87640000D03*
X53985000Y-90180000D03*
X53985000Y-92720000D03*
X53985000Y-95260000D03*
X53985000Y-97800000D03*
X53985000Y-100340000D03*
X53985000Y-102880000D03*
X53985000Y-105420000D03*
X53985000Y-107960000D03*
X53985000Y-110500000D03*
X53985000Y-113040000D03*
X53985000Y-115580000D03*
X53985000Y-118120000D03*
X61605000Y-118120000D03*
X61605000Y-115580000D03*
X61605000Y-113040000D03*
X61605000Y-110500000D03*
X61605000Y-107960000D03*
X61605000Y-105420000D03*
X61605000Y-102880000D03*
X61605000Y-100340000D03*
X61605000Y-97800000D03*
X61605000Y-95260000D03*
X61605000Y-92720000D03*
X61605000Y-90180000D03*
X61605000Y-87640000D03*
X61605000Y-85100000D03*
D15*
X138430000Y-114300000D03*
D16*
X138430000Y-116840000D03*
X138430000Y-119380000D03*
X138430000Y-121920000D03*
X138430000Y-124460000D03*
X138430000Y-127000000D03*
X138430000Y-129540000D03*
X146050000Y-129540000D03*
X146050000Y-127000000D03*
X146050000Y-124460000D03*
X146050000Y-121920000D03*
X146050000Y-119380000D03*
X146050000Y-116840000D03*
X146050000Y-114300000D03*
D13*
X107315000Y-125730000D03*
D16*
X107315000Y-133350000D03*
D13*
X102255000Y-80010000D03*
X104755000Y-80010000D03*
D15*
X138430000Y-85090000D03*
D16*
X138430000Y-87630000D03*
X138430000Y-90170000D03*
X138430000Y-92710000D03*
X138430000Y-95250000D03*
X138430000Y-97790000D03*
X138430000Y-100330000D03*
X146050000Y-100330000D03*
X146050000Y-97790000D03*
X146050000Y-95250000D03*
X146050000Y-92710000D03*
X146050000Y-90170000D03*
X146050000Y-87630000D03*
X146050000Y-85090000D03*
D13*
X124480000Y-109220000D03*
X126980000Y-109220000D03*
D15*
X100325000Y-84465000D03*
D16*
X100325000Y-87005000D03*
X100325000Y-89545000D03*
X100325000Y-92085000D03*
X100325000Y-94625000D03*
X100325000Y-97165000D03*
X100325000Y-99705000D03*
X100325000Y-102245000D03*
X100325000Y-104785000D03*
X100325000Y-107325000D03*
X100325000Y-109865000D03*
X100325000Y-112405000D03*
X100325000Y-114945000D03*
X100325000Y-117485000D03*
X115565000Y-117485000D03*
X115565000Y-114945000D03*
X115565000Y-112405000D03*
X115565000Y-109865000D03*
X115565000Y-107325000D03*
X115565000Y-104785000D03*
X115565000Y-102245000D03*
X115565000Y-99705000D03*
X115565000Y-97165000D03*
X115565000Y-94625000D03*
X115565000Y-92085000D03*
X115565000Y-89545000D03*
X115565000Y-87005000D03*
X115565000Y-84465000D03*
D23*
X69215000Y-64770000D03*
X66675000Y-64770000D03*
X64135000Y-64770000D03*
X61595000Y-64770000D03*
X59055000Y-64770000D03*
X56515000Y-64770000D03*
X53975000Y-64770000D03*
X51435000Y-64770000D03*
D15*
X69850000Y-114300000D03*
D16*
X69850000Y-116840000D03*
X69850000Y-119380000D03*
X69850000Y-121920000D03*
X69850000Y-124460000D03*
X69850000Y-127000000D03*
X69850000Y-129540000D03*
X77470000Y-129540000D03*
X77470000Y-127000000D03*
X77470000Y-124460000D03*
X77470000Y-121920000D03*
X77470000Y-119380000D03*
X77470000Y-116840000D03*
X77470000Y-114300000D03*
D22*
X41910000Y-154307000D03*
X153652900Y-154307000D03*
D24*
X112057400Y-78740000D03*
D25*
X114057400Y-78740000D03*
D15*
X124470000Y-114295000D03*
D16*
X124470000Y-116835000D03*
X124470000Y-119375000D03*
X124470000Y-121915000D03*
X124470000Y-124455000D03*
X124470000Y-126995000D03*
X124470000Y-129535000D03*
X132090000Y-129535000D03*
X132090000Y-126995000D03*
X132090000Y-124455000D03*
X132090000Y-121915000D03*
X132090000Y-119375000D03*
X132090000Y-116835000D03*
X132090000Y-114295000D03*
D23*
X84836000Y-45085000D03*
X87376000Y-45085000D03*
X89916000Y-45085000D03*
X92456000Y-45085000D03*
D14*
X140335000Y-53380000D03*
X152835000Y-53380000D03*
X152835000Y-58380000D03*
X140335000Y-58380000D03*
D13*
X124500000Y-80010000D03*
X127000000Y-80010000D03*
D15*
X124460000Y-85090000D03*
D16*
X124460000Y-87630000D03*
X124460000Y-90170000D03*
X124460000Y-92710000D03*
X124460000Y-95250000D03*
X124460000Y-97790000D03*
X124460000Y-100330000D03*
X132080000Y-100330000D03*
X132080000Y-97790000D03*
X132080000Y-95250000D03*
X132080000Y-92710000D03*
X132080000Y-90170000D03*
X132080000Y-87630000D03*
X132080000Y-85090000D03*
D24*
X56812400Y-78740000D03*
D25*
X58812400Y-78740000D03*
D14*
X136325000Y-66080000D03*
X123825000Y-66080000D03*
X136325000Y-71080000D03*
X123825000Y-71080000D03*
D13*
X139065000Y-80010000D03*
X141565000Y-80010000D03*
X101600000Y-133350000D03*
D16*
X101600000Y-125730000D03*
D13*
X139105000Y-109220000D03*
X141605000Y-109220000D03*
X65405000Y-102850000D03*
X65405000Y-100350000D03*
D22*
X41910000Y-37991100D03*
D13*
X57150000Y-133985000D03*
D16*
X57150000Y-126365000D03*
M02*
